<mxfile host="Electron" agent="Mozilla/5.0 (Windows NT 10.0; Win64; x64) AppleWebKit/537.36 (KHTML, like Gecko) draw.io/27.0.5 Chrome/134.0.6998.205 Electron/35.3.0 Safari/537.36" version="27.0.5">
  <diagram name="Page-1" id="GuPlKzeXtOCRGG5NbopS">
    <mxGraphModel dx="2314" dy="737" grid="1" gridSize="10" guides="1" tooltips="1" connect="1" arrows="1" fold="1" page="1" pageScale="1" pageWidth="850" pageHeight="1100" math="0" shadow="0">
      <root>
        <mxCell id="0" />
        <mxCell id="1" parent="0" />
        <mxCell id="S56HPxfW4hmjYXF7Ifkf-1" value="&lt;font style=&quot;font-size: 36px;&quot;&gt;DATAWAREHOUSE Architecture&amp;nbsp;&lt;/font&gt;" style="text;html=1;align=center;verticalAlign=middle;whiteSpace=wrap;rounded=0;fontStyle=1" parent="1" vertex="1">
          <mxGeometry x="-19.5" y="40" width="580" height="30" as="geometry" />
        </mxCell>
        <mxCell id="S56HPxfW4hmjYXF7Ifkf-2" value="" style="rounded=0;whiteSpace=wrap;html=1;" parent="1" vertex="1">
          <mxGeometry x="-19.5" y="160" width="199" height="519.5" as="geometry" />
        </mxCell>
        <mxCell id="S56HPxfW4hmjYXF7Ifkf-3" value="&lt;div&gt;&lt;font style=&quot;font-size: 18px;&quot;&gt;Sources&lt;/font&gt;&lt;/div&gt;" style="rounded=0;whiteSpace=wrap;html=1;fontStyle=1" parent="1" vertex="1">
          <mxGeometry x="20" y="138" width="120" height="32" as="geometry" />
        </mxCell>
        <mxCell id="S56HPxfW4hmjYXF7Ifkf-4" value="" style="rounded=0;whiteSpace=wrap;html=1;" parent="1" vertex="1">
          <mxGeometry x="260" y="160" width="850" height="522.5" as="geometry" />
        </mxCell>
        <mxCell id="S56HPxfW4hmjYXF7Ifkf-5" value="" style="rounded=0;whiteSpace=wrap;html=1;" parent="1" vertex="1">
          <mxGeometry x="1190" y="160" width="170" height="525.5" as="geometry" />
        </mxCell>
        <mxCell id="S56HPxfW4hmjYXF7Ifkf-7" value="&lt;font style=&quot;font-size: 18px;&quot;&gt;Data Warehouse&lt;/font&gt;" style="rounded=0;whiteSpace=wrap;html=1;fontStyle=1" parent="1" vertex="1">
          <mxGeometry x="500" y="140" width="340" height="32" as="geometry" />
        </mxCell>
        <mxCell id="S56HPxfW4hmjYXF7Ifkf-10" value="" style="rounded=0;whiteSpace=wrap;html=1;strokeColor=light-dark(#CC6600,#EDEDED);" parent="1" vertex="1">
          <mxGeometry x="290" y="196" width="223" height="460" as="geometry" />
        </mxCell>
        <mxCell id="S56HPxfW4hmjYXF7Ifkf-11" value="" style="rounded=0;whiteSpace=wrap;html=1;" parent="1" vertex="1">
          <mxGeometry x="560" y="196" width="223" height="460" as="geometry" />
        </mxCell>
        <mxCell id="S56HPxfW4hmjYXF7Ifkf-12" value="" style="rounded=0;whiteSpace=wrap;html=1;strokeColor=light-dark(#ffdd00, #ededed);" parent="1" vertex="1">
          <mxGeometry x="834" y="197" width="223" height="460" as="geometry" />
        </mxCell>
        <mxCell id="S56HPxfW4hmjYXF7Ifkf-15" value="Bronze Layer&lt;span style=&quot;color: rgba(0, 0, 0, 0); font-family: monospace; font-size: 0px; text-align: start; text-wrap-mode: nowrap;&quot;&gt;%3CmxGraphModel%3E%3Croot%3E%3CmxCell%20id%3D%220%22%2F%3E%3CmxCell%20id%3D%221%22%20parent%3D%220%22%2F%3E%3CmxCell%20id%3D%222%22%20value%3D%22%22%20style%3D%22rounded%3D0%3BwhiteSpace%3Dwrap%3Bhtml%3D1%3B%22%20vertex%3D%221%22%20parent%3D%221%22%3E%3CmxGeometry%20x%3D%22365%22%20y%3D%22140%22%20width%3D%22120%22%20height%3D%22310%22%20as%3D%22geometry%22%2F%3E%3C%2FmxCell%3E%3C%2Froot%3E%3C%2FmxGraphModel%3E&lt;/span&gt;" style="rounded=1;whiteSpace=wrap;html=1;fillColor=#fff2cc;strokeColor=none;fontStyle=1" parent="1" vertex="1">
          <mxGeometry x="341" y="180" width="120" height="27" as="geometry" />
        </mxCell>
        <mxCell id="S56HPxfW4hmjYXF7Ifkf-16" value="Silver Layer" style="rounded=1;whiteSpace=wrap;html=1;fontStyle=1" parent="1" vertex="1">
          <mxGeometry x="615.5" y="180" width="120" height="27" as="geometry" />
        </mxCell>
        <mxCell id="S56HPxfW4hmjYXF7Ifkf-17" value="Gold Layer" style="rounded=1;whiteSpace=wrap;html=1;fillColor=light-dark(#fbff00, #ededed);strokeColor=none;fontStyle=1" parent="1" vertex="1">
          <mxGeometry x="885.5" y="180" width="120" height="27" as="geometry" />
        </mxCell>
        <mxCell id="S56HPxfW4hmjYXF7Ifkf-21" value="" style="image;aspect=fixed;html=1;points=[];align=center;fontSize=12;image=img/lib/azure2/general/Folder_Blank.svg;" parent="1" vertex="1">
          <mxGeometry x="45.5" y="254" width="64" height="32.00000000000001" as="geometry" />
        </mxCell>
        <mxCell id="S56HPxfW4hmjYXF7Ifkf-22" value="" style="image;aspect=fixed;perimeter=ellipsePerimeter;html=1;align=center;shadow=0;dashed=0;spacingTop=3;image=img/lib/active_directory/folder_open.svg;" parent="1" vertex="1">
          <mxGeometry x="80" y="274" width="31.799999999999997" height="16" as="geometry" />
        </mxCell>
        <mxCell id="S56HPxfW4hmjYXF7Ifkf-23" value="CRM" style="text;html=1;align=center;verticalAlign=middle;whiteSpace=wrap;rounded=0;" parent="1" vertex="1">
          <mxGeometry x="50" y="310" width="55" height="6" as="geometry" />
        </mxCell>
        <mxCell id="S56HPxfW4hmjYXF7Ifkf-24" value="" style="image;aspect=fixed;html=1;points=[];align=center;fontSize=12;image=img/lib/azure2/general/Folder_Blank.svg;" parent="1" vertex="1">
          <mxGeometry x="45.5" y="368" width="64" height="32.00000000000001" as="geometry" />
        </mxCell>
        <mxCell id="S56HPxfW4hmjYXF7Ifkf-25" value="" style="image;aspect=fixed;perimeter=ellipsePerimeter;html=1;align=center;shadow=0;dashed=0;spacingTop=3;image=img/lib/active_directory/folder_open.svg;" parent="1" vertex="1">
          <mxGeometry x="80.5" y="388" width="31.799999999999997" height="16" as="geometry" />
        </mxCell>
        <mxCell id="S56HPxfW4hmjYXF7Ifkf-26" value="ERP" style="text;html=1;align=center;verticalAlign=middle;whiteSpace=wrap;rounded=0;" parent="1" vertex="1">
          <mxGeometry x="50" y="428" width="55" height="6" as="geometry" />
        </mxCell>
        <mxCell id="S56HPxfW4hmjYXF7Ifkf-31" value="" style="shape=link;html=1;rounded=0;" parent="1" edge="1">
          <mxGeometry width="100" relative="1" as="geometry">
            <mxPoint x="27.5" y="483.2" as="sourcePoint" />
            <mxPoint x="127.5" y="483.2" as="targetPoint" />
            <Array as="points">
              <mxPoint x="67.5" y="483.2" />
            </Array>
          </mxGeometry>
        </mxCell>
        <mxCell id="S56HPxfW4hmjYXF7Ifkf-32" value="&lt;b style=&quot;font-size: 9px;&quot;&gt;Objective Type&lt;/b&gt;&lt;span style=&quot;font-size: 9px;&quot;&gt;&amp;nbsp;: CSV Files&lt;/span&gt;" style="text;html=1;align=center;verticalAlign=middle;whiteSpace=wrap;rounded=0;" parent="1" vertex="1">
          <mxGeometry x="15" y="515" width="130" height="30" as="geometry" />
        </mxCell>
        <mxCell id="S56HPxfW4hmjYXF7Ifkf-35" value="&lt;font size=&quot;1&quot;&gt;&lt;b&gt;Interface : &lt;/b&gt;Files In Folders&lt;/font&gt;" style="text;html=1;align=center;verticalAlign=middle;whiteSpace=wrap;rounded=0;" parent="1" vertex="1">
          <mxGeometry x="20" y="545" width="126.25" height="30" as="geometry" />
        </mxCell>
        <mxCell id="S56HPxfW4hmjYXF7Ifkf-49" value="&lt;div&gt;Business Ready Data&lt;/div&gt;&lt;div&gt;&lt;br&gt;&lt;/div&gt;" style="text;html=1;align=center;verticalAlign=middle;whiteSpace=wrap;rounded=0;fontStyle=1" parent="1" vertex="1">
          <mxGeometry x="899" y="318" width="111" height="38" as="geometry" />
        </mxCell>
        <mxCell id="S56HPxfW4hmjYXF7Ifkf-56" value="&lt;b&gt;Objective Type&lt;/b&gt;&lt;span&gt;&amp;nbsp;:&amp;nbsp; Views&lt;/span&gt;" style="text;html=1;align=center;verticalAlign=middle;whiteSpace=wrap;rounded=0;fontSize=12;" parent="1" vertex="1">
          <mxGeometry x="806.5" y="368.5" width="216" height="38" as="geometry" />
        </mxCell>
        <mxCell id="S56HPxfW4hmjYXF7Ifkf-59" value="&lt;font&gt;&lt;b&gt;No Load&lt;/b&gt;&lt;/font&gt;" style="text;html=1;align=left;verticalAlign=middle;whiteSpace=wrap;rounded=0;fontSize=12;" parent="1" vertex="1">
          <mxGeometry x="850" y="399" width="100" height="44" as="geometry" />
        </mxCell>
        <mxCell id="S56HPxfW4hmjYXF7Ifkf-61" value="&lt;b&gt;Transformations :&lt;/b&gt;&lt;br&gt;&lt;div&gt;&lt;ul&gt;&lt;li&gt;Data Integration&lt;/li&gt;&lt;li&gt;Aggregation&lt;/li&gt;&lt;li&gt;Business Logics&lt;/li&gt;&lt;/ul&gt;&lt;/div&gt;" style="text;html=1;align=left;verticalAlign=middle;whiteSpace=wrap;rounded=0;fontSize=12;" parent="1" vertex="1">
          <mxGeometry x="850" y="462" width="161" height="68" as="geometry" />
        </mxCell>
        <mxCell id="S56HPxfW4hmjYXF7Ifkf-63" value="" style="html=1;verticalLabelPosition=bottom;align=center;labelBackgroundColor=#ffffff;verticalAlign=top;strokeWidth=2;strokeColor=#666666;shadow=0;dashed=0;shape=mxgraph.ios7.icons.data;fillColor=#f5f5f5;fontColor=#333333;" parent="1" vertex="1">
          <mxGeometry x="630.5" y="222" width="90" height="75" as="geometry" />
        </mxCell>
        <mxCell id="S56HPxfW4hmjYXF7Ifkf-64" value="Cleaned,Standardized Data&lt;div&gt;&lt;br&gt;&lt;/div&gt;" style="text;html=1;align=center;verticalAlign=middle;whiteSpace=wrap;rounded=0;fontStyle=1" parent="1" vertex="1">
          <mxGeometry x="649" y="330" width="45" height="30" as="geometry" />
        </mxCell>
        <mxCell id="S56HPxfW4hmjYXF7Ifkf-65" value="&lt;b&gt;Objective Type&lt;/b&gt;&lt;span&gt;&amp;nbsp;:&amp;nbsp; Tables&lt;/span&gt;" style="text;html=1;align=center;verticalAlign=middle;whiteSpace=wrap;rounded=0;fontSize=12;" parent="1" vertex="1">
          <mxGeometry x="560" y="372.5" width="170" height="30" as="geometry" />
        </mxCell>
        <mxCell id="S56HPxfW4hmjYXF7Ifkf-67" value="&lt;font&gt;&lt;b&gt;Transformations :&lt;/b&gt;&lt;/font&gt;&lt;div&gt;&lt;ul&gt;&lt;li&gt;&lt;font&gt;Data Cleaning&lt;/font&gt;&lt;/li&gt;&lt;li&gt;&lt;font&gt;Data Standrization&lt;/font&gt;&lt;/li&gt;&lt;li&gt;&lt;font&gt;Data Normilization&lt;/font&gt;&lt;/li&gt;&lt;li&gt;&lt;font&gt;Derived Columns&lt;/font&gt;&lt;/li&gt;&lt;li&gt;&lt;font&gt;Data Enrichment&lt;/font&gt;&lt;/li&gt;&lt;/ul&gt;&lt;/div&gt;" style="text;html=1;align=left;verticalAlign=middle;whiteSpace=wrap;rounded=0;fontSize=12;" parent="1" vertex="1">
          <mxGeometry x="580" y="505" width="170" height="90" as="geometry" />
        </mxCell>
        <mxCell id="S56HPxfW4hmjYXF7Ifkf-69" value="" style="html=1;verticalLabelPosition=bottom;align=center;labelBackgroundColor=#ffffff;verticalAlign=top;strokeWidth=2;strokeColor=#d6b656;shadow=0;dashed=0;shape=mxgraph.ios7.icons.data;fillColor=#fff2cc;" parent="1" vertex="1">
          <mxGeometry x="900.5" y="222" width="90" height="75" as="geometry" />
        </mxCell>
        <mxCell id="S56HPxfW4hmjYXF7Ifkf-71" value="RAW DATA" style="text;html=1;align=center;verticalAlign=middle;whiteSpace=wrap;rounded=0;fontStyle=1" parent="1" vertex="1">
          <mxGeometry x="360" y="318" width="71" height="30" as="geometry" />
        </mxCell>
        <mxCell id="S56HPxfW4hmjYXF7Ifkf-72" value="&lt;b&gt;Objective Type&lt;/b&gt;&lt;span&gt;&amp;nbsp;:&amp;nbsp; Tables&lt;/span&gt;" style="text;html=1;align=center;verticalAlign=middle;whiteSpace=wrap;rounded=0;fontSize=12;" parent="1" vertex="1">
          <mxGeometry x="290" y="368" width="220" height="31" as="geometry" />
        </mxCell>
        <mxCell id="S56HPxfW4hmjYXF7Ifkf-73" value="&lt;font&gt;&lt;b&gt;Load:&lt;/b&gt;&lt;/font&gt;&lt;div&gt;&lt;ul&gt;&lt;li&gt;&lt;font&gt;Batch Processing&lt;/font&gt;&lt;/li&gt;&lt;li&gt;&lt;font&gt;Full Load&lt;/font&gt;&lt;/li&gt;&lt;li&gt;&lt;font&gt;Truncate &amp;amp; Insert&lt;/font&gt;&lt;/li&gt;&lt;/ul&gt;&lt;/div&gt;" style="text;html=1;align=left;verticalAlign=middle;whiteSpace=wrap;rounded=0;fontSize=12;" parent="1" vertex="1">
          <mxGeometry x="300" y="424" width="210" height="60" as="geometry" />
        </mxCell>
        <mxCell id="S56HPxfW4hmjYXF7Ifkf-81" value="" style="html=1;verticalLabelPosition=bottom;align=center;labelBackgroundColor=#ffffff;verticalAlign=top;strokeWidth=2;strokeColor=#d79b00;shadow=0;dashed=0;shape=mxgraph.ios7.icons.data;fillColor=#ffe6cc;" parent="1" vertex="1">
          <mxGeometry x="356" y="222" width="90" height="75" as="geometry" />
        </mxCell>
        <mxCell id="S56HPxfW4hmjYXF7Ifkf-83" value="&lt;font&gt;&lt;b&gt;Load:&lt;/b&gt;&lt;/font&gt;&lt;div&gt;&lt;ul&gt;&lt;li&gt;&lt;font&gt;Batch Processing&lt;/font&gt;&lt;/li&gt;&lt;li&gt;&lt;font&gt;Full Load&lt;/font&gt;&lt;/li&gt;&lt;li&gt;&lt;font&gt;Truncate &amp;amp; Insert&lt;/font&gt;&lt;/li&gt;&lt;/ul&gt;&lt;/div&gt;" style="text;html=1;align=left;verticalAlign=middle;whiteSpace=wrap;rounded=0;fontSize=12;" parent="1" vertex="1">
          <mxGeometry x="580" y="424" width="210" height="60" as="geometry" />
        </mxCell>
        <mxCell id="S56HPxfW4hmjYXF7Ifkf-86" value="NO &lt;b&gt;Transformation&lt;/b&gt;" style="text;html=1;align=center;verticalAlign=middle;whiteSpace=wrap;rounded=0;" parent="1" vertex="1">
          <mxGeometry x="300" y="500" width="140" height="30" as="geometry" />
        </mxCell>
        <mxCell id="S56HPxfW4hmjYXF7Ifkf-88" value="&lt;b&gt;Data Model : &lt;/b&gt;None (as-is)&lt;b&gt;&amp;nbsp;&lt;/b&gt;" style="text;html=1;align=center;verticalAlign=middle;whiteSpace=wrap;rounded=0;" parent="1" vertex="1">
          <mxGeometry x="306" y="540" width="164" height="30" as="geometry" />
        </mxCell>
        <mxCell id="S56HPxfW4hmjYXF7Ifkf-89" value="&lt;b&gt;Data Model :&amp;nbsp;&lt;/b&gt;&lt;div&gt;&lt;ul&gt;&lt;li&gt;Star Scheme&lt;/li&gt;&lt;li&gt;Flat Table&lt;/li&gt;&lt;li&gt;Aggregated Table&lt;b&gt;&amp;nbsp;&lt;/b&gt;&lt;/li&gt;&lt;/ul&gt;&lt;/div&gt;" style="text;html=1;align=left;verticalAlign=middle;whiteSpace=wrap;rounded=0;" parent="1" vertex="1">
          <mxGeometry x="853" y="530" width="185" height="110" as="geometry" />
        </mxCell>
        <mxCell id="S56HPxfW4hmjYXF7Ifkf-90" value="&lt;b&gt;Data Model : &lt;/b&gt;None (as-is)&lt;b&gt;&amp;nbsp;&lt;/b&gt;" style="text;html=1;align=center;verticalAlign=middle;whiteSpace=wrap;rounded=0;" parent="1" vertex="1">
          <mxGeometry x="580" y="600" width="164" height="30" as="geometry" />
        </mxCell>
        <mxCell id="S56HPxfW4hmjYXF7Ifkf-95" value="" style="shape=flexArrow;endArrow=classic;rounded=0;entryX=0;entryY=0.25;entryDx=0;entryDy=0;labelBackgroundColor=light-dark(#b82828, #007aa3);fontColor=light-dark(#aa2727, #ededed);textShadow=1;fontStyle=1;fillColor=#27DEFF;" parent="1" target="S56HPxfW4hmjYXF7Ifkf-10" edge="1">
          <mxGeometry width="50" height="50" relative="1" as="geometry">
            <mxPoint x="170" y="311" as="sourcePoint" />
            <mxPoint x="260.0000000000001" y="316.003" as="targetPoint" />
          </mxGeometry>
        </mxCell>
        <mxCell id="S56HPxfW4hmjYXF7Ifkf-96" value="" style="shape=flexArrow;endArrow=classic;rounded=0;entryX=0;entryY=0.25;entryDx=0;entryDy=0;labelBackgroundColor=light-dark(#b82828, #007aa3);fontColor=light-dark(#aa2727, #ededed);textShadow=1;fontStyle=1;fillColor=#27DEFF;" parent="1" edge="1">
          <mxGeometry width="50" height="50" relative="1" as="geometry">
            <mxPoint x="480" y="310" as="sourcePoint" />
            <mxPoint x="600" y="310" as="targetPoint" />
          </mxGeometry>
        </mxCell>
        <mxCell id="S56HPxfW4hmjYXF7Ifkf-97" value="" style="shape=flexArrow;endArrow=classic;rounded=0;entryX=0;entryY=0.25;entryDx=0;entryDy=0;labelBackgroundColor=light-dark(#b82828, #007aa3);fontColor=light-dark(#aa2727, #ededed);textShadow=1;fontStyle=1;fillColor=#27DEFF;" parent="1" edge="1">
          <mxGeometry width="50" height="50" relative="1" as="geometry">
            <mxPoint x="743" y="308.89" as="sourcePoint" />
            <mxPoint x="863" y="308.89" as="targetPoint" />
          </mxGeometry>
        </mxCell>
        <mxCell id="S56HPxfW4hmjYXF7Ifkf-98" value="" style="shape=flexArrow;endArrow=classic;rounded=0;entryX=0;entryY=0.25;entryDx=0;entryDy=0;labelBackgroundColor=light-dark(#b82828, #007aa3);fontColor=light-dark(#aa2727, #ededed);textShadow=1;fontStyle=1;fillColor=#27DEFF;" parent="1" edge="1">
          <mxGeometry width="50" height="50" relative="1" as="geometry">
            <mxPoint x="1090" y="310" as="sourcePoint" />
            <mxPoint x="1210" y="310" as="targetPoint" />
          </mxGeometry>
        </mxCell>
        <mxCell id="S56HPxfW4hmjYXF7Ifkf-102" value="&lt;font style=&quot;font-size: 18px;&quot;&gt;Consume&lt;/font&gt;" style="rounded=1;whiteSpace=wrap;html=1;fontStyle=1" parent="1" vertex="1">
          <mxGeometry x="1220" y="140" width="109" height="30" as="geometry" />
        </mxCell>
        <mxCell id="S56HPxfW4hmjYXF7Ifkf-104" value="" style="shape=image;verticalLabelPosition=bottom;labelBackgroundColor=default;verticalAlign=top;aspect=fixed;imageAspect=0;image=data:image/png,iVBORw0KGgoAAAANSUhEUgAAAgAAAAIACAYAAAD0eNT6AAAABHNCSVQICAgIfAhkiAAAAAlwSFlzAAAOxAAADsQBlSsOGwAAABl0RVh0U29mdHdhcmUAd3d3Lmlua3NjYXBlLm9yZ5vuPBoAACAASURBVHic7N15fFT1vT/+1/ucmSRkYUlm5oQkQJRkBo1QFW6torjhQlWst6VS3KqXtnbRLra2395udvtda61t7e2+uFfRusGta4sbilyoWxEyCQoKIbMkBLKQZOac9++PQC+lLEk+nzNnzuT9fDz6x/WReX/eCefO+30+53w+H0AIIYQQQgghhBBCCCGEEEIIIYQQQgghhBBCCCGEEEIIIYQQQgghhBD5grxOQEV1dUPYcXAcMcUYNIMYURAsAGUAJoFQBgBg9ALYAaAXjAQTmgnczMTNhoFX2ttbUx7+GkIIIUTO+aoBqKurG5fpL5kPojMAOgPATKj/DgzgdYBXgvGXceWZpzdv3tyvnq0QQgiRv3zRAEwOzZjtEF8O8CUAqlwebicxHmUTdyQS8b9gqEEQQgghCkreNgANDQ3Fu7roo0T0JQDTPUqjFYybKiY6t7e2tg54lIMQQgihXd41AEPT/KVXg3AdgFqv89ljG0A3BYt7f71169bdXicjhBBCqMqrBsAKNZ4Pop8COMLrXA7iLQKuaU/F/+x1IkIIIYSKvGgAaiqnT7EN86cgfMDrXIbpoYDtXLuts3Wr14kIIYQQo+F5A2CFYgth8B/AqPQ6lxHaSaCl7anmB7xORAghhBgpzxqAJjQVpcODNwL0WS/zUMREuKU9WfEVYF3G62SEEELkVmVlw/gi0ziZgXlgzAFhGoZWq00AIQtGLwEpgN9mYANAq2HYKxOJTUmvc/ek8E6dMHPSYNHAowyc7MX4ujHw3GBm8MKurs1dXucihBDCXfX19SX9vUUXM/BxACcAMEcYgsFYQ4Q7AwPBP27dtb7ThTQPK+cNQCgUqzHJeQKgY3I9tstet5kWpNPNbV4nIoQQQr+68U2VmeLM9QD+A0BIU9geIvw665g/TKc3bNcUc1hy2gCEw9MbDJhPAajP5bg5tNmBfVYqtanV60SEEEJoQ5FI9DJi3AQg4tIYPcz4VjJd8dNcPVLOWQMwdOfPq1C4xX+vt2025+a6kxNCCKFfVVW0NmDgTgCn52jIdUzOxclk6ya3BzLcHgAYeuZvEj+Owi/+AHCESfbjEyfWT/Q6ESGEEKM3OTRjdsDAGuSu+APAbGJjnRVquMDtgVxvAJrQVDRYNPAohg7uGStmFQeLHwZmB71ORAghxMhFItGLHHKeBVDjwfATQMaDVjh2lZuDjPTNxREzwhN/CNCH3R4nD9VXlGbG9fR1POV1IkIIIYYvEplxDjE/BKDEwzQMAAvLy0Lv9vZ1vOLGAK6+A2BZsQvh8ENujxOcUImKY45FWcPRKKmdiuLIZAQrJsIoGfq3c/r7kenuwkByO/q3bUFvy5vY9fdXkd21w820AIDBvDCRblnh9kBCCCHUhcONxxqg5wBUeJ3LHlkwX+RGHXGtMNdUTp9im+ZrACa5Ed8sr0DV3Pmomnc2yhpmjDwAM3o3bUT6uSfRueovsHu69Sc5pCPr4D0dHfFtbg0ghBBCXTjcVG0gsw7eTPsfyk4YOD6RiL+lM6hrDYAVij7kxt7+RZOqYF2wGOH558Mo1jM7Y/fvRurpFUisuBeZHfr3Y2DwA8lUyyLtgYUQQmhjhaPLAOTrd/XaRKrmROCZrK6ArjQA4XDsXAP8mM6YZJoIn/0B1F58FcxxpTpD/4Mz2I/2R+/F9ofuBme1/Y0BAAScJ6cICiFEfqoONZ7HRPn9uJbxhUQ6fouucNobgLq6unGZgdL10Hikb8nkWhz52W+i9IhGXSEPqe+tODb9+AYMJHRu6sct48oyszZv3tyvMagQQghFljWrDE5/M4Bar3M5jG4HwWgqtb5dRzDtqwDGFVVfA8JiXfEmzpmLxq/eiOJwta6QhxWcVIXQqeeif+tm9G9/V1NUqrIzZqKnr2ONpoBCCCE0qCid8HFAX91yUTGYuVfT6jKtMwANDQ3F3TuNTdDURYXOPA/Tln4eZLi+WvGA2Lax5Tc3I71S29OMd0OpYMN6rB/UFVAIIYQSwwo3bgQoN1PM6nqKB4unvrPzDeVlbFora8CoWkpES3TECp15Huo/dh3IyMlmhQdEhoGJs0/CYEcSfZu1bO8/oa/Ueae3r+NvOoIJIYRQY4ViF4Dwaa/zGIGibMDZ0tvbsVY1UEBHNnsQEX1JR6CJc+Zi2tLPA+TJacX/jAjTPnYdMru6sHPdSxri8fUAfgeA1YMJIcTYYVlHHQMnuxRM80GoB1CmHlXfV/GMasKSEwI4JUaYMmno5vXdHQ6eb2bc83IWG9v1jEXMlwP4hXIcDbkAACaHG+c5oGdV45RMrsVR/9+vYI7T8O+qkd3Xize//HEMJNVfDHSAU1Kp+Asa0hJCiILXhKaiVDhzCwFXI0dn2IxEMADcsDCIy040YBoHLqu2w7jjRQffWp5BRn2RGZPpWO3trSmVINr+kA7octUYFDBx5Ge/mXfFHwDM0jJM/9w3QKb6UxODoPy3EkKIsSAcbipPh7NPEvAp5Gnxv3tpET461zxo8QcA0yBcebKJu5cWIag+906wTeUDirT8Mevq6sZBw+YJkQWLcrbUbzRKp8cQOfci9UCMRfX19V7uMS2EEHkvHG4qN5F5DOBTvc7lYG5YGMTJjcMvpSc3GvjmBeodABO/TzWGlgYg018yH8B4lRhFk6pQu+gKHem4qmbRlQhOrFQNM7G/t+gMHfkIIUQh2lv8GTjZ61wOZkY14bITR15GrzjJRMxSLL+MmFoAXdMpRMrFzLpgsbatfd1kjitF9fkadooknKkeRAghCo8fij8ALDkhcMhp/4MxDcJHTlB9nMzK0+WanqeoNQBmeQXC88/Xk0oOhM66EGZ5uVoQhvLzGyGEKDR+Kf4AMC86+vfo58VUyy8pH7Sn3ABUVzeEAcxUiVE1d74v7v73MkvGoepEtUkPBt5TWzujSlNKQgjhe34q/gBQM2n0JbRukvIiPOXjipUbAMfBcVBcTlh16tmqaeRc1annqIYwslnnOB25CCGE3/mt+BcC5QaAmJReRAhOqETZkcrvMuRcWcNRCIyfqBSDHPWXOIQQwu/8Wvzbdjij/uzWHcqbAnWrBlBuABhqDUDFMcfmx45/I0WEiqZjlUIwpAEQQoxtfi3+APBsfPRF/Lnm0TcPQ1j5LAANMwBqRays4WjVFDxT3tikGEGteRJCCD/zc/EHgHtW27CdkTcBtsO4Z42tODq1KAbQsAqAWOmc3pKaKcopeEU9d7W/nRBC+JXfiz8ANCcc3P7iyAv5batsxNsVZwAIzWoBtCwDJKX1cCWT69RT8EhxtXLuym9xCiGE3xRC8d/rhuVZPN8y/GL+fIuDby9XPwyAmJRPp9OxD4BSETPLFNfTeyiguheANABCiDGmkIo/AGSywKW/HcTvX8ge8nFA1gZ++5yNS38ziIzq7D/gGEFeqRpEx5EEFSqnKZolpcopeMUcp5y7NABCiDGj0Ir/Xpks8LWHsrjjJQdL3mtiXszAlD3r/N/dwXi22cYf1zjq0/7/Z3VbWzytGkS9ARAqtF0NQgiRzyxrVhmc3csZ5EbxX2UzLUinm0e8NM4KxRaC+BEdScTbHXzrUfe/1pn4Th1x1B8BsNpaRLu/TzkFr9i7lXPfqSMPIYTIZ+FwUzk5/Y8DdJru2AS84CB47miKPwAk0s0rCIjrzstF3SUDJffpCKTjHQClBiDbo7yXgWeyPT2qIbp05CGEEPnKzWl/Al6wEVyQSq1X+TJ2QPiJtqRcxsy/eGfnG8p7AABaGgBWqoID7dvUU/DIQPtW1RDSAAghCpYPij8AgKnkdgDvakjLbbvIdG7WFUzDIwBqV/l4f5sf/uYHpiH3Th15CCFEvvFL8QeAROL1XrDzaR2x3EXfSCQ2JXVFU98KWHEzgt6W9aopeKYn/nelzxPTm5pSEUKIvOGn4r9XIt26HMAynTG1IqxJpCb/t86Q6lsBg5UagF1/fxVg5UMRco7ZQff6V5ViOAZe05SOEELkBT8W/72YMtcCyMfn0l0gWgw8o76D0D40zACoNQDZXTvQu2mjaho519uyAdlutZf4iUgaACFEwfBz8QeAZPLtBBPOA7DLrTFGIUvAJYlE89u6Ays3AIGA8TdAZSsgIP3ck6pp5Fzns0+ohhhIJMr81/kIIcQB+L3475VMxl9jchYByLg91jAwAUvbU/E/uxFcuQHYsxvR6yoxOlf9Bc5Av2oqOWPv7kPHatVdGGk1sC4fLjAhhFBSKMV/r2Sy9UkYtAhAb67GPIAsAVe2p+K3uzWAjn0AAMJfVT5u93Qj+dRyLankQuqpR2Er7gHAzI9qSkcIITxTaMV/r0Si+RGTnXnw5p2ALgIudLP4A7oaAIeVGgAASKy4F3b/bh3ZuMre3Yv25eovijLZ0gAIIXytUIv/Xm3p1r9lHZygepM7IoQ1MOh4t6b996WlARhXnnkaipvaZHZ0Yvv9rjY7WrQt+wOyuxQ3YWKsT6U2terJSAghcs+yZpUZGFzu0sE+q7JM7/ey+O/V0RHflkjGzwQ7CxlQ3v3tEHoJ9JVEsmauGy/8HYiWBmDz5s39AB5QjZN4/AH0vZW/WzL3tm5E8omHleOQof63EkIIr+Tz3v5uSaRblw9mBmcC9D0A2jbjAdDNzD+AYR/Znmq+UfdSv0MhXYHC4egpBvCcapxiqwZH/9evYZaW6UhLm2xvDzZ85eMYSG5XDZWxmerT6eY2HXkJIUQuFfq0/3A0NDQU79plLjKYP8HA+zDyk3UZwEtMfGfJQMl9uvb2HyltDQAAssLROIAG1UATZ5+E6dd9G2SaGtJSx7aN1pv+EztfeVlHuPsSqfhiHYGEECKXpPj/q1AoVkGEuQZ4HoA5DEwlIAKgAgQHjG4G0gDeMggbwLTaCPLKPSvoPKWzAYAVin4chF/piBU6fQHqP/ElgLSmOHLMePsXN6JDfd0/AMABTkml4i9oCSaEEDkixb/w6FkFsEfFROd2XS9JpFc+hs2/ugls2zrCjQrbttbiD6DftB05AEgI4StS/AuT1jn2zs5Ou7ws5AA4V0e8vs2t6NvcgonHvQ9GsEhHyGHL9vbgrVu+hR2rn9UZNgCDrigvrdzS29f5hs7AQgjhBin+hUv7Q/ZJleNed+zgYgCVOuINbN+KHS89g4rYMQhWhnSEPKze1o1o+d4X3TqjoAhEH6worbSqayqf7uzs9G6KQwghDkGKf2Fz5QF7JDLjHGLncZ0xyTQRPvsDqL34Spjj3Fkh4Az0o+1PdyCxYllOHj0w6G9k8KJEIv6W64MJIcQIWNasMji7V7ix1A/AKptpQb4t9RtrXHvDzgpHHwRwke64wQmVsBZ+GOH5C2GWjNMS097dh9RTj6J9+TL1TX5GbgfYuWLPWdRCCOE5ufMfG1xrAGoqp0+xA+arYD2PAvZnlpej8qQzEZp3Nsoajhr5agFm9LS8ic5nn0DH6pXKe/srYgA/SKRqvpbLTSCEEGJ/UvzHDlfX2Fmh2EIQP+z2OIHxE1HRdCzKG5swrnYKiiM1MMdPgFlSCgCw+/tg79qJgWQb+ra+g96W9ehe/yqy3TvdTGvEGHjOYXNxOr1BebchIYQYKSn+Y4vri+yrI9GbmfEFt8cpICkmviSZbHnK60SEEGOHPPMfe1zfaq+nt35lWdngqQRMc3usAlFGoCXlZZV2b1+nbBgkhHBdONxUbvDg4wDN0x17z97+C9LpDXLnn2dyss1eZWXD+KBpPAvg2FyMVzAYf4FpL0kkNuk8eEIIIf5B7vzHrpztsxsKxWpM4hcAHJGrMQvEu0zOxclk60teJyKEKCxS/Mc2rVsBH0o63dzmwD4bQE7OOS4gUwjGM1a48RqvExFCFI6xeKSv+Gc5P2knHG6qNpB5DPI4YOQYDw/a2Y/u2PFWfi1fEEL4itz5CyCHMwB7pVLr2wcyg6cDpHWTfQ8xM/+AwFcC1OfqSIQPBAOBly1rxkxXxxFCFCy58xd7ub4K4ED6+7v6e/tm3lVR3s0A5sGDmQhNegh0WSId/0lPX+erE8ZVPcjA6SBE3BqQgBCYrywvrUr09nX8za1xhBCFx7JmlREPrHDjbX8M3fm/X9729w/PC68VajwfRLcBqPI6lxFaR7ZzeXtn65v7/sdQKFZhEv8GwMU5yOG348oGr9m8eXN/DsYSQviYbPIj9ud5AwAAVVXRWtPgHxPoQ17ncliEQTB/J5Gq/a9DbdtbHY5+hgk3g+H2OcavOrAXpVKbWl0eRwjhU1L8xYHkRQOw19ApgvatADV6ncuBEPA4TOeL7e2t64fz89VV0fcyYRnI9U2QdjLhymQy/pDL4wghfEaKvziYvGoAAKChoaG4Z6fxMQauBzDF63wAgIBX2MD1iUT86ZF+trZ2RlV20LkDwPtdSG1fTIRb2pMVXwHWZVweSwjhA1L8xaHkXQOwVxOaitKhzOUgvt6jGQEG6Ckm+lEyufHJof971MgKR/8fgG/D/RcvVwVsZ/G2ztatLo8jhMhjUvzF4eRtA7APCoejcw3C5WAsAjDR1dEYWwh0PwL2bcOd6h+u6lDsdCb+IwBLZ9wDkAOFhBjDpPiL4fBDA/AP9fX1Jf29RWeAcCYzzgAwC6p7GRAGwVgL4Dkm59FksnU11O72DykUOmqyQfa9NLT80U0OM76dTMe/A8BxeSwhRJ6Q4i+Gy1cNwP5qa2dUZbPOceQgxsAMgKIAWwAqQJgIoBwMAtADoAvgXoC2ANxCRC1wjDeNol1r2tra3N3A51+cFrDCbd/F0HsOLv8b0JNk2pe2t7em3B1HCOE1Kf5iJHzdAPidFWq4AGTcDmCSm+MwsBVkXJxMbnzRzXGEEN6R4u+NysqG8UWmcTID88CYs2fVVxWACSBkweglIAXw2wxsAGg1DHtlPpzyKg2AxywrdgQcXgZgjstDZcD4ciId/zFcfMQhhMg9Kf65tedx9MUMfBzACRj5y90Mxhoi3BkYCP5x6671nS6keVjSAOSBhoaG4p4uuoWJPun2WAQ8OJDNXiUHCglRGKT4507d+KbKTHHmegD/ASCkKWwPEX6ddcwfptMbtmuKOSzSAOQRK9S4BES/AlDu6kCMLcRY1N4R/19XxxFCuEpO9cud6nBsEYN/Brh11gv1EfFNVcng99dj/aA7Y+w3Yi4GEcM3uarxKMekB8A42uWhdgN0TSLV/DuXxxFCuEDu/HOjqipaGzBwJ4DTczTkOibn4mSydZPbA3lyGqA4uJ7dneny8trbgcw0gGa5OFQQwMKysqojJkwsfrK7u1t2DxTCJ6T458bk0IzZZPBfMbTkPFdqCHRFeemk9b19nXE3B5IZgDwWiTReTUw/BlDs8lBv2Gx8KJ3e6OrFJoRQJ8U/NyKR6EXEuBNAmUcpZAH6RCLV/Hu3BpAGIM9NDs2Y7ZBzP4AjXB6qm0BL21PNy1weRwgxSlL8c2PoYDpnBYCAx6kwQEvdagKkAfCBqRNmThoo7r8NTAvdH41+GkoFvpSrl1CEiESOsMgJng7i99HQhl5HMBAG7bnzyuN11LkkxT83wuHGYw3QcwAqvM5ljyyYL0qkW1boDiwNgH9QdST2JWb+HtzuShkvm3b2w2073nrH1XHEmFU3vqkyW5xZwoTLwHjvKELkxTrqXJHinxvhcFO1gcw6ADVe57KfnTBwfCIRf0tnUGkAfCYcjp5iAPfC/Qu0g4DL2lPxx1weR4whoVCsxjT4i2B8HPqerXq2jjoXpPjnjhWOLgOwyOs8DmJtIlVzIvBMVldAWQXgM319He9UjJ90J9h4D4DpLg5VCmBJeVmosrdv5tPAZjlQSCg4LWCFi68xiB8EcCqAIo3BiwCcaBA+WVFeVTStt/rFFFK2xviesaxZZcQDKwBy4/CwVTbT+9PpDVL8AVSHGs8D0fe8zuMQaspLu7t6+zpW6wooMwD+ZVrh2LcA/ipUT0Q8HMJfGZklyeTbCVfHEQUpHD6q0YR9HwPH5WjInK2jdpPc+efO0IZK/c0Aar3O5TC6HQSjqdT6dh3B3C0cwk12ItX8dQLOB9Dh6kiMM4iDfwuHo6e4Oo4oOJYVu9CAvTaHxR8AZhMb66xQwwU5HFMrKf65RU7/R5H/xR8AKoizX9AVTBoAn2tPxR8zs9njwXjZ5aFqDOCv1ZFYDo4wFoXACkWXwuE/ARjvwfATQMaDVjh2lQdjK5Hin3MGgz/rdRLDRcSfnDphppYTZOUdgALQ3b9jZ31f9R19ZTwBQydTucUAcFZ5eeVxVYHaJ3YOJPtdHEv4mBWKLgXh1/D2JsMAsLC8LPRub1/HKx7mMWxS/HPPCsUuAOHTXucxAkXZgLOlt7djrWoguZMrMNXh2IcZ/Fu4v4b1bYONRdvTG9e5PI7wGcuKXbjnzj9fbjBcW0etkxR/wLKOOgZOdimY5oNQD+924RuVGdWEJScEcEqMMGXSUO/77g4Hzzcz7nk5i43t2k5iX51IxU9UDSINQAEKhWZETXIeADDT5aEGmPhzyWTLL10eR/hEOHxUowF7LbyZ9j8UV9ZR6zLWi38TmopS4cwtBFwNHz6aDgaAGxYGcdmJBkzjwGXVdhh3vOjgW8szyKgv5GMyHau9vTWlEiRfOnShUV9fumPCxOLbHaeojoBjXRwqQKDzy8srG8vL657o7U3IgUJj2uzg+LL+JwDUe53JAZSAMbe3b+Yf8m1J61gv/uFwU/nusuxjNLT+3nc3pcEAcPfSIiw81oRBB0/fIMJxUw38W72Bh1+14ahdhURsrO3p61ivEkQagALV3d2d6e3reLi8LLQVwFkYOv3PJTQLyH5gfEnlyp7dnWn3xhH5rDpSfh2DLvc6j0PQvo5alRT/od8fgBv7HOTEdz8QxMJjh19Kp1YRJowD/rpRsQ8lbO3t7XhCJYTvplrEyCRSzb9zwCcBaHV1IMbRjkFrrFDjElfHEXkpFIrVMNM3vc7jsAg3hMNN1V6nAUjxd/P3z5UZ1YTLThx5Gb3iJBMxS7H8MmJqAaQBGBNSqZZXB7PZOQQ86PJQ5SC6uzrU+POGhga3jzAWecQ0+IvwxwtbWtdRj5YUf/8XfwBYckLgoM/8D8U0CB85QXUCnhsVA0gDMFbs2PHWzvZU/ENgfAGAq8/qmeiT3TuNFywr5vYRxiIP1I1vqtyzt78v6FxHPRpS/Auj+APAvOjoX1mYF1Mtv6R8DUsDMLZwIh2/hRzMBbDZ5bHmwOFXI5HGD7o8jvBYtjizBP64+9+rvL94cLEXA1vWrDIDg8tdKn6rskzvz+fi7/Lvn3O1k0ZfQusmKb/vqLzU291jZV1WXd0QdhwcR0wxBs0gRhQEC0NfRpNAKAPDANANoAdAL4G3OKBNYLzFROszmYHVXV2buzz9RXKsvSP+v9XVDe9l27wL4LNdHGo8Md1vhaM/SKRqvqbzFKvhsKxZZcgOnEAGH81AlIBGBqaBUQrCeADlGHrrWK4PBQxoe/EvFghicVkFTi4uRp059N7qVjuDFwYGcG9vN5qzeiaviPlyAL/QEmyYwuGmcnL6H2OQa3f+6XT+Fn83f3+vaFvV7xFfLbmoq6sbl+kvmQ+iMwA6A0Pr3FV/BweMDTDoBWJ+pCoV/Mt6rB/UkK4fGJFQ9OtE+AZcng1i4DmHzcUuH9dqhMPRk4hpIYHngTAb6k2uA8JGgJ4fg9fHYUUiR1jEwe1Q/P/DIBG+MX4SLikth3mQpVQ2M+7q68F3du1AhpW/erWsox4umfYvnGn/fT3zpSJEq0f31bmxnXHGTQMqw6cTqXhYJYAfGgCaHG48xRlaXrQI7m8wshPEK8gxfteebl7p8lh5IRJpPIuY7gagdDENQ4KYPqL77xqJxGYZ4CuYsQjAFJ2xD2Df6+MZ+P8mQIkVii4G4Y8qMYJEuL0qgrlFJcP6+VWD/biiI6ncBBDo4vZU8zKlIMMgxb8wiz8A3HBhEB+bN7qX+X79rI1vPaoyo8UtiVRLVCFA/r4D0NDQUBwJNX7CCkdbHNCzAP4DudldbAKYLmHiv1qR6PrqcPTTNTU1pTkY1zPJZMtTAds5HsAql4eymPgpKxz9KtSbT8MKNZ5vhaJPE/NrPPRyo9vFH9j3+ghH11eHo58p9OvjkIjfpxriG+MnDbv4A8DcohJ8bbz6O3ysIffDkeJfuMUfAO5ZbcN2Rt6I2g7jnjW24ujUohgg/xqAurq6cVYo+vnuncYmIvolgOmeJcM4moGf2Zny1upw9NNNaCryLBeXbets3ZpIVZxOhB/B3btaE8D3rHB0RW3tjKrRBKgORxdYoejrIFoOwpma8xuJoxi4dc/18ZlCvj4OhkBKa5FjgSAuKS0f8ecuKy1HNKD459awjvpQpPgXdvEHgOaEg9tfHHkhv22VjXi78kZAzWoB8qwBqA41npcZKF2PoSKUT2czT2bgZ+lwptkKxRZ6nYx71mXak/HrmPBBADtdHuz92QFnXXVV9L3D/UAkEptlhaJPMfBnEJrcTG6EJjNwazqcabas2IVeJ5NLDCitRV5cVnHQZ/6HYhLh4lLVhQfq66gPRop/4Rf/vW5YnsXzLcMv5s+3OPj2cvX3oYnpJdUYedEA1FROn2KFog8x0QoA+bx2vB7Ej1SHYw+EQrEar5NxSzIZf8iBPQfAq64ORJjGJp6vDkc/c+gfnB2sjkRvIOa1IMx3NSc19XD44epw9E+FfH3sZ6LKh08ZwdT/v3y2ZJzK0NCxjvpApPiPneIPAJkscOlvB/H7F7KHfByQtYHfPmfj0t8MIqM6+w84RpCV36Xy/CXAPUeH/gGAZxtzjFIXE65MJuMPe52IW+rr60t29xbdCmBpDoa7z2b6WDrd3L3vf4xEYrOI+Q4A78lBDjp1MeGqZDL+kNeJuMmKRAfAGPVc/PrJU1BOo7sP6WEHTdvfHe3QADCQSMVH34EcgBT/sVX89xetNrDkvSbmxQxM2bPO/90dHG+MdwAAIABJREFUjGebbfxxjaM+7f9/Xkyk4nNVg3jYAJwWsMJt3wVwvbd5KCL8OpQMXlPIS8MikdilxPxLuLzZCwFxh2hRMtn8OgBY4ejFAP0eYP++ZFfg14cVjiq9L7KlZprS+NPatih9PpGKa/vusaxZZXB2rwDoNF0x97HKZlqwf4OcT/z6+1uh2EIQP6I7rpuY+JM6jmH3pPBOnTBz0mDRwKOF0yXSswOZgQ8U8oYxljVjJjvO/QR3X5wCqI/gfNph42gi/pK7Y+UGA88NZgYvLMTrQxqAIXLn7+vf36gORzcwoLSkLoe6iweLp72z840dqoFy/g5AKHTU5IGigZWFU/wBgE8tDhS9UFM5PRfL0DyRSGx8gxGcA+Bed0fiUgb9oVCKPwAQMK+4qGhVIV8fY5ls7+v7398B4Scuxtft5zqKP5DjBiAcnt5gkv0i/Pc89/AITXYgUNAH4KRS63sSqfhHAL4WhIKc0nYN4+ih6yN6pNepCH32bG/7uBvT3gS84CB4bj5P+xfK789UcjsApRdKcmQXDPtHuoLlrAEIhWI1BsynANTnasycY54Kh58u9DfAE6mWWw3HOAnA217n4ivMU8G0smbSkVO9TkWoK4A7XyWF9PsnEq/3EnB1LsZSQ99IJDYldUXLSQMwdcLMSSbx4yjk4v9/jjTBT452kxu/2J7euC5QZPwbgD97nYuvME+1g4HHCv36KHSFcuc7WoX4+7en4n8G4PrW0KNGWJNITf5vnSFdbwCa0FQ0WDTwKIYO7hkbCE3ZjLMMOM3Xpy0ezrZtGzsSqfj5AH8NgPrK1rGCcfRYuD4Klc9feFNWyL8/U+ZaANu8GPswukC0WPeJqq43AOnw4I2F9cLfMDHOqI60/ZfXaeQAJ1It3yOmswAkvE7GN4aujxu9TkOMTCEXv+Eo9N8/mXw7wYTzAOzyKocDyBJwSSLRrP2Rq6vLAPds8vOQ2+MEJ1Si4phjUdZwNEpqp6I4MhnBiokwSob2+HD6+5Hp7sJAcjv6t21Bb8ub2PX3V5HdpeVFykMi0KL2VPMDrg+UB0KhoyYbZN9LwDyvc9lXuIJwUoOB2VMNNFiEKZWEUBmhdM/2NX2DQLqX8W4noyXBWLfFwYutDtI97h/05/frw+/LAPNFPhS/wyn04r+vSKThbGJjBYCgx6kwAVe2p+K3uxHctcJcUzl9im2ar8GlHf7M8gpUzZ2Pqnlno6xhxsgDMKN300akn3sSnav+ArvHtcdNaabMMcnk22Pk7jg/NniaWApcdLyJD802cdzUkU90MQOvvOvggbU2Hn7FRlefC0kO8fX1IQ2Aunwrfgcylor/XntuYO+GyxugHUKWgKVuFX/AxS9oKxR9CIQP6I5bNKkK1gWLEZ5/PoxiPbt42v27kXp6BRIr7kVmR6eWmPsi4MH2VPyD2gPnMSvUcAHIuB053uK5egLh6lMDuPRE8x93+Kp6B4C7Vmfxy2dsJHbpnxXw8/UhDYCafC1++xqLxX+vmlDD8TYZjyL3h9N1EXDJnhcTXeNKA1Adajxvz8E+2lDARGTBItQuukJb4d+f3b8b2x+4DYnH/gTO6n2njQkXFfK5AQdiWbEj4PD9AGa7PVbQBJaeEsB15wS0Ff799Q4ANz+Zxe+ez+o4zOOfMOHf/XhugDQAo5fvxQ8Y28V/r6qqaG3AxB1gnJGTAQlrQLTYjWf+/zqUZnV1deMyA6XrofFUv5LJtTjys99E6RGund75T/reimPTj2/AQKJNW0wC4u2pimOAdRltQX2goaGhuKeLbmGiT7o1xpFhwi8uC2JmbW62tXh9K+PqOwaxuUPfbIBfrw9pAEbHD8VPiv8/i4RilxDxzQAsl4bYBdA3hpb66X3b/2BM3QHHFVVfA8JiXfEmzpmLxq/eiOJwta6QhxWcVIXQqeeif+tm9KudNravqoqywURPX8f/6groB52dnXZPX+f/lJdWtoDoHGD0J8cdyDlNBu7+WBGmVOZuU0trPGHRHBPNCeCtlLYmwJfXR3lZ1bdUPv/5CqXThPHj7p1Kn/eCH4qfFP9/1dvX8UawqOK3ATNgA5gBfe8GdDPzT8h0PpJItvwV2KztyMDD0ToD0NDQUNy909gETc9LQmeeh2lLPw8ytPcpw8K2jS2/uRnplY/pCpkYVzZYv3nz5n5dAf2kurLhaDaNdQC0PMNZ8j4TN34wANPw5l3DrA1c/0AG967R9jzAd9eHzACMjB+KnxT/w2toaCjetctcZDB/goH3ARjpnh4M4CUmvrNkoOQ+XXv7j5TWjUh2ddFHifQV//qPXQeQdycFk2mi/hNDZ9JoagKs3T1FlwL4rY5gfmObRpWhsfjf9KGgl5cHAiZw84eHVglpagLG9PVR6PxQ/KT4D09ra+sAgLsA3BUKxSqIMNcAzwMwh4GpBEQAVIDggNHNQBrAWwZhA5hWG0Fe2dYWT3v6S0BvA0BEpOUEt4lz5mLa0s97Wvz/gQjTPnYdMru6sHPdSzoifg7A7zDUAY4pBL5Wx6TTOU0GbvxgIF8uD/zgQ0Gke4Cn39TSBIzZ66OQ+aH4SfEfnT1bFj++53++ou3B6eRw4ykApqvGKZlciyM+8/88m/Y/EDJNHPmZ/0RxRMMZP4Qmy4rm5m3SPFJTOX0KgZSXhR4ZJvx0SdCzaf8DCZjAz5YEMK1KQ05j9PooZH4oflL8xyZtDYADulw1BgVMHPnZb8Ic59W+CwdnlpZh+ue+ATI1NCYOL1EP4i+2aX4KijNOQRP4xWVBVJTkT/Hfa/w4wi8vK0JAR986Bq+PQuWH4ifFf+zS0gDU1dWNA7BINU5kwaKcLfUbjdLpMUTOvUhDJLqoCU0urVbPSyaAq1SDLD0lkLOlfqPxnimEq07W0QGMueujIPmh+EnxH9u0fJtm+kvmAxivEqNoUhVqF12hIx1X1Sy6EsGJlaphJqVDg2fryMcPqkMzTsHQSzGjjzGBcN05+X943hfPCSJSoRxmTF0fhcgPxU+Kv9BzO0Wk/MzSumCxazv86WSOK0X1+cqTHQAZZ6kH8QcmVp42ufpU93b406m8GPiEjlN+CfPVgwhv8DP5Xvyk+AtA2zsAag2AWV6B8Pzz9aSSA6GzLoRZXq4YhU/TkYs/OErXx8RS4NIT8+el0MO5/MQAJpSqRqHTNKQicssGcGsoVXROPhc/Kf5iL+UGoLq6IQxgpkqMqrnzfXH3v5dZMg5VJypPehxTWzujSkc++Wzod6QmlRgXHa/vYJ9cKCsGPnCscsMycyxcHwWgF+C/A/xjsp1ZiVT82vVYP+h1UgcjxV/sS3mu0nFwHCku7q461X+PO6tOPQfJpx5VCWFkB520FY7qSikvZQfVd7VcNNs/d/97fWiOidtfVNoXYExcH15LpOL5t6TEJVL8xf6UZwCIaYbK5wPjJ6HsyJhqGjlX1nAUghOUXwYUhxEqJ7xnSv6++X8wx081EK4YM7VF5DnLmlVmYHC5G8UfwKos0/ul+PuP8jcrg5Sq9/iZx+fHjn8jRYTyo2d5nUXBOzlq+PXywPum+69xEYXHsmaVwdm9wqX3SlbZTAv27IYnfEbDDACU5ijLGo5STcEz5Y1Kj7bFMBzvw7v/vWZP9W/uojCEw03l5PQ/7kbxJ+AFB8Fzpfj7l/o3FLHSOb0ltVOVU/BKSc0Ur1MoeA2WD2//92iI+Dd34X8y7S8OR8MtCimthyup1nJ4oCeKq+u8TqHg1Yf8W0T9nLvwN7nzF8OhYQZAbQfAQJn6tmleCSjvBSAOZ+I4/xbRicp7AQgxcnLnL4ZLx0NKpSpolIzTkII3zHHyDe+2Mh+t/99feR4eWiQKm7zwJ0ZC3lISQogCIMVfjJSOBkBpKsjp360hBW/Yu/u8TqHg9ebtnmqH19PPXqcgxggp/mI01BsAxi6Vj2d6lD7uqWyPPAZz244+/xbRLukPRQ7IC39itDTMALBSFRxItKmn4JGB9q1ep1DwtnT4twHYnPZv7sIf5IU/oULDDAC1q3y8f9s7yil4pb/tXa9TKHitCf8W0dakf3MX+U/u/IUq9a2ACc0qn+9tfVM1Bc/0xP/udQoFb9076ocJeWXtFqXDgIQ4KLnzFzqobwUMVmoAdr3xCsA+vFNiRvebr3mdRcFb1eL49fLAS60+TFzkPXnhT+iiYQZArQHI7tqB3k0bVdPIuZ6WN5Hd1eV1GgUv3cN45V3/zQKs3cLo6JUGQOgl0/5Cp4BygIDxNzsDBjDqXU/Szz3pu0OBOp99QjWEEygyItu2bezQkU++qq2dUZUddJJQaDYfWGvjeJ8drPOntVnVEL64PqxwVLqcHAmHm8pNZB5zY9qfgBdsBBfItP/IVVY2jC8yjZMZmAfGHBCmAagCMAGELBi9BKQAfpuBDQCthmGvTCQ2Jb3OXctWZVY4+iqA94z282Z5Bd7z82Uwikt0pOM6e3cfXv/MxbDVlgG+nkjFR/038xMrHH0dwMzRfn5iKbD26yUo9cmugD0DwL99tx871ZYBvpZIxY/VlJJrVBuALTXTlMaf1rZF6fOJVNwX2zVK8c8v9fX1Jf29RRcz8HEAJwAwRxiCwVhDhDsDA8E/bt21vtOFNA9Lz20V4a8qH7d7upF8armWVHIh9dSjqsUfIPxFTzZ+wErXR1cfcOdLynfUOXPHi7Zq8QfAz2hIRRQAKf75o258U6UVjv7X7t6idxm4DcBJGHnxBwAC4QQGfpYpzmypjkRvDoWOmqw328PT0wA4al/wAJBYcS9sH+wKaO/uRfvyZcpxHMZDGtLxBWJW/l1/+YyN3gEd2biru5/xy2fUmxViPKUhHeFzUvzzBkUi0cszxZkNAL4MIKQxdjkzvmCSHY+EotcBs4MaYx+SlgYgWLL7LwB2qsTI7OjE9gdu05GOq9qW/QHZXTtUw2xPpeKrdOTjB+3p1hcAJFRiJHYxbn4y/2cBbnoii3SP4mNxQmdVukgagDFOin9+qKqK1lrh6F+IcTuAiItDlRPhh1a4+6VIpGG6i+P8g5YGYOvWrbsB3K8aJ/HYn9D3VlxDRu7obd2I5BMPa4hEvwfgv1fbR88G8HvVIL97PovXt+bvO2evvOPgtlUa1v4zHlyP9T4+BUGokuKfHyaHZswOGFgD4PQcDjub2FhnhRoucHsgba9WO8AdqjE4a2PTj2+A3derIyWtsr09eOsn3wbbyl/wmazDv9CRk58EbOfnAJRu4TM2cPUdg9i1O/+agJ27GZ+8M4OshvpPTPeoRxF+JcU/P0Qi0Ysccp4FUOPB8BNAxoNWOHaVm4NoawBSqfgLAFpV4wwk2vD2z76vo9Bqw7aNt2/9LgaS23WEe6ijI75NRyA/2dbZuhXAg6pxNncwrvljVkuh1SVrA5++O4N3OrU0Jm+0p5uf0RFI+I8U//wQicw4hxjLAJR5mEYA4N+62QQo7wOwDwbjJhB+pRqoa92L2PKbm1H/iS8B5PEqHWZs/tVN2PnKy1rCOcCtWgL5kAPcagAfVo3z1Hob1z8A3PzhYD5cHrhuWQZ/3aDniQ6BbwGQf1McBSr/9jHIuPKPL8V/+MLhxmOJnfuhtz6OFgH8KyvUmEykW1boDq51d5WKic7tDGg5Ii+98jFs/tVNns4EsG3j7V/ciA71TX/26jdNR/kNQr/a87v364h17xob1y3TM+U+Wlkb+Ny9Gdy/VlsS28snsEz/C62k+A9fONxUbYD+B0CF17nsIwCiuywreqTuwFobgNbW1gEC/VBXvPTKx9B689c9eScg29uD1pv+U2fxB4ASto2XI5HYpTqD+kEkEruUbeNlANp2e7p3jY2rbst48k7Azt2Mj/5hUGfxBxN/u7W11QeLHYVfSPEfGQOZn8KbZ/6HMwEO7gNO0zoroX1/1WBx768BbNIVb+e6l/Dmlz+Ovk1KRw6MSG/rRmz4yse1Tfvvp4yY77QisV/W19f7Y+tDBfX19SVWJPZLYr4TLjxPe/pNG+fcMojX3s1dE/DKOw7O+dGgtmn/PTYmk7W/1RlQjG1S/EfGsmIXAljkdR6HMMcKtV2jM6ArT1Crw9H3M/A/OmOSaSJy7kWoWXQlzHGlOkP/g727F23L/oDkEw/n5NEDg/5GBi9KJOJvuT6YBywreiQ7dD+Bj3d7rIAJXHWyiS+eE0R5sTtjdPczbnoii9tW2fofPTBdmEg3P6o5quv8vhVwoZLiPzJDJyz2NwOo9TqXw+h2EIymUuvbdQRz7RUqKxx9EMBFuuMGJ1TCWvhhhOcvhFkyTktMe3cfUk89ivbly3Rs8jNSXTDoo4lE8yO5HthNlhW7EA7fBmBiLscNVxCuPs3E5ScGUKapEegZGNre95fPaNjk58DuT6Tiyi9HekEagPwjxX/kqsPRTzPwM6/zGA5muimZbr5eRyzXGoCayulT7ID5KhiVbsQ3y8tRedKZCM07e+gkwZG+Ds6MnpY30fnsE+hYvVJ9b381zEw/TKYnfxXQsI+sp04LRELbv0/EX4SL19fhTCgFPnCsiQ/NMXH8VGM0lwfWbmH8aW0Wj7ymY2//g0qR6TS1t7emXBvBRdIA5Bcp/qNiWOHGjQA1ep3IMPUUDxZPfWfnG8p3q65+QVuh2EIQP+z2OIHxE1HRdCzKG5swrnYKiiM1MMdPgFky9KjA7u+DvWsnBpJt6Nv6Dnpb1qN7/avIdivtXqwdA887TIvT6eY2r3MZjVAoVmMQ30vAKV7nsq+qMsJJjQZmTzXQaBGmVhIqywnle04X7BkEOnsY73Qy4gkH67Y4eLGV0dnr+nsFzIQPJpNx354LIQ1A/pDiPzp76pSvZmCZ6FPJZLPyhnKu36FVR6I3M+MLbo9TQBIwcEkiEffVaYGWFT0TDu4GYHmdi18w8w+S6ZYve52HCmkA8kOhFH/LOuoYONmlYJoPQj283YhnxGZUE5acEMApMcKUSUPv2L+7w8HzzYx7Xs5iY7u2m4rViVT8RNUgOZiinR2MhLufJmCe+2MVDBvgbyVSLd9H/p8ZYFjhxq8C9C2M7ljMseqpRCq+AEPnJPiWNADeK4Ti34SmolQ4cwsBV8OF1WluCwaAGxYGcdmJBkzjwGXVdhh3vOjgW8szyKg/6GUyHUv10WEO/tDrMoOZwQsBvO7+WAXDBOg7kXB0RW3tjCqvkzmY2toZVZFwdAVA34EU/5F4IzgQXAyfF3/hvUIo/uFwU3k6nH2SgE/Bp8X/7qVF+Ohc86DFHwBMg3DlySbuXlqEoPpqfoJtKh9QlJM/dlfX5i6baQGAzbkYr1AQsCCb4b9ZVuMJXueyP8tqPCGb4b8RsMDrXHym1UHw7K271nd6nYjwt0Ip/iYyjwF8qte5jNYNC4M4uXH4pfTkRgPfvEC9A2Di96nGyFm3lU43tzmwzwLwdq7GLAjMU8H0nBVuvNbrVPaywo3Xguk5ME/1Ohef2WwEzPm61vCKsauQir8bBx/lyoxqwmUnjryMXnGSiZilWH4ZMbUAOZ5uSaU2tdpszoU8DhgZRhFAP7HC0WWhUMyzPapDoViFFY4uA+gnQzmJEXjNZvOk7ds3yENroYifkeKfH5acEDjktP/BmAbhIyeoPjVl5WWLOX/ekk5v2D6QGTwVoGdzPbZLmJl/QOArAXJvtfiQRQHitZY1Y6bL4/wLy5oxM0C8Fq5vlUl9BL6SmW5C4ZyKt3Iwmz01nd6g5TxpMWbZAG4NpYrOkeKfH+ZFR/8e/byYavmlSYoBvHnhoqtrc1ciVX4WMf0Q/v6S7yHQ4mS65cvtqZbbYBgnMODqoQUMROHw6upw9Ao3x9lXdTh6BRxezUDUzXEYaIZhnNCearltz05XHwGQ+5Og9GFi+mEiVXP2jh1v5demE8IvegH+O8A/JtuZlUjFr12P9YNeJzVahVT8AaBm0uhLaN0k5UV4yrPBHp+mDlihxvNBdBuAvH3b/SDWke1c3t7Z+ua+/zEUilWYxL8BcHEOcvhdsLjvmq1bt+52I3hdXd24zEDprQD+w434+7nPZvpYOt3cve9/tKyjjiHHvoOB43KQgz6ETjjORxPp1uVuDqO6DC+Riit9B/h9GaDq7y+Gr9CKPwDEv18y6rNHegaA6FeVTkcfSKTiSgfKeb7kIpFuWZF18B4GP+B1LsNCGAT464lUzfv2L/4AkE43dydS8cUAXzv0s676j8xA6Yvh8PQG3YHD4ekNmYHSF+F28R/6e16bSMUX71/8ASCR2PD39lTFCcz4JoCMq7nocx8jc7TbxV8IvyjE4g8AbTtGv03L1h3Kk9//8n05Up43AADQ0RHflky1LGIyzgW4xet8DoaAx8lwjk+kWr57uD37E6mWW8nGKWC4/dLXsQbMtZFI47/rChiJNP67AXMtgGN1xTwgxhaycUoi1XLroX9wXSaZjn8bhnk8gZ9wNSc1m4j5/EQqvjiZfDvhdTJC5INCLf4A8Gx89EX8uWbVPd5Y+SyAvGgA9komNz5RMYFnEnANgHe9zmcvAl6BgbPaU/EF7e2t64f7ufaO+JpAsTEbwJ9dTA8AJhDTA1Yk+iNgdnD0YWYHrUj0R8T0AIAJ2rI7sD8Hio3Z7R3xNcP9wNBsQMu5TM45AF5zMbcRYWArM1+dSFUc1Z5u0XoMthB+VsjFHwDuWW3DdkbeBNgO4541qvuAkfLNcl41AADQ2to60J6K/yyUCjaA8TEPZwQYoCeZjHPbU/HZiUT86dEE2bZtY0ciFT8f4K/B3Z3fCIzPW+HuZ2orG+pG+uHayoY6K9z9DBifh7vvhtgAfy2Rip+/bdvGjtEESCZbn0yk4sc5oAUAnoJ3L5K+wcxXl5YNNibTLb8C1vnlEYUQriv04g8AzQkHt7848q/121bZiLcrzgCQ+gvnfngBhsLh6FyDcDkYi+D2+fKMLQS6HwH7tpHc7Q9HdSh2OhP/Ee4fmJNici5NJlufHM4PRyINZxMbdwEIu5xXgpg+0p5uXqkzqGUddQzZzhVs4MM52JxoBzFWEPFvt6dannN5rMOSlwDlJcB8NBaK/17BAHDX0iKcMszdAJ9vcXDpbwaRUbwdJNCH21PN96vF8JH6+vqS/t6iM0A4kxlnAJgF1VkMwiAYawE8x+Q8mky2roaLd5Sh0FGTDbLvzcHhSA4RvtOejH8bBz9QyKiORL/BjK/D5dkgBp5z2Fzs8lp4ikRmnEjsLARoHsBzACg8EgEwNGuznoHnQfxIMjn+mXy605cGQBqAfDOWiv9ewQDwzQsCuOKkg58HkLWH7vy/syKjXPwBOGYQVltbPK0SxNcXf23tjKps1jmOHMQYmAFQFGALQAUIEwGUg0EAegB0AdwL0BaAW4ioBY7xplG0a01bW5vbG/js57RAJLTte0T0Jbj+b0BPkmlfuv+pUdXVDWG2zbsAPtvd8cHMfFMyXfufh3txUreamppSZ7DiBBAfzeAGgKJgTAOhFNhzfQzpAWMXCH0MbCZgExhvscF/z2b55c7O1l25zHskpAGQBiCfjMXiv69otYEl7zUxL2Zgyp51/u/uYDzbbOOPaxz1af//82IiFZ+rGkQufg9ZocbzYdDtYFS6PNQ2Jro4mWxeBQDVVdF/YwPLANS7PO4uJr4qmWz5k8vjjFnSAEgDkC8sa1YZnN0rADrNhfCrbKYFB1oqrMoKxRaC+BHdcd3ExJ9MJlt+qRon714CHEsS6ZYVIJoDYJ3LQ9US80orFP28FYp+ng2sgvvFfx0MOlaKvxCFLxxuKien/3E3ij8BLzgInutG8QeARLp5BQFxN2K7pLtkoOQ+HYGkAfBYItH8dsUEZy5AP3V5qCAIPwLhR1B/Ln5IxLgzWNx3SiLRLCc/ClHgLGtWmYHB5S5N+6/KMr3f5bMPHBB+4mJ83X7+zs43lPcAAKQByAutra0DiVTzZ5npUvh77/teZrq0PR2/3K3tiYUQ+cPPd/77Yiq5HXm098wh7IJh/0hXMGkA8kgy3Xy3yTR76PAPf9lzkM+JyXTz3V7nIoRwXwHc+f9DIvF6LwFX52IsNfSNRGJTUlc0aQDyTFu6udlB0YkgusfrXIaN6B5GcE4isfENr1MRQrivUO7899Weiv8ZwLJcjjkihDWJ1OT/1hlSGoA8lEqt70kkmy9hok8BGPA6n0MYYKJPJZLNl/j5fHIhxPC5udSPgBdsBBd49X3ClLkWwDYvxj6MLhAt1r2UWhqAPJZMNv/CYDoZQD6+TPe2wXRyMtn8C68TEULkRiEXfwBIJt9OMOE8APm090eWgEvceKla1sD6wNQJMycNFA3eDvAFXucyhJYXDxZdoetNVOFfsg/A2FHoxX9fe7ZHXwGXV0wNAxNwZXsqfrsbwWUGwAfe2fnGjkSq+UICfQVATnfT20+WQF9JpJovlOIvxNgxloo/MHTgGAxaBG9XZWXdLP6ANAB+wu2p5huJnfkA3NxP/2C2Ezvz21PNN8K70/eEEDk21or/XolE8yMmO/PgzTsBXQRc6GbxB6QB8J32dOuzDoLHA9B6ot5hrHQQPL493fpsDscUQnhsrBb/vdrSrX/LOjgBhL/mbFDCGhh0/J5VCa6SBsCHTHPARg4fBTBgMjvyrFSIMaSQ1vmr6OiIb0sk42eCnYUMbHVxqF4CfSWRrJmbq11UpQHwmepQw6lsG68BOCtXYxIwzyR7XXWo4dRcjSmE8E4hrvNXlUi3Lh/MDM4E6HsAtG3GA6CbmX8Awz5y6BFr7k5NlQbAP6g6HPsyk/E0gMkejD+ZyXi6Ohz7MmT1iBAFa6xP+x9KV9fmrkSq+WsVE5ypTHQZAS9gdLOxDOBFJv5k8WDxtGS65cs6d/gbLvki9wFZBijylSwDLCxS/EcuFIpVEGGuAZ4HYA4DUwmIAKgAwQGjm4E0gLcMwgYwrTaCvLKtLZ72OHVpAPJdTajheJuM+wEc6XUu/4ToHZB9cSLRutrrVIR3/N4AiJxZZTOcbg8nAAAgAElEQVQt8Nu0f6GTRwB5LBKJXm6T8QLyrfgDAPNUOMYzVjj2Wa9TEULkNSn+eUoagDxUV1c3zgo3/o4YtwMY53U+h1AM8I+tSOzucLip3OtkhBB5R4p/HpMGIM/UhGKxzMC4NQBd5XUuw8a8hJBZa1kzZnqdihAib0jxz3PSAOSRSCh2iU28FqBjvM5lpAiIwXFetsIx/zQuQgi3SPH3AWkA8kBDQ0OxFY79hIjvAuDnqfRxAP+uOhS9o66uLp8fXQgh3CPF3yekAfCYZcWO6N5prAL4WpeHyjLji8z4IlzeRZAJl2UGSp+3rNgRbo4jhMgvft3kZ6ySBsBDVqjxfDCvBTDb5aG2OcDpyXT85mQ6fjM5OAkMt9dPzYbDr0YijR90eRwhRH7wzfa+Yoiv9wGorm4IOw6OI6YYg2YQIwqCBaAMwCQQysAgAD1g7AKhj4HNBGohcAs79CYCxS8nEq/n+MjH0wKR0LbvEdGX4Pa/AeNpmPYl++8yZVnTI7DNu0GY7+r4ADPzTcl07X/mcotLYGgvc2QHTiCDj2YgSkAjA9PAKAVhPIYetxCAbgA9AHoJvMUBbQLjLSZan8kMrO7q2tyVy7xHQnUdvupGOLIPgAAKd5OfQuerBqCurm5cpr9kPojOAOgMADOh/jtkAKxjpudh4JFksvlFuHjcbSh01GSD7HsJmOfWGHs4RPhuezL+bQD2QX7GrI5Ev8GMr8Hl2SAGnnPYXJxOb3DzKGMjHI6eREwLCTwPhNkAAooxHRA2AvQ8MT9SlQr+ZT3WD+pIVgdpAKQB8JoUf//yQwNAk8ONpzigywEsAjDe5fHeJcL9TMZticTGN3QGrg7FTmfiPwKwdMY9gDSTcWkyufGJ4fxwJDLjHGLnLgAhl/NKENNH2tPNWo8yjkRiswzwFcxYBGCKztgHsBPEK8gxfteebn4GLjaLwyENgDQAXpLi72952wA0NDQU7+qij+6ZJp/uSRKMp4lwS3sq/hjUvujJCjd+FaAbAJiasjvYUC+Zdvbits5N747kUzWV06fYZuA+gE90K7M9bIC/mUi1fB9qf1PDCjW+H6DPgXCmruRGaAMBPzeCPb9va2vr8yIBaQCkAfCKFH//y7sGYGiav/RqEK4DUOt1Pnu8wWR8abh31PuqrZ1RlR107gDwfhfy2hcD/JNEavz1wLrM6ELMDlrhXT8A6LNw/9r4c6DIuHzbto0dI/1gdTi6gBk3gdDkRmKjsJ2A71elgr/O9eMBaQCkAfCCFP/CkFcNQHWo8TwmuhVAni4foydh0BeH+2iguir6XiYsA0HtW+7wdjHxVclky590BItEGj9ITL+H249bGFuI8eH2jvia4eUVm0UO35yDFxdHazMM+lwi0fxIrgaUBkAagNzjZxwUXSDF3//yYhlgTeX0KVYo+hATrUDeFn8A4LPhOOsioeg3gdnBQ/2kFW68hk08n4Pi/5oDc46u4g8AyWTLnxyYcwC8pivmARGmsYnnrXDjNYf+wdnB6kj0BmJem8fFHwDq4fDD1eHon0KhWI3XyQihmQ3g1lCq6Bwp/oXB8xkAy4pdCIf/AGCS17mMBAGvsGFenkhs+Pu+/z0UilWYxL8BcLH7WfDvg8W7P7N169bdbkSvq6sblxkY97McnUtwn830sf03EIlEYrOI+Q4A78lBDjp1MeGqZDL+kJuDyAyAzAC4rBfgtwE8TTb/pr2z9U2vExL6eNgAnBawwm3fBXC9t3ko6WfCJ5LJ+B0AUFMVnWETHsjBs+l+MD6bSMd/7fI4AIaOJSbGzzG0v4JrCIg7RIuSyebXAcAKRy8G6PcAl7o5rqsIvw4lg9e49W6ANABqDYDq7y+En3ly8U+dMHPSYNHAowyc7MX4mjEz/dAg502G8d9uF6v9i2Su/P/s3XlgVNXZP/Dvc+9MEkJCgMzMHRKWCMkMGLEW+Iks4kZF61bfilIVt9qKbxdtqe3bTavt203p69JWba3ivqDWhVYRWxAUkRe0LggzCQqCIXdmCJAFkszc+/z+CLa8FCSTc+7cuZPz+VOZ5zwj13ueOffc54RC0aM15kUMRJwdifYQ7K/ZrB1JxNc5O1ZuMLCiO919jhMNhVQBoAoARemrnO8BCATGDesq6lpWIJM/ABARX8eg+xz/pcp4tjPdPTnXkz8AJBKxdzJMkwA87uxIXMqg+wpl8gcAAmYUFxW9VjV0jNM9ChRFUXotpwVAMDimVidrFbz3PNddhG6ArjVT8S+42ZY2lYq1mcn4nH3v3udNNzxPYBxp+XyvGkZktNupKIqiADksAAKBaJUGfSmAmlyNWQgY2MbQTjKTsdvczuUTZjJ2m2bTNAAfup2LpzCPBNOyqiGjR7qdiqIoSk4KgJEV44foxC9CTf5ZIeBFnx+fTSQ2rnI7lwNtT8XW6n4cS8CLbufiKcwjLb/vherqsZVup6IoSv/meAFQj/qi7qKu59BzcI/SOxYzXd+cjJ/R1BRPuZ3MoTQ1xVPNyfgZzHQ9Dn3gkHIgxpGZtP0EcKLoQUWKoih95ngBkAp2/7qANvzlQorJ/nwiFfspANvtZHrBTqRiPyXWZgJodjsZz2CcHA41/crtNBRF6b8cfQVmX5OfPzs9jr9iKMqPOgYDa49ESfVIFIeGwV8+GFpJCQDA7uxEum0XuhLb0fnxFnQ0vI/W9/6BTOtOJ9PKGgMrbaY5qVSsye1c+iIQiFZpxI8RcLzbuewvWE6YWqth4kgNtQZhxFBCYCChtKjn3+/pBlIdjK0tjAaTsW6LjVWNNlLtzh/0R6DZzcnYk44P5BD1GqDS3w0dWjuoSNemMzADjEn7ur9WAqgAIQNGBwFJgD9kYANAq6FZy0xzU8Lt3B27+HtOl9PfhkMd/vSyclROm4nKGadiYO3Y7AMwo2PTRqRWvISW1/4Gq73t8J9xDhPTgubUsO8DyzNuJiLuRF84sP0XTDwfLjZ4GlwKnDtBx3kTdXx2ZPYLXczAW1ttPLnWwjNvWdjl3Fl/Kab0UYnEh6ZjIzhIFQBKf1RTU1PS2VF0AQNfBTAZ2Z/yymCsIcKDvi7/o9ta17c4kOZhOXbxG4HIn0H4guy4RUMqYZw1B8GZZ0IrLpES0+rci+TLi2EufgzpnTn/e9gFjS7L5QEyubBv9WchgMG5HDdcQZh3gg8XT9H/+QtfVEcX8NDqDO5absFslb8qQMDTzcn4F6UHzgFVACj9yfBB9UPTxenvAvgygICksO1E+EPG1m9JpTZslxSzVxy5+Ped6rdYZkzy6QidPhvVsy+VNvEfyOrci+1PLoT5wlPgjPN72hj0Jmk82zTjHzg+mAsMIzKabVpE4AlOj+XXgSuP92H+LJ+0if9AHV3Agpcy+NPKDNKSLw8m/IfT5wY4QRUASj9BoVBkLjFuBhByaIx2ZvwkkSq/ve9HumdH+sXfc4BM6XpIPNWvZFg1Rl9zA0qPqJMV8lPt+SCOTbfeiC7TwUfxRHcPKO26dvPmzZ3ODeK+mpqakr17im8F81VOjTE6SLhzrh/jq3PT1uKdbYx5D3Rj8w55qwEExJuT5Ufl6n98WVQBoBS6yspItU/DgwBOytGQ65jsCxKJxk1ODyT9jpnuLJ0HiZP/4EnTMO4Xd+ds8geA0tERHPnLP2DwxKlOhO9gorlmIjav0Cd/ANi8eXOnmYjNY6K5ADpkx59Vr+GFa4tyNvkDwNHDCS9+qwifq8/2sd+hMRAJB9u+Ki2goijChgXGTvRpWIPcTf4AMJFYW2cEas9yeiCpd83a2tpiEObLihc45QyMmX8j9AGOHkJ3UHrpQIyZfxMCJ50uM2wn6fbkRCL2kMygXpBIxB4i3Z4MQFrRc+FxOu65zI/yktz/iBs0gPCnS/2Yc6zUIuDHNTU1zjzfUhQlK6FQ5Fyb7FcAVLkwfAVIe9oIRh09il1qAdC6iy4DUC0jVuCUM1DzlfkgTd4NNluk66i56jqZRUCJZWmOvBXhBfu+u5QJ7sLjdNx8nh+65t4Krk8HFpwvtQgw9rYXXSwrmKIofRMKjZ1FjCfg8BHoh+ED+B4niwCZBQARkZQT3AZPmoZRV34LoDx4PEeEUV+Zj4qJU6SE04BvSAnkQRrwTRlxZtVr+NUXfflyeeDX5/kx80hpRcC1cPH1SUXp74LBumOI7UUA8qFTJwF8txGoO9OJ4NIKgGHBuuMBjBGNUzKsGkd8/fuu/vI/EOk6Rn/9hygOSVkJOrd6aO1wGYG8ZN9RuOeKxhkdJNx+obu//A/k04HfXujDqEoJORHqDSNysnggRVGyFQzWhzXQXwCUu53LfnwgesiJk0SlFQA26BLRGOTTMfqaG1x55n84eulAjLn2epAuXJj4M7o+T0ZOXmLp+tUQrKj9OnDnXHee+R/OoAGEu+YWwSejbrX5QglRFEXJkob07XDnmf/hVMDG47LPD5FSAAwfPnwAgNmicUKnz87pbv9slY6JInSa8I9YAHwFcngUcx7QAQg/x7ryeF9Od/tn6zMjCFdMl1EB0Ln1qHeom4GiKAdjGNFzIGEec9AkI9Ak9RGylLtpurNkJoBBIjGKhlSievalMtJxVNXsy+EfPFQ0zLBgMDJNRj5eEA7UTgdgCMWoIMyflQ+P5D7dd2b5ERJfPBySCnSfKiEdRVF6wTCOHgibf+d2HodFuDEYrA/LCifn5xSR8DNL46w5jnX4k0kfUIrwmeJFokbiz8O9gomEv+u8E5zr8CdTWTFwlYxVOsJM8SCKovQG2Z2XQdIbbA4rJ858W1YwSeupYgWAXlaO4ExHNjk6IvC5c6CXlYkFYZwiJxsvELs+BpcCF0/Jn02hh3PJFB8qSkWj0IkSUlEU5fA0Bl/jdhK9RcRXj6wYL+V1cuECIByuDQIYLxKjctpMT/z6/4ReMgCVU4QXPY6qrh5bKSOffLbvOx4lEuPcCfIO9smFgcXAF44RLljG94frQ1HcZgSiZwKUv5vP/l1ZZ3H3HBmBhNcqbRufJcH3litP8N7jzsoTZiGx9DmREFqm204ZwYislPJSptsWjjF7ond+/X/ivEk67l8ldGJQv7g+3CZ6loFSCORdAmPDhAsn+3B8lDBiSM/v6607bayMMR55I4ONzXLGIuZLANwpGke4ACCmqMjn/RVDMXC0UAhXDKwdB9+gwci07nI7lYIWLCd8ZkT+7vw/lAkjNVQOJOzoUPOLohQ6vw+48Ww/5k7R/q1HSdTQEDWAy6dreGCVjZ88n0Y6Izzk5HC4Ntjc3JgUCSJ8Z2WIFQDlRx2THx3/skWE8vpj3M6i4E2t1bx6eWBqnfcKF0VRsuP3AQ9fWYTLpumf2qBM1wiXT9fx8JVF8IvvEyZYuvABRcJ3KGIIFQADa48UTcE1ZXX1bqdQ8CaO9O4k6uXcFUXpnRvP9mN6FsX+9DoNN5wlXgEw8XGiMcTvUMRC7ySWVI0QTsEtXs7dK8aEPPjzf59aD+euKMrhjQ0T5k7Jfhq9dKqOqCE4/Qr++AakvAZIQu/DlQzzblv84rB3c/eKI4LenURrAt7NXVGUw7twsq9P55LoGuFLk0U3N7Pwmwsy1iiF+p7pAwXfp3eRT7QXgHJYFQO8O4kOFu4FoChKPpsR6fv9aUZUdPol4V4AEh4BCBYAJd69S+oDvJu7V5R56P3/A5Xl4aFFiqLIUz2k71Po8CHC9wfhpuNql5KiKIqi9IHIS77M7r8iLF4AMNpEPm517hFOwS3WXu/m7hXt3W5n0Hftne7/D64oinOadva90dnH4i1khOZeQM4KgFASmXbh7+CaTHu72ykUvF17vDuJ7lL1oaIUtFfifb8/rYiJdknlnYIBZBQALDQLdjV/LJ6CS7qat7mdQsHbnPJuAeDl3BVFObxHVluw7Oz/P7dsxiNrhFqFA6AGwQAyHgFQs8jHO5u2CqfgFi/n7hWbEt6dRBs9nLuiKIcXM+0+nfmx8DUL8WbBFQBCTCyAjFbAgkl0NKwXTcE17fH33E6h4K3dIn6YkFvWbhGt8BVFyXc3Pp/Byobe36dWNti46XnxwwCI6XXRGOKtgMFCBUDre/8A8mA3ZLaYbbSt/4fbaRS8VY22Fy8P2AysavRg4oqiZCWdAS6+pxv3vpr51McBGQu4Z4WFi//YjbT4bwNb8/My0SDCDYmZOEbc9/cZM6070bFpIwbWjhNNJac6GjYg07bb7TQKXqqd8dZWGxM81ld/3RZGizoJUFH6hXQG+NGfM3jgdRsXHqtjRlTDiH3v+W/dyXglZuHRNbb4sv+/rG5qiqdEgwgXAD6f9qaVBgPocxWQWvGS5wqAlleWiIawfUVa6OOPN+6QkU++qq4eW5npthMQWG16cq3luQLgqbXCS3yeuD6MYMTTVY6ZjKtuTf2cEYieDeJnZcSKN9v4yXPOP7Zk4gdlxBG+q+6rQt4RidHy2t9gd3WKppIz1t492LFaePXlvXy/ucuw7zsKbfR45i0LezzUD6C9C3j2beE1vnf7w/WhKG4zU7HFBMTdziMLbSVdJY/LCCTnZxXh7yIft9rbkFj6vJRUciG59DlYoj0ACH+Tk40XsND1sWsP8ODr4ptmcuWBVRZ2C/cA4OUSUlEU5fBsEG5zO4neYuY7P9r9rnAPAEBWAWCL3eABwFz8GKzOvTKycZS1twPNzz8hHMdm/FlCOp5AzMLf9a7lFjq6ZGTjrLZOxl3LZezwxVIJ6SiK0gtMJfcD8MJ73a2k2wtkBZNSAPhL9v4NgNCOuPTOFmx/cqGMdBzV9MR9yLQKF1/bk8n4azLy8YLmVOOrAEyRGGYrY8FL+b8KcPOSDFLtgo/FCS2VqSJVAChKjpjmOx1g+2tu53F4dL1pbkrIiialANi2bdteAItE45gvPIU9H+Tvo5iOxo1ILHlGQiS6F4B3X3DPngXgXtEgf1qZwTvb8nfP2Vsf2Vj4moR3/xlPr8d6D+16UBTvM1ONzwMQX951CmGNmRz2O5khpW2ttoEHRGNwxsKmW2+EtadDRkpSZTra8cFtN4Et4Rt8OmPznTJy8hKfZf8egNBP+LQFzHugG617868I2L2XcfWDaWQkzP/E9Ih4FEVRssWU/iaAfOxPvwtEcwAJzxf3I60ASCbjrwJoFI3TZTbhw9/+XMZEKw1bFj6842foSmyXEe7PO3bE8/ECc9THLY3bADwtGmfzDsY3Hs1ImWhlyVjA1x5O46MWKYXJu82p2HIZgRRFyU4i8aHJhDMAtLqdy34yBFxkmrEPZQeW+XI1g3GzjEC71q3Clj8uyI8OgczYfPfN2P3WG1LC2cAdUgJ5kKzvvnS9he8+mc6XywPzn0jj7xvkPNEh8P9A7JhxRVEEJBLxt5ns2QDSbucCgAm4sjkZ/6sTwaV2VykfbN/PgJQj8lLLXsDmu292dSWALQsf3vkr7BBv+vOJTl23pby+4UX7vruUhg+PrbEw/wk5S+59lbGAax9LY9FaaUlsL6tgtfyvKC5LJBpfgkazAbj5PDpDwOXNyfj9Tg0gtQBobGzsItAtsuKllr2AxgU/dmVPQKajHY03/1Dm5A8AJWxpb4RC0YtlBvWCUCh6MVvaGwBKZMV8bI2FKxamXdkTsHsv47L7umVO/mDimxobGz3wsqOiFD7TjD2rsz0D7uwJ2EXAOU5O/oDkAgAA/MUdfwCwSVa83etex/vf+yr2bBI++bDXOho3YsN/fVXasv8BBhLzg0YoeldNTY20yTBf1dTUlBih6F3E/CCAgbLjv/y+hVn/0423t+auCHjrIxuzftMtbdl/n42JRPU9MgMqiiKmKdX4ZsbGZNFmd1khrIFGE5xa9v+/QzkgHIx8noG/yIxJuo7Qaeeiavbl0AeUygz9T9beDjQ9cR8SS57JyaMHBr1JGs82zfgHjg/mAsOIjGabFhF4gtNj+XTgiuk6vjPLj7JiZ8Zo62TcvCSDha9Z8h89MJ1jpmLPSY7qONGzALZUjRIaf1TTFqHPq7MAlN4KBaIXEfECAIZDQ7QCdH3Pq35yd/sfimMXvxGMPA3gXNlx/RVDYZx9PoIzz4ZeMkBKTGvvHiSXPofm55+Q0eQnW7ug0WWmGZNyGEW+MIzoObB5IYDBuRw3WE6Yd6KOS6b4MFBSIdDe1dPe967lEpr8HNwiMxk/34nATlMFgNKfDB5cM7jYX/wdgL8CICQpbBsz30m6vUBmk5/ecOzirxo6ZoTl0/8BxlAn4utlZRg69RQEZpzac5IgZflVmNHe8D5aXlmCHauXiff2F8PMdEsiNewHuar8nHOiLxTY/nMi/g4cvL4Op6IU+MIxOs6bpGPCSK0vlwfWbmE8tTaDZ9+W0dv/kJKk2/XNzY1Jx0ZwkCoAlP6otra2uLVVn60xX8XAccj+ZF0G8DoTP1jSVfK4rN7+2XL04t93zOIzTo/jGzQY5fXHoKyuHgOqR6A4VAV9UAX0kp5HBVbnHlitu9GVaMKebR+ho2E92tb/A5k2oe7F0jGw0maak0rFmtzOpS8CgWiVRvwYAce7ncv+KgcSptZpmDhSQ51BGDmUMLSMUFbU8+/bu4GWdsZHLYy4aWPdFhurGhktHY7vK2AmfDGRiHv2XAhVACj9XSAQLSfCNA08A8AkBkZSz+pAOQg2GG0MpAB8oBE2gGm15udl+07SdZXjF384FFnAjG87PU4BSTLZFycSjS+5nUg2woHaE5i0RwEMczsXD/mlmYx/XySA6AQsOgGqAkBRvEv6WwAHak6U/xcDK5wep4AEibW/GsG6HyEHfz8SaEaw7kdM2t+gJv9sLDWT8R+5nYSiKP1XDiaYdenudPc5AN5xfqyCoQP001Awsri6emyl28kcSnX12MpQMLIYoJ8C0N3Ox0Pe9Xf556DnkCRFURRX5OQX5q5dm3dZTKcDkN7LuJARcHq62/5HKDR2qtu5HGhYIDop023/LwGnu52Lx2yyWJ+1rXV9i9uJKIrSv+VsiTmVijXZsE6FKgKyQsBwgr3MCNZ90+1cPmEE675pa/wagCPczsVjNms+/ZRUaoOUU6UURVFE5PQZczK5qdGGfyqAf+RyXM9jFAF0mxGI/Hnw4Jqcvle/v0AgWm4EI48BdFtPTkrv8Xs+yz5++/YNYrvWFEVRJMn5JrNkcn1zV7r7JIBeyfXYDmFm/jWBLwfIubfFAYDwhRJ/0RuGMXa8o+MchGGMHe8jXgvgAmdHoj0EvpyZbkbhnIq3rDtjTd93JLKiKEpecGWX+a5dm3eZyWEziXAjAKkN1XOsnUAXJFIN32tONizUbZ4IxnonB2QgAtteYwQiX3FynP2FQpG5sO3XGYg4OQ4BcSZMaU42LEykYt8F8CW4exqXKAbo9kDSf9rOnR/kV9MJRVH6PdffgTUCdWeCaCGAvN3tfgjryLIvaW5pfH//fxgIRMt14j/C8V/KAIA/+Yv3fGPbtm17nQg+fPjwAemu0jsAfNmJ+Ad43GL6SioVa9v/HxrGuKPIth5g4LM5yEEeQgts+zIz1fi8k8OoPgDqiYrDOsDYDOKXSec/Njc3OvoDR8kt198zN1MNizM2PsPgJ93OpVcI3QD/2ExWHXfg5A8AqVSszUzG5wD8zZ4/66gvp7tKVwWDY2plBw4Gx9Smu0pXwenJv+e/5zfNZHzOgZM/AJjmhveak+WTmXEDgLSjucjzOCN9pNOTv6LkwEAQ6gG6hi3tbSMYuaMe9Wr/T4FwvQAAgB074h8nkg2zmbTTAG5wO59DIeBF0uwJZrLhZ4fr2W8mG+4gC8eD4fRPlGM06GtDobr/kBUwFKr7Dw36WgDHyIp5UIwtZOF4M9lwx6f/wXXpRCp+EzR9AoGXOJqTmE3EfKaZjM9JJD403U5GUSTTAXw9Fcy8FAzWl7mdjCIuLwqATyQSG5eUV/B4Ar4BYKvb+XyCgLeg4XPNyfjp2SyBNe+Ir/EVaxMBOH2ucwUxPWmEIr8BJvr7Hmai3whFfkNMTwKokJbdwf3VV6xNbN4RX9PbD/SsBjScxmTPAvC2g7llhYFtzDzPTJaPa041SD0GW1HyD5+gI/2CKgK8z/U9AIdSj/qiVCB9CYi/C1CdCykwQEuZ6DeJxMaXILYjnYxg3Q8AuhHOd8xb5bPsC7LdcV49tHZ4RtceB+B00yEL4BvMZMPPIfjfNBiMztLA3wYwE+5cy+8y8+9Ky9L3b968udOF8dUeALUHwDUEvGrBf3oyud7Vo1SVvsvbAmA/FAxGpmmES8CYDafPl2dsIdAi+KyFsje8hAPRk5j4UQCGzLgHkdWBQqFQ7anE2kMAgg7nZRLTl5pTsWUygxrGuKPIsi9lDeeDeaTM2AexkxiLifie7ckG18+4UAWAKgDcpIoAb/NCAfBPNTU1JZ0dRSeDcAozTgZwNEQfYxC6wVgLYAWT/Vwi0bgaDr5/HgiMG6aR9RgBM5waYx+bCD9tTsRvwqFftdTCocj1zPgxHH4cxMAKm/U5DnfBo1Bo7BRi+2yAZgA8CYDAIxEAPf361zOwEsTPJhKDlgPr8mYzoioAVAHgNlUEeJenCoADVVePrcxk7M+SjSgDYwGKAGyg5xzmwQDKwCAA7QB2AdwB0BaAG4ioAbb2vlbUuqapqcnZBj7/5kRfKPDxfxPRdXD874BeIt26uLm5Mbn/Pw2Ha4Ns6Q8BfKqz44OZ+eZEqvqHh9s4KVtVVVWp3V0+GcRHMrgWoAgYo0AoBfZdHz3awWgFYQ8DmwnYBMYHrPF7mQy/0dLS2JrLvLOhCgBVAOQDVQR4k6cLAK8zAnVnQqP7wRjq8FAfM9EFiUTsNQAIV0b+H2t4AkCNw+O2MvEViUTDUw6Po7hEFQDKflZZTKcd7HVeJT+pAsBlhhE9AjYvAjDR4aHSYHwPAED4FcSXxg9nHTSabZoxdfhTAVMFgLI/tRLgLXn1GmB/ZJqxD8sr7GkA3e7wUH4QfgPCb+Dw5E+MB/3Fe45Xk7+i9AecxV4AACAASURBVC8MTNeQXhIIRMvdzkU5PFUA5IHGxsYuMxm7hpkuRs9+Ba/aC9CXm1PxS5xqT6woSt6bqhO/qIqA/KcKgDySSMUe1pkmAfye27lki4EYNG2ymYzd63YuiqK4ThUBHqAKgDzTlIrF/MV7jwXYOxMp0SMM/yTT3Piu26koipI3VBGQ51QBkIe2bdu210w2fJkJlwLI56X0LoCuNROxi9SmH0VRDkIVAXlMFQB5LJGIP6CzPR3AB27n8m+IPoJmn2gmY7e5nYqiKHlNFQF5Sr0G6AEjK8YP6Srqvh/gs9zOpQc9X9xddOlHu9/d6XYmiru8/hqgaCOkQhMM1pfpSL/AwHTZsQv1FcGhQ2sHFenadAZmgDEJhFEAKgFUgJABo4OAJMAfMrABoNXQrGWmuSnhdu7q4vcOCgej32XwzwD4XMohQ6AfNSdjv4aD7ZIV71AFQOFRRcDh7WtLfwEDXwUwGdkf8sZgrCHCg74u/6PbWte3OJDmYamL32PCgdoTmLRHAQzL8dDbie0vNacaX8nxuEoeUwVAYVJFwMENH1Q/NF2c/i6ALwMISArbToQ/ZGz9FofPSvk3ag+AxzSnGl8h3f4MgKW5GpOBFRbrE9Xkryj9QzK5vp21ktMAXi47tlebBYWD0dnp4vQGAN+DvMkfAMqY8W2d7MZwKPKTetQXSYz9qVQB4EGWVawjh48BCLCINLXkryj9iGm+02Gj6CwCXnUg/FQf8V+Dwfqyw/9Rd1VWRqqNYOTvDH4CQMi5kbiUGTekgulVoVDtGOfG+RdVAHhMOFB7gob0mwBOyuGwJ2lIvxkO1J6QwzEVRXFZMrm+3YL/dCeKAAam60i/kM9FwLDA2Ik+DWuQ2/vtRGJtnRGodXzTtyoAvIPCwej3mLSXkfvn/wAwjEl7ORyMfg9q74ii9Bv9tQgIhSLn2mS/AqDKheErQNrTRjB6hZODqALAA0ZWjB9iBKPPMviXcO8NAADwMfiXRjD67MiK8UNczENRlBzqb0VAKDR2FjGeADDQxTR8AN/jZBGgfsnluWGB6CSb+AkAR7idywE+1JjO356KrXU7kf5MdBe+6C549RZA/9If3g4IBuuO0UArAOTLJsUMmM81Uw2LZQdWKwB5LBSKXm0Tv4r8m/wB4Aib+NVQKHq124koipIbhb4SEAzWhzXQX5A/kz8A+ED0kGFERssOrAqAPBQM1pcZoejDxPx7AMVu5/Mpion590Yo+nA+Ld8piuKcQi4CNKRvhzvP/A+nAjYeB06U+ghYFQB5pioQjWrofh3MF7qdS68xX0hIrzWMsePdTkVRFOcVYp+AcKDuDACzczlmliYZgaZvyAyoCoA8EgpEL7KI1wF0lNu5ZIuAKGz79VAgepHbuSiK4rxC6hNgGEcPZKK7czGWEMKNwWB9WFY4VQDkgdra2mIjGL2NiB+Cu7tORQ0k4ofCgcgDw4cPH+B2MoqiOKtQVgLI7rwcQLXT40hQTpz5tqxgqgBwmWFEj2jbrb0G8DcdHirDjO8w4zsAMk4OxIS56a7SlYYRzcfNi4qiSFQAKwEaO3//lYaIr5b1GrYqAFxkBOrOBPNaABMdHupjGzgpkYovSKTiC8jGVDDE3p86vImw+R+hUN0XHR5HURSXeXklwDCiZwFU50Rsh5R1FnfPkRHI0+/AhsO1QdvGZ4kpyqCxxIiAYKBnGX0ICAPBIADtYLSCsIeBzQRqIHAD2/Q+fMVvmOY7HbnN/ERfKPDxfxPRdXD674DxMnTrogPPnjaMMSFY+sMgzHR0fICZ+eZEqvqHwHJHVx4OZBhHD0SmazJpfCQDEQLqGBgFRikIgwCUoee/fxuAdgAdBN5igzaB8QETrU+nu1bv2rV5Vy7zzobqA6D6AOQTJ/sEeMHYMOHCyT4cHyWMGNLz+3rrThsrY4xH3shgY7O0I1VWm8n4FNEgnrr4hw8fPiDdWTITRCcDdDKA8RD/DmkA65hpJTQ8m0jEVsHBs+4DgXHDNLIeI2CGU2PsYxPhZ82J+E0ArEP8GT0cilzPjB/B4dUgBlbYrM9x+LhLLRiMTCWmswk8A4SJEO+caIOwEaCVxPxsZdL/t/VY3y0jWRlUAaAKgHzTH4sAvw+48Ww/5k7RoGsHv6Qsm/HAKhs/eT6NtPhPISbdNpqbG5MiQbxw8dOwYN3xNugS9LyiMcjh8bYSYRGTttA0N74rM3A4ED2JiR8FYMiMexApJu3iRGLjkt784Z62l/ZDkHvE5cGYxPSl5lRsmcygoVD0aA18KTNmAxghM/ZB7AbxYrK1PzWnYsvhYLHYG6oAUAVAPupPRYDfBzx8ZRGm1/XuN9SrDTYuuqdbuAgg0AXNydgTIjHydg9AbW1tcShQd5URjDTYoFcAfBnOT/4AMIIZ34Ztv2MEIkvDwcjnIV4okRGs+yETL4Xjkz+9rlvWhN5O/gCQSGxcolvWBIBedzIzAAYTLzWCdT+E+H9TzQjUnWkEIi8T89vM+Dacn/wBoAJMFzHx341gZH04GPl6VVVVaQ7GVRTPcLJZUL658Wx/ryd/AJhep+GGs8T7+TDxcaIx8q4AGD58+AAjEPlW225tExHdBSAn5yIfFGEmA38xgpG3Q6Gxs/oSorp6bKURjCwG6GcAdMkZ7o8BvtVMlp3Q1LJpa7YfbmrZtNVMlp0A8K1w9letDtDPjGBkcXX12Mq+BAgHI6cbgcg7IHoehFNkJ5iFcQzcYaXLGsPByNfrUV/kYi6Kklf6QxEwNkyYOyX7afTSqTqihuD0y4iKBcizAiAcqDsj3VW6HoTfIL/eyRxPbL9oBKNLsul2F66MHJvpstcB+LyDuQFAKxPPNpMN3wLWpfseZl3aTDZ8i4lnA2iVlt3BfT7TZa8LV0aO7e0HQqHo0UYgspSBv4JQ72RyWRrGwB2pYDpmGNFz3E5GUfJFoRcBF072HfKZ/6fRNcKXJov+HmThNxfyogCoGjpmhBGI/JmJFiM/D77Zh0+Fba8LBSI3ABP9n/YnjWDdN1jHShDEHnIe3ts29EmJRMNTsgImEg1P2dAnAXhbVsyDIoxiHSuNYN1h2ltO9IdDkRuJeW0O3loQUQObnwkHI08FAtF87CeuKDlXyEXAjEjfn2TOiIpOvyTcC8D1AsAwoudYuv42CF9wO5de8hPhJ+Fg2xuGMe7fWvYGAtFyIxh5DKDbwXB4SZjv9RfvmZJMbmiQHTmZ3NDgL94zBeB7Zcf+PxhFAN1uBCOPHew931AoerQRbPtfZlwP4FOLrnzBwH/oxOtDoci5bueiKPmgUIuAqiF9n0KHDxHefyrcF8G1HbD1qC9KBbt/BdA1buYhqAPAl81k/HEAMIxxR7FtPUkQfzZzGHsJ/LXmZMN9Do8DAAgH6y5n0O8AONrel4EYafp5prnhPQAwAnVfAmn3AOzVTXYMwq1movx7Yo9m8pfX3wLwgA4wNoP4ZdL5j83NjevdTkhEob0dEP95Ccr6eF5rexcQ+UGnyPBdZjJeIhLAlYl3ZMX4Id1FXc8VyEXAzHSLRvb7DO13Tk9WBMRtotmJROwdJ8c5UCgUPVpjXsRAxNmRaA/B/prN2pFEfJ2zY+UGAyu6093n5HNDob5SBUBOWQDuDCT98/OpF0W2CqkIWH5dESLhvq0CbGxmnHxzl8jwKTMZD4oEyPkjgEAgWtVV1LmiEP7y9yEivo5B9zk9+TP4yW7L/n+5nvwBIJGIvdNt2f+PwU86OxKXMui+Qpn8AYCAGcV+/8rKykg+bWxVvEcH8PVUMPNSrk7Jc0IhPQ54Jd73+ndFzBYcnXcKBshtARAMjqnViV/z4nG3riJ0A3RtItkwu6Wl0end+YfU0tLYmkg2zAbo2p6clN6jo3w6rTKMyGi3M1G8jk/QkX5BFQHue2S1BcvOvgiwbMYjaw7VoLW3SHjvV84KgEAgWqVBXwqgJldjFoitIPsEMxm7ze1EPmEmY7eB7BMAZN1voF9jHgkbS9UbAoooBqarIsB9MdPG/auyn8gXvmYh3iy4AkCIiQXIUQEwsmL8EJ34RajJPysEvKj7McE0G1e7ncuBTLNxte7HBAJedDsXjxmta7y0r02QFOUThVQEoKfbqyfd+HwGKxt6P5mvbLBx0/PihwEQi3dudbwAqEd9UXdR13PoObhH6R2Lma5vTsbPaGqKp9xO5lCamuKp5mT8DGa6Hoc+cEg5EOPITNp+AjhRvB+o0q8VShEQSPpOBfBbePA+ks4AF9/TjXtfzXzq44CMBdyzwsLFf+xGWvxb2pqfhc9UcfwtACNY9z8AXev0OAUkAQ0Xmmb8b24nkg3DiJwCG48ACLmdi1cQ4TfNifh8t/MQod4CyA8EvGrBf3oyub7d7VxEhMO19WzRlWD6HAg16Dna3TMiYQ0XHqtjRlTDiH3v+W/dyXglZuHRNbb4sv+/rDKT8WmiQRwtAAwjeg5s/rPT4/grhqL8qGMwsPZIlFSPRHFoGPzlg6GV9LwiaXd2It22C12J7ej8eAs6Gt5H63v/QKZVeBOlVAystJnmpFKxJrdz6YtAIFqlET9GwPFu57K/YDlhaq2GiSM11BqEEUMJgYGE0n1tmvZ0A6kOxtYWRoPJWLfFxqpGG6l25w/6I9Ds5mTM4TcrnKMKgPxRKEVArhmB6NkgftbtPLLBxFcnEg13icZxbGKuGjpmhKXrbwMQbld4MHpZOSqnzUTljFMxsHZs9gGY0bFpI1IrXkLLa3+D1d4mP8kssiGmBc2pYd8Hlos/HHLVib5wYPsvmHg+XGzwNLgUOHeCjvMm6vjsyOyfdDEDb2218eRaC8+8ZWHXHgeS7JFiSh+VSHxoOjaCg1QBkF9UEdAnWjgY2eB8jxNp2oq7i0d9tPtd4V+wjt2gjUDkz0609y0aUgnjrDkIzjwTWrFQE6R/sjr3IvnyYpiLH0N6Z4uUmFnYBY0uM82YpyrQw9m3+rMQwOBcjhuuIMw7wYeLp+j//IUvqqMLeGh1Bnctt2C2yl8VIODp5mT8i9ID54AqAPKPKgKyFw5F/pMZv3M7j95g5l8nUg3fkxHLkQIgHKg7Y9/BPtKQT0fo9Nmonn2ptIn/QFbnXmx/ciHMF54CZ5zfi8KgN0nj2aYZ/8DxwVxgGJHRbNMiAk9weiy/Dlx5vA/zZ/mkTfwH6ugCFryUwZ9WZmRs4vk/mPAfiUT8z3KjOk8VAPlJFQHZMYyjB8Lu3ABghNu5HEYrNKvONDclZASTXgAMHz58QLqrdD0knupXMqwao6+5AaVHCJ9+2Ct7Pohj0603ost08FE80d0DSruu3bx5s1Az6HxXU1NTsndP8a1gvsqpMUYHCXfO9WN8dW7aWryzjTHvgW5s3iFvNYCAeHOy/CivnRmgCoD8pYqA7BiB2rNA2nNu5/Hp6FqZPWGk3zHTnaXzIHHyHzxpGsb94u6cTf4AUDo6giN/+QcMnjjVifAdTDTXTMTmFfrkDwCbN2/uNBOxeUw0Fz2HJ0k1q17DC9cW5WzyB4CjhxNe/FYRPlcvep73vzAQCQfbviotoNLvFcIrgrlkphqfB/CE23kcEmGNmRwm9TGF1LtmbW1tMQjSXmsKnHIGxsy/EfqA3L8JopcOxJj5NyFw0ukyw3aSbk9OJGIPyQzqBYlE7CHS7ckApBU9Fx6n457L/Cgvyf1ew0EDCH+61I85x0otAn5cU1PjzPMtpV9SRUB2mNLfBPCx23kcxC4QzZG9SVxqAdC6iy4DIOXAk8ApZ6DmK/NBmrwbbLZI11Fz1XUyi4ASy9IceSvCC/Z9dykT3IXH6bj5PD90zb2TpH06sOB8qUWAsbe96GJZwRQFUEVANhKJD00mnAHAtTNXDiJDwEWmGftQdmCZnciIiKSc4DZ40jSMuvJbALl3c/8nIoz6ynykW3dh9zrhzovQgG/Aw72vRWjAN2XEmVWv4Vdf9OXL5YFfn+dHqh14+X0pOwOvBfAnAM43IVBgJuN5cBX9i1NH5e5XBKg9AYeRSMTfDoVqZxNriwH4XU6HCbiyORn/qxPBpa0ADAvWHQ9gjGickmHVOOLr33f1l/+BSNcx+us/RHFIyhku51YPrR0uI5CXVA0dMwLAuaJxRgcJt1/o7i//A/l04LcX+jCqUkJOhHrDiJwsHkjxIicPyFErAb2XSDS+BI1mw4F9S1nIEHB5czJ+v1MDSCsAbNAlojHIp2P0NTe48sz/cPTSgRhz7fUgXbgw8Wd0fZ6MnLzE0vWrIbji5NeBO+e688z/cAYNINw1twg+GXWrzRdKiKJ4lCoC8oNpxp7V2Z4Bd/YE7CLgHCcnf0BSATB8+PABAGaLxgmdPjunu/2zVTomitBpwj9iAfAVyOFRzHlAB3CFaJArj/fldLd/tj4zgnDFdBkVAJ1bj3qHuhkoXqCKgPzQlGp8M2NjMgh/z9mghDXQaIJTy/77k3I3TXeWzAQwSCRG0ZBKVM++VEY6jqqafTn8g4eKhhkWDEaED3LwinCgdjoAQyhGBWH+rPw/PO87s/wIlQuHGZIKdJ8qIR3Fw1QRkB927Ih/bCbipzDTxQCcbNndCtC1ZqJqmhMb/g5Gzs8pIuFnlsZZcxzr8CeTPqAU4TOFFzugkfjzcK9gIuHvOu8E5zr8yVRWDFwl45RfwkzxIIrXqSIgfyRSsYe70t1jAfpvAFI68e3Txsy/hmbV9TT5yd15MJLWU8UKAL2sHMGZZ8pJJQcCnzsHepng/zOMU+Rk4wVi18fgUuDiKfmzKfRwLpniQ0WpaBQ6UUIqSgFQRUD+2LVr8y4zGftReYU9konm7vs76cuEzQBWMfHVxd3FoxKphu/Jau+bDeECIByuDQIYLxKjctpMT/z6/4ReMgCVU4QXPY6qrh5bKSOffLbvOx4lEuPcCfIO9smFgcXAF44RLljG94frQ+kdVQTkl8bGxq5EIvZQczJ+vMU01AadDuAXAJYyEAOwE0AGhG4AOxiIMfACEX5DoPN1P0JmMj4tkWi4S8apfn0lvJ06FKo9lVhbIhJj3M/vxMAxfTjS10UdDe9jw4++5nYa/cJfrynCMX040tdN67bYOOv2brfTyHtunwWQb30ADsepPgGAOjugPxK+qxKT0MztGzQEA0dHRdPIuYG14+CvEN4MqBxGoIzwmRHemvwBYMJIDcFyT80tigckk+vbWSs5DeDlsmMzMF1DekkgEBXfxqp4gvCdlUFCs/eg8RPyo+NftohQduTRbmdR8KZHNK9eHjhujPcKFyX/meY7HdAGnOlEEQBgqk78oioC+gcJKwCIiHx+YO040RRcU1ZX73YKBW+CB3/9f2Kixx5bKN5hmu902Cg6y4k9AQCm+oj/qvYEFD7xOxRxWOTjJdUjhVNwS0nVCLdTKHi1hgd//u9TG/Ju7kr+U48DFFESfqKQUJVYEpZyeKArisP9rqV/ztUEvDuJejl3xRvUSoAiQsIKgFgHQN9A7xaYPtFeAMphDR7g3Ul0sHAvAEU5PLUSoPSVjIeUQrOgVjJAQgru0AeoO7zTBnro/f8DleXhoUVKYVIbA5W+ULuUFEVRCoAqApRsySgAhJpG2J17JaTgDmvvHrdTKHgdHu6l097Jbqeg9DOqCFCyIV4AMFpFPp5uF/q4qzLtqmGW03bu8e4kukvVh4oL1MZApbckrACw0CzYZTaJp+CSruZtbqdQ8Lbs8G4BsDnl3dwVb1MbA5XekLACQM0iH+/8+CPhFNzS2bTV7RQKXqPp3Um0MeHd3BXvUysByuGItwImxEQ+39H4vmgKrmmPv+d2CgVv3Ue22yn02dotltspKP2cWglQPo14K2CwUAHQ+u5bAHvwlxIz2t5/2+0sCt5rDbZXLw+83ujBxJWCozYGKociYQVArADItO5Ex6aNomnkXHvD+8i07nI7jYKXame8tdV7qwBrtzB2dKgCQMkP6nGAcjA+4QA+7U0rDQbQ564nqRUvee5QoJZXloiGsH1FWujjjzfukJFPvqquHluZ6bYTECg2n1xrYYLHDtZ5am1GNIQnrg8jGPF0lSMh/w4wNoP4ZdL5j83NjeulJOaAZHJ9ezBYf7qO9AsMTJcZm4HpOtIvBIP1pyeT69XrUR4hfFdtaoqnALwjEqPltb/B7uoUTSVnrL17sGP1MtEw7+b7zV2Gfd9R6Kb4zFsW9nioH0B7F/Ds28LP//vF9VEABoJQD9A1bGlvG8HIHfWoz9v+lcnk+nYL/tOdWAnYrwhQKwEeIednFeHvIh+32tuQWPq8lFRyIbn0OVjCPQAceR6Xp1jo+ti1B3jwdeFf1DnzwCoLu4V7APSn66Ng6AC+ngpmXsrnSVAVAcon5BQAttgNHgDMxY/B8kBXQGtvB5qff0I4DjGWSkjHE4j5z6Ix7lpuoaNLRjbOautk3LVcvFjpT9dH4eET8n0SVEWAAkgqAPwle/8GYLdIjPTOFmx/cqGMdBzV9MR9yLTuFAtCaKlMFfWbG3xzqvFVAKZIDLOVseCl/F8FuHlJBql2wcfK/ez6KERemARVEaBIKQC2bdu2F8Ai0TjmC09hzwdxCRk5o6NxIxJLnhEPxHh6PdZ76Km2MAvAvaJB/rQyg3e25e+es7c+srHwNQnv/ve/66MgeWESVEVA/yZta7UNPCAagzMWNt16I6w9HTJSkirT0Y4PbrsJbInf4InpEQkpeYrPsn8PQOgnfNoC5j3Qjda9+VcE7N7LuPrBNDIS5v/+eH0UKi9MgqoI6L+kFQDJZPxVAI2icbrMJnz4259LmWhlYcvCh3f8DF2J7TLCvducii2XEchLPm5p3AbgadE4m3cwvvFoRspEK0vGAr72cBoftUgpTPrl9VHIvDAJqiKgf+rzu/sHYwQiXwXhbhmxAiedjpqrrgNIaorZY8aHd/4KO8Tf+wcAEPiK5mTDfVKCeUwwGJmuAStlxJpzrI4F5/vz4fLAtY+lsWitnIrEa9eH6Hv0W6pGCY0/qmmL0OdziYBXLfjz+j35YLC+zIk+AYA3vn9fDB1aO6hI16YzMAOMSSCMAlAJoAKEDBgdBCQB/pCBDQCthmYtM81NCbdzl3r7rK2tLW7drTUSMFxGvMBJp2PUV+aDdF1GuKyxZWHz3TdLm/wBbC+vsI9obGz0wH52+cLh2nq2tLUASmTEm3Osjl+f54fPncsDGQuY/4S8yR8evD5UAZAdL0yCqgg4vJqampLOjqILGPgqgMnoeQU0GwzGGiI86OvyP7qtdX2LA2keltT2ao2NjV0EukVWvNSyF9C44Meu7AnIdLSj8eYfypz8wcQ3eenmLlMoFL2YLe0NSJr8AeCxNRauWJh2ZU/A7r2My+7rljn59+vro7/wwnK4ehxwaMMH1Q81gpFf7u0o2srAQgBTkf3kDwAEwmQGfpsuTm8JhyILAoFxw+Rm25skJBs+fPiAdFfpuwDGyIpZHKrCmGuvR+mYqKyQn6qjcSM+uO0mWc/8P7HRTFaNByS8JO4hNTU1JXv3FN8K5qucGmNUJeGuuUX4zIjcPA946yMbVz8o7Zn/Jzx5fagVgL7xwi9htRLwf1AoFJlLjJsBhBwao50ZP0mkym8H1qUdGuP/cOSOGQ5GPs/AX2TGJF1H6LRzUTX7cugDSmWG/idrbweanrgPiSXPyN+EyHSOmYo9JzdofjOMyGi2aRGBJzg9lk8Hrpiu4zuz/CgrdmaMtk7GzUsyWPiaJX8TokevD1UA9J0XJkFVBACVlZFqn4YHAZyUoyHXMdkXJBKNm5weyLGfTEYw8jSAc2XH9VcMhXH2+QjOPBt6yQApMa29e5Bc+hyan39CvMnPwS0yk/HznQicrwwjeg5sXghgcC7HDZYT5p2o45IpPgyUVAi0d/W0971ruYQmPwfn2etDFQBivDAJ9uciYFhg7ESb7OcAVOV46N1ge66ZanS0R75jBUDV0DEjLJ/+DzCGOhFfLyvD0KmnIDDj1J6TBLPdDs6M9ob30fLKEuxYvUxCb/9DSpJu1zc3NyadGiC/nOgLB7b/gonnw8Hr63AqSoEvHKPjvEk6JozU+nJ5YO0WxlNrM3j2bRm9/Q/J09eHKgDE5fskCPTPIiAUipxLjAcBDHQphQxAV5nJmHATtUNx9AZtBKJng/gZp8fxDRqM8vpjUFZXjwHVI1AcqoI+qAJ6Sc+jAqtzD6zW3ehKNGHPto/Q0bAebev/gUybUPfi3mAmfDGRiAv3wveCQCBapRE/RsDxbueyv8qBhKl1GiaO1FBnEEYOJQwtI5TtO7OtvRtoaWd81MKImzbWbbGxqpHR0uH45kLPXx+qAJAjXyfB/fWnIiAUGjuL2F4MwOdyKgzQlU4VAY7/QguHIguY8W2nx8lHzPzrRKrhe27nkQuGETkFNh6BcxtkCk4hXB9GKNIFRp+Pv10/bATKqG8vI7WzjfrtW/s6NAB0mcl4Vm+l9KdJ8GD6w/cPBuuO0UArAJS7mcd+MmA+10w1LJYdWOprgAfTnCj/LwZWOD1OHlqaSDX8wO0kckALBaI/ho0lUJN/Ngrj+mC0iXx8u8Buyo/FN+pmnXt/f0Wu0L9/MFgf1kB/Qf5M/gDgA9FDhhEZLTuw4wUAsC7dne4+B8A7zo+VN971d/nnoOcQnIJVVRUJhIORvxDxTejbu7D9VSFdH0K7Zld0dfb5syuFjw/nPuVe6JPg4RTy99eQvh253/DXGxWw8ThwotRHEjkoAIBduzbvsphOB7A5F+O5rNGG/1S3OjvlimHUHmel8SYDp7mdi8cU1PVBgud/PLanHRZnv43AYsZje0VXiqmhr58s5EmwNwrx+xtG9BwAs3M5ZpYmGYGmb8gMmJMCAABSqViTDetzAD7M1Zgu2Kz59JnJ5PpmtxNxkhGMXgPWXgEwwu1cPKbgrg8Gx0Q+H89048E92U/kD+xpQ0NasFcKQSj3QpwEs1FI398wjh4Im3+Xi7GEEG4MBuvDssLls7A2YwAAHutJREFUrAAAgGRyU6PF+jQU5uOAty3Wp27fvqEwtiUfxNChtYNCwbpFAN8qsvGrnyrQ64NeF43ws9adeDWLRwGvdnXivyX06yAWz72QJsG+KJTvT3bnZQCqnR5HgnLijLRN9TktAAAgldqwvSvdfQJAr+R6bAct685kTkilNkjtHZxPQqHo0UW69r8EOs/hofYC9GUiLHB4nFwq3OtDs5YBEHoVMM2My1oSWNjR9qmPAzIM3NvRhstaTKTF39C0NT8vE46CwpkE+6oAvr/G4GscjC8VEV89smL8ECmxZATpm4n+cKD95243jBHExLSgOTXs+17r4Z6NcLDuMgb9HoCc1ouHQEDcJpqdSMTeAQAjEJkDoj8B7EzvZ+f1i+vDCERWgzBZRqw6vx9zBpTh+JIBGK737HfaZmWwonMvHt/bLr7s/y+rzGR8mqxgQP94Re7TePX77+tX86zsuE5iov9MJGJ3isZxfeI1AnVngmghes5P9g5CC2z7MqdbNbqp52CnAb8F6IocDLcobdlXtrQ0tu7/Dw1j3FFkWw8w8Nkc5CBPP7g+PhEORr7GwG/dziMbTHx1ItFwl+y4Xp0EZXHy+3vB2DDhwsk+HB8ljBjSs8C+daeNlTHGI29ksLFZWnOx1WYyPkU0iOsFANBz2IKu8a05WF6W5XGm9DWJxIem24k4JRgcV6fBWgTgM44OROgG83VmsuH2Q/+hif5QoO0HRPghAL+j+chR8NfH/oYPqh+aLk5/BPdapmarrbi7eNRHu9915OAPVQT0vyLA7wNuPNuPuVM06NrBp1XLZjywysZPnk8jLb4eyKTbhmgL8bwoAD7R037RugOgOrdzOYRNxHxNc6pB6kmH+SYUqvsiMd0LYJCjAxF9BLIuMM3G1b354z2rAZlbGDTL0bz6rl9cHwfjpY6fuejAqIqA/lME+H3Aw1cWYXpd77bUvdpg46J7uoWLAAJd0JyMPSESI+ebAD9NIrFxSXkFjyfgGwCEenzKxMA2Zp5nJsvHFfbNfaLfCNb9DzEtgsOTPwEv+vw0obeTPwCY5ob3mpMNpzHZswC87WB6Wek/18ehZWz9FgB5OyHtp5V02/ENpgWwMU6Ik98/39x4tr/Xkz8ATK/TcMNZ4v18mPg40Rh5tQKwv3rUF6UC6UtA/F0XVwTeZebflZal79+8eXPfW5Z5QNXQMSMs3fc4wMLPlQ7DAvgnZrLh5wBsgTgUDEZnaeBvA5gJd67lfnN99EYoEJlPhFvczuPT0bVmMnZbrkZTKwGFvRIwNkxYOr/okMv+h2LZjJm3pBEzRW6B+KuZjJ8hEiBvC4D9UDAYmaYRLgFjNpw/X34nMRYT8T3bkw394gyDfSdfPQQg4PBQCWi40DTjf5MZ1DDGHUWWfSlrOB/MI2XGPoh+d3303kS/EWx7HcBEtzM5KMIaM1E1LddvZKgioHCLgJvO8ePKGX3rgv6HVyz85DmRt1q4wUw2RAQCeKIA+KeampqSzo6ik0E4hRknAzga4o8xLADrGVgJ4mcTiUHLgXXS3jXKc3o4FLmeGT+Cw4+DGFhpM81JpWJNDg5DodDYKcT22QDNAHgSxDcN9ufrI2uhUO0YYm0dgAq3cznALmg0wTRjrnQiVUVAYRYBy68rQiTct1vnxmbGyTd3iQyfMpPxoEgATxUAB6quHluZydifJRtRBsYCFAHYAFAOwmAAZWAQgHYwWkHYw8BmAjaB8QFr/F4mw28c+OpZf2AYY0Kw9IdBmOnwUMxMtyRSw36Q619eVVVVpXZ3+WQQH8ngWoAiYIwCoRTYd330UNeHREag9iyQ9jTcP0v9ExkCzmlOxv/qZhKqCCi8IiD+8xKUFffts+1dQOQHQk8Osz7O+kCeLgCUvgkGI9M14DE43/pyFzS6zDRjnmqyoYgzgtErAL4H7t9jmIDLm5Px+13OA4AqAgqtCPB6AZBXbwEojqNQIDJfA5bB4cmfQW9Cw0Q1+fdPZjJ2L0BXAnCzA2ImnyZ/QL0dUGhvBzTt7Psmvm07hZsCtYkGUAVAPzFkyOgKIxB5et8ubWeXZonuLh3YNc004x84Oo6S18xk7F4wnwtgtwvD79q37J83k/8nVBFQOEXAK/G+T+IrYkJvAABg4UZWqgDoB4LB2s8W+XzrQPiCw0N1MNFcMxGbp16LUwDATDUshoYJANbmbFDCGmg0we1n/p9GFQGFUQQ8stqCZWdfBFg245E1luDo1CAYQBUAhc4IRL6iQVsFYIzDQ20g3Z6cSMQecngcxWNMM/6Bmayagp5OgcLLlp+iFaBrzUTVNLd2+2dDFQHeLwJipo37V2U/kS98zUK8WXAFgBATC+D+Bh3FIT074MvuYsJcxwcjPGqz/6v5vPlIyQ+h0BGGZhd9h4nn4V9vYYhqY+Y7SbcXmOamhKSYOaM2BtaXacgsBvgEt3PpC78PeOjKIhzfy26AKxtsXPzHbqQFFwAIdH5zMrZILIZScKoqI2MtjRcBdJTDQ3UR4dvNifjvHR5HKTAjK8YP6S7u+hIz5gKYjOzvRQzgdSZ+sKSr5HGnDvbJlf5eBNSjvigVTC8AcDWAvnXWcZHfB9xwlg+XTtUP2RUwY/X88v/p4rTw5A/A1v0wmpriKZEgqgAoMEYwcgGAPwIod3iozRrT7O2pWO6e7SoFKRyuDcLST2Li45gxFsBoAgKgfdcwo42BFIAPNMIGMK3W/LxM9OaXb/p7EQAA4XBtPVt0JZg+B0INvHPCJAAgEtZw4bE6ZkQ1jBjSM71u3cl4JWbh0TW2+LL/v6wyk/FpokFUAVAwTvQZwaafAXD0lLN9/uLv8l+yrXV9Sw7GUpR+wzCOHgh772KATnQg/CqL6bRUKubkPgzPMQLRs0HsqdeVmfjqRKLhLtE4qgAoAMOGjRtlW9YTYBzr8FAZAD82k/FfoWcJVlEUydRKQM5p4WBkAwNCffVzqK24u3iUjMde6i0AjwsH6s6wLevNHEz+CWg43UzGfwk1+SuKY5LJ9e2slZwG8HLZsRmYriG9JBCIOv2I0EtsEHJ2QqQEv5e150UVAN6lG8HIfzPR82AMdXYoXm7D/xnTjL/s7DiKogCAab7TYaPoLIdekZvqI/5rPr8imGtMJfcD2Op2Hr3QCs36jaxg6hGAB4XDtUG2tIcBfM7hoRigO8xk2XfUCXiKkntqT0DuhIORzzPwF7fz+HR0rZmMSVutUAWAx4QDtScwaY8CGOboQIQWsvmS5lRDnv8PoSiFTe0JyB0jGHkcwPlu53FQhDVmomqazFNV1SMA7yAjGPkvJu1lOD/5r9F0fYKa/BXFff29Y2AuMaW/CeBjt/M4iF0gmiP7SHW1AuABIyvGD+kq6noAwJk5GO63gaR//nqs787BWIqi9JJaCciNUCjyGWKsADDI7Vz2yew72Er62RaqAMhzwwLRSTbxIgA1Dg/VBuArZjL+uMPjKIrSR6oIyI1QqPZUYm0xAL/LqbCTR1qrRwB5LByK/KdN/Cocn/z5Pd3GsWryV5T8ph4H5EYi0fgSNJoNoMPFNDJOTv6AWgHIS8FgfZlG6T+A8SWnxyLGg1pR+7ympqY9To+lKIocaiUgN6oCtRMs0p4DUJ3joXcRcJHTR1qrAiDP9PTC1hYBGOfwUJ1gfNNMxf/o8DiKojhAFQG5UVkZqfbpeACMk3MyIGENiObk4khrVQDkkVAgehER3w2nD8BgbCHG+c074mscHUdRFEepPgG5YwRqz2LSfk/AcIeG6CDQT5uTwxbI3u1/KKoAyAM1NTUle/cU3wrmqxwfjPFMt5W5bOfOD3Y7PpaiKI5TKwG5M3hwzeBif/F3AP4KgJCksG3MfCfp9gLT3JSQFLNXVAHgMsOIjGabFhF4gsNDZZjxX4lU/DdQvfwVpaCoIiC3amtri1tb9dka81UMHAfAl2UIBvA6Ez9Y0lXyuKze/tlSBYCLDCN6DmxeCGCww0N9bANzksm4E33FFUXJA6oIcEcgEC0nwjQNPAPAJAZGUs/qQDkINhhtDKQAfKARNoBptebnZU1N8ZTLqXu7AAiHa4O2jc8SU5RBY4kRAcFAzzP0ISAMxP9v796joyzvPIB/f+87k0xuJCQzmVzARpkkYGq9cRYLinerVWzdXaqr1qqHqj1H11aqtutuLba6u3rY1q4e19a1WqtVevHaolJEtCp6Dt4RMgmCCjFzgYQkExIy7/vsH0CXYwUTnuedd2b4fv52fs8vCcfnN7/npiAAhqAwAMGwAjYKpEugupQr7yFQ+moi8XaOj3qcEKgPf3yLiPouvP4bKPwZtnNBrltLRJR7LAJoIgqqAJgyZUrZ2EjoFIicBMhJAA6D/s8wBmC1UvIiLDyeTHa+DA9b5OFwe5Ml6mEBjvNqjF1cEfy4Nxm/CYDj8VhElCdYBNB4FUIBII2R1uNcyEUA5sP76xk/EsFvlVj3JRLr3jEZOBptOxkuHoK5zSN7k1ZiXZhMrnvG43GIKA+xCKDxyNsCIBaLlQ70y8Uici2Aab4kofBnEfykNxVfCr2ugBWNtP4LID8EYJtJbm/kFdvJntuzdX0hvG1NRB5hEUCfJe8KgJ1t/vIrIFiI3N++tDfvuJDrUqnOpyf6webm6XXODvfXCjjdi8T2oAB1eyI16Tpg9ZjHYxFRAWARQPuSVwVAQ7j1TCXy3wAO9juXvVgGy1o43qWBaDR2DJT9CJQ6yOO8BpSoS5PJrt97PA4RFRgWAbQ3eVEANNVOm+pY9s8g+KrfuYzDmAhu6U1W3byvb9rRSOs/Q+Q2KJR4nM9bLuz5qdTaLo/HIaICxSKAPo3vBcCus/C/BDDZ71wm6E1Y1kWf7AbU1sYmBW3rHuzcsOgxdW+wdPuVmzZt2u79WERUyFgE0Cf5WACcEIhGen4M4Dp/89AyIsAVu59rbKxrneHa8jsoHOr1uFC4OpGO/9zjcYioiPDtANqTLxPvQdWHTd5RMvqEF5WoH0SwWCl5D1B3ACjzdCwg7orMTyY73/ZyHCIqTuwE0G45LwDC4RmNtjhLARye67ELnsLjo9kdF/f3b+z3OxUiKlzsBBCQ4wIgEpkWs2AvA9CSy3ELnmAHlFyXSHXe7ncqRFQc2AmgnBUA4XB7ky3qJXDynxAFbIJY5yaT6172OxciKi7sBBzYrFwMMnnyIdW2qD+Ck//ECJ6DjM3k5E9EXkgk3s7AKjsLUM97EH62LerpcLi9yoPYZIDnHYAOdJRsiYwtL5YNfzniKCWLkunOmwG4fidDRMWNywEHJs87AOnIjls5+U9IWon75WS680fg5E9EOZBKrRlSVuh0LzoBCjjWwtgz7ATkH087ALsu+XnU63GC1bWo+vwRqIgdilDzQSitb0SwqgZWKAQAcEdGMDbYj9HkxxjZ/AEyXe9h4N03kR3o8zKtCVPAi66S89Lpzh6/cyGiAw87AQcWzybmptppUx3bfgse3fBnV1ahbs4pqJt7Gipi0yceQClk1q9D+oVnsfWl5XCGfN2nokTJ4t504/eB57N+JkJEBzYWAQcOzwqAaLjtUS/u9i+ZXIfovPMQOeUsWKUhIzGdke1I/fkpJJ56GGN9W43EnIB+WHJxItH5eK4HJiL6NCwCDgyeFACRSPvpFtRSkzHFthE57atoPvdS2GXlJkP/lbtjBL1PPIyPH30QKuv9F3EB3nDFnZ9Mdq/3fDAiogngEcHiZ7wAmDJlStnYaPkaGHzSN9TYjEOuvhHlB7eaCrlPw+/Hsf6nizCa8HApXuTusvLRb2/cuHHEu0GIiPYfOwHFzXgBEA23fQeC/zIVr2bmHBx85fdhl1WYCjkuznAGG+64Bf2rjR/BzyiRK5LJzl+bDkxEZBqLgOJltACIxWKlg9us9QCaTcQLn3wmPrfgOxDLNhFuwpTj4INfLEZ6hbHVjBGx3Zm9vd1rTAUkIvIai4DiZPQegIF+uRgGJ/+Wby70bfIHdu47aLn8WoRPPMNUyJDr2jWmghER5UIqtWbIQfAMAf5iOrYCjrUxtjQS6ag0HZv2zWQHQKKRti4A03QD1cycg2kLF/k6+e9JOQ66F/8btq1+xUS4RxKp+HkmAhER5RI7AX+rtjY2qcS2jlXAXCjMhOBzAOoAVEOQhUJGgBSgNihgLSCrYDkrEon1Sb9zN1YANEZa57qQlbpxQo3NmPHvd+d8zf+zOMMZvHf9ZRhNam8MHHOUtPCyHyIqRCwCgJaWltBIpuRcBVwGYBaAiX5bVVB4TQQPBEaDv9k0sCbn588Bg0sALuQi3RgSsHHI1Tfm3eQPAHZ5BaZ9+wcQW7srEQxY6nITORER5dqBvBwwZVJHbTTS9h/bMyUfKeA+ALMx8ckfAASCWQq4Y6x07IOG+rbF4fCMRrPZfjYjBUBLS0sIwD/oxol+eX7Ojvrtj/Jp7ag//RztOEphvoF0iIh8cSC+HdAQaZ8/Vjq2FsD1AMIGQ1cqhWtscbsb6tt+2IGOEoOx98lIAbB9KHAqAK3NbSWT69D0j98wkY6nmuZfgmBNrW6YGZHIjPytdIiIPkMi8XbGRck8LzoBAGYHRP0pHzoBdXVtzdFI23MKagmAeu9GUuVK4cZ0ZOzl+vqY9l668TCzBCBykm6I6LzzjF3t6yW7rBwNZ+l/gRflnG0gHSIi3xT7ckBjePrRAQuvATgxh8MeLcpaHQ3H5nk9kKE9AHoFgF1ZhcgpZ5lJJQfCp34FdqXmv0kBCwAiKnjFWgTU17ed44q7EkBTrscGUA2x/hCNtF/q5SDaBUBDQywC4DCdGHVzTimIb/+72aEy1H1Rr+khwCzg6KChlIiIfFNsRUB9/fQvicISAH7uSA8A6h4viwDtAsB1cSQ0jxPWHX+abho5V3f8l3RDlNbXD80wkQsRkd+KpQiIRFqPEOX+FkDA67HGQQB1dzTc6kmLXLsAECXtOp8PVtei4hCtEL6oiM1AYJLupX7qcCPJEBHlgUIvAiKRjgYL8kcA+XQCIQCRX0ejbYeYDqxdACjoFQBVnz8CEE9eJfaWCKo6jtAKYQEsAIioqBRyEWBh7GfwZ83/s1TDxSPACUa7EgY6ANAqACpih+qm4JvK1g6tzysFLgEQUdEpxCIgGm3/CpDXd7TMjIZ7rjIZUP8UgKgGnY+HmqZqp+AXA7lrXyhARJSPCqkIiEa/UAFX3WkilqcEiyKRDq05d08GjgGK1h8g1DhFPwWflDZo586XAYmoaBVKESDuyMUw9JKtx6pEZa8xFczEPQBamyXsCt8vetpvAd27AFgAEFGRK4AiwFJQVxtLymMi6lsHVR822UQsA0sAmgVAqFw7Bb/YZdq5G/kjEhHls3x+OyAabZ8HSCFdzV45UrrDyJPy+XDOkYiIilwi8XYmEumY59FTwrNtUQPRSNvEP+kqY0lMbxCcPyuA49oFUyfv/H79UZ+LFzsVHno1i3W9ZsYSpS4CcJduHP0OgMKgzsedkWHtFPzibNfOXet3R0RUSLxcDvBTMADc8vdBLFtYggVzbbRHLZSXAOUlQHvUwoK5NpYtLMHN5wQRNPO1e9auW3i1mNgDoDWJZYcKdw7MDg3phijcH56IaD8UWxEQDAAPLijBxXNs2Nbe77SxLcElx9p4cEGJiSJA4NjaDxQZKACU1iw42rtZPwWfjPZu0g3BAoCIDjjFVAQsOjuIY1vHP5Ue22rhxnn6FYASdYxuDANLANKr8/GRno+0U/CLfu56vzsiokJVDEXA9AbB17848Wn0G7N3LhNo0byEDzBxFbCgU+fzma41uin4Zij+rmYEpfW7IyIqZIVeBJw/K7DPtv/e2Jbgn2bZmqMr7ZML+lcBa05iA+++CShzuzBzRSkXg2ve1Ioh0CueiIgKXSEXAXPb9v8dm7ntutOvaB8jN9AB0CsAsgN9yKxfp5tGzmW61iI7uE0rhrJYABARFWoR0DR5/6fQKZO1H8HTfrFQuwAIBKzXAWh9hU+/8KxuGjm3deUzuiHcQMB6w0QuRESFrlCLgEKmXQD09MTTAN7WibH1peVwR0d0U8kZZ/swtqxaoRVDgLc2b163xVBKREQFr9CKgJ4+d78/u6lPe+lb+xSZiXsAAMFzOh93hgaRXPakkVRyIbXsCTi6dwBo/s6IiIpRIRUBK+P7P4m/0Ln/xcNOqk8zgKECwFXak1niqYfhjGw3kY2nnO0Z9D65RD+QwnL9IERExadQioCHVjlw9uMqYcdVeOg1R3N06dIMYKYACIa2LwegtSNurG8rPv7dfSbS8VTPkl8iO6BdePVVVrvsABAR7UUhFAGdCRf3vzzxify+lxzEezU7AJpH8AFDBcCmTZu2A/itbpzE0t9j+P24gYy8keleh+Qzj+kHElnS3d09qh+IiKh47S4CAFnpdy57s+jJLF7sGv9k/mKXi5uezGqPK0pe0Y1hZgkAgAv8SjeGyjpY/9NFcIYzJlIyKpsZwvu33wTl6LZtAAU8YCAlIqKil0qtGQqnAqcBuAOA/v+ADRvLAhfeswP3/iW7z+WArAPc84KDC3+xA2P6P4VrBZXeTnQA2gcR94wVjbTFAcR0A9UcPRvTFt4EsXVvSjJDOQ66b7sB2954VTuWAPHeVHw6NI9OEhEdaBoaYh3KkQVQcioELQAq/M5pT20NFs7/Oxtz2y1M3XXO/6M+hZWdDn7zmqvf9v9/LydS8Tm6QUwWAIiG2y6D4G4TscInnoGWy68FxGiKE6cUNtz1n9iif+5/F1mQSHX+r6FgRESkIRpuPxuiHvc7j4lQor6VTHb9j24cY0sAAFBV496vAO0n8gAgvWIpNt59m5GW+/5SjmN28hf5MJwKsP1PRJQnEunOpwTI381nf2swNBp6xEQgoz32rVu3OpUVYRfA6SbiDW/sxvDGLtQceQysYImJkOOWzQzh/Z/8EH2rzO09EeCGDcPrVhkLSEREulRlZZ0L4Ey/ExkPpdTtPX1rjVycY7QDAADB0szPAaw3FW/b6lfw3vWXYXh97q7Nz3Svw9rvXWZkzX83AeKV1e49xgISEZERSkL3AyiEt+kHxHYXmwpmfJfdwMBAtqIy0ilQF5qK6WQGkX5+KbKDA6hs7/CsG+COjmDzknvxwd23ITs0YDS2AF//cFNX4b16RERU5DKZxFhVRV0ngAv8zmXf5PpEssvYHTKe7bCLRtr+AOAc03GD1bWInv01RE45G3aozEhMZ/swUsueQO+TS0xc8vNpliRS8XO9CExERGZEI22PAPia33l8KsFriWTTHOB5/UsE/hrSI02106Y6AftNKNR6Ed+urETt7JMRnnsaKmIzJn5aQCkMdb2HrSufwZZVK/Tv9t+7tKPk8HS6s8erAYiISF99/cFRUcHVAJr9zuUT+mHJUYlE5waTQT09Y7freMVjXo8TmFSDqo4jUNnagbLmqSitb4I9qRp2qBwA4IwMwxnYhtFkD4Y3fYhM1xoMrnkT2UGt24vHQwlwVm8q/ievByIiIn319W2Hi8ILACb5ncsuWQG+4sU84vkh+4b6tsVK4Rqvx8lHSqlbk+mu6/3Og4iIxq++PnaaKOspAEGfU1ECXNKbit/vRXDjpwA+qTdZ9T0FvOD1OHloRTI96V/9ToKIiCYmmex+FpbMB+DnvfRZLyd/IAcdAACoqWmpKQ2WrATwhVyMlwfe2pHNHt/X977nawxEROSNpnDsKEesJ5D7PQH9Alzg9fKx5x0AAOjv39jvKDkDwMZcjOezDY6yz+DkT0RU2HrS3a9nXcyCIHfPtwtegyVH5WLvWE4v2o9EpsUs2M8CODiX4+bQBiXuqclkt7GLkIiIyH/14fYLRNRiAFGPhhgA5AeJVOOdJo/67UvOX9oJh2c02uI8jeJbDnjLUfYZ6fTaj/1OhIiIzNu5nF36XUB9E0C9obCDSqm7xHYXJxLrk4ZijosvT+3t+iU+Bqjj/RjfAyt2ZLPnsO1PRFT8YrFY6cCAPd9S6nIFHAMgMMEQCsArStQDodHQIx9ue8eTG+g+i49v7R4dbAgP3aJELfQ3Dy1KKXVbMt18Q65aNkRElD/C4fYqEcyxoOYCmKmAg2Rnd6AKAhcKgwpIA3jfEqyFklVWUK3o6YmnfU7d/4k3Gm49CyL3AajzO5cJ2iJKfaM33fVHvxMhIiKaKOOPAU1UZnhrPFRW96CIOkggh/qdzzgtcZR8NZmOv+53IkRERPvD9w7AnhrC7ScqUXcCmOF3LnvR7UKuSqU6n/Y7ESIiIh05uQdgvHrTnSuqqt0jBbgK+fQ2s8iHAlxZVe1+npM/EREVg7zqAOypAx0l6fDYRRB1HSCtfuQgQFxBbg2nAg+swZodfuRARETkhbwtAPbUGJ5+tCvqIkCdDyDs8XDbROEJZeNXiUR8OXYe1yAiIioqBVEA7NbS0hIayZScBMHJSuEk7LxMSHcZwxXgLQieg8Lyymr3ue7u7lED6RIREeWtgioAPqm5eXpdNuseKS7aFTAdkDZARbHz/GUNgMpd/+kQFPoBDAKSAFSnCNYpQTwQsN7YvHndFv9+CiIiIiIiIiIiIiIiIiIiIiIiIiIiIiIiIiIiIiIiIiIiIiI6kP0fRO6Bj1AWr4kAAAAASUVORK5CYII=;" parent="1" vertex="1">
          <mxGeometry x="1255" y="520" width="50" height="50" as="geometry" />
        </mxCell>
        <mxCell id="S56HPxfW4hmjYXF7Ifkf-105" value="" style="shape=image;verticalLabelPosition=bottom;labelBackgroundColor=default;verticalAlign=top;aspect=fixed;imageAspect=0;image=data:image/png,iVBORw0KGgoAAAANSUhEUgAAAgAAAAIACAYAAAD0eNT6AAAABHNCSVQICAgIfAhkiAAAAAlwSFlzAAAOxAAADsQBlSsOGwAAABl0RVh0U29mdHdhcmUAd3d3Lmlua3NjYXBlLm9yZ5vuPBoAACAASURBVHic7N15mCRFnT/+d2Rm3X3fcw/McA/HosggCoioiIiLuKyiu6wrNy6uAh6wfu3friCCuuvF5YHueiBe6HqLKCgMN8N9DnP2fXdX15FX/P7owZ2BYaa7MisjqvL9eh4e5lEq4zPdVRXvjIiMAIiIiIiIiIiIiIiIiIiIiIiIiIiIiIiIiIiIiIiIiIiIiIiIiIiIiIiIiIiIiIiIiIiIiIiIiIiIiIiIiIiIiIiIiIiIiIiIiIiIiIiIiIiIiIiIiIiIiIiIiIiIiIiIiIiIiIiIiIiIiIiIiIiIiIiIiIiIiIiIiIiIiIiIiIiIiIiIiIiIiIiIiIiIiIiIiIiIiIiIiKh+CNUFzJe8D8sgYamuoyImPCQxo7oMqjE2fPFqTKkug4jqk9YBQK7HEtfBj6WLIyBhqK5noYQJiKSAYQnNf9KksRKAbVLiD4YhfoYnvN+J0+GpLoqIap+23ZJ8AKtcF49LH2nVtVRCWAJmVtsfL9WomUk5Jn1xU/Pr/Y8KAam6HiKqXdr2UO592Oy7WK66jooIwGowNP7pUq2aGpMoFyWSaWyxXBzedALGVNdERLVJy2F1eR8Oq9nOH4CR4JA/VZddwnIb2DJzJw5UXQsR1SYtA4BrGKepriEQU3UBFAeui2y5jIfzd+Ew1bUQUe3RMgAIgVbVNQTCu3+KiOshWSzinvwdOFh1LURUW7QMAEQ0f56LVMnGAxwJIKKFYAAgqgOuh2SpgHsZAohovhgAiOoEQwARLQQDAFEdYQggovliACCqMwwBRDQfDABEdYghgIj2hAGAqE4xBBDR7jAAENUxhgAieiUMAER1jiGAiHaFAYAoBhgCiOilGACIYoIhgIh2xABAFCMMAUT0IgYAophhCCAigAGAKJYYAoiIAYAophgCiOKNAYAoxhgCiOKLAYAo5hgCiOKJAYCIGAKIYogBgIgAMAQQxQ0DABH9FUMAUXwwABDRThgCiOKBAYCIXoYhgKj+MQAQ0S4xBBDVNwYAInpFDAFE9YsBgIh2iyGAqD4xABDRHjEEENUfBgAimheGAKL6wgBARPPGEEBUPxgAiGhBGAKI6gMDABEtGEMAUe1jACCiijAEENU2BgAiqhhDAFHtYgAgokAYAohqEwMAEQXGEEBUexgAiCgUDAFEtYUBgIhCwxBAVDsYAIgoVAwBRLWBAYCIQscQQKQ/BgAiqgqGACK9MQAQUdUwBBDpiwGAiKqKIYBITwwARFR1DAFE+mEAIKJIMAQQ6YUBgIgiwxBApA8GACKKFEMAkR4YAIgocgwBROoxABCREgwBRGpZqgsgovjaIQQc2XA01quupyb89F9brMTsgTCQUNG8MNJFJ5cbjaQx1yvguGuGICAjaS9mhOoCdsV90PiKX/YvVF1HpYysgGFp+aOlGjc1JlEu1t93oWXCTmcZAnbHvPWskyy//HWjXF4EBf2hn8zAaW6Hn8hE23NI9MHAdciMXo1X3+hE2HLd4xQAESnH6YDdS/zs7LOTpZlfGOWSks7fyzSi3LkEfjLizh8ABJZA4tModP4CD5yjZNSjXjEAEJEWGAJewW8+0GaWZ66D9JUMK0rTgt3aDfUDxvLNKHR8XHERdYUBgIi0wRDwcomy8f8JzzNVte/mmgGhuvN/kfwgbvk7ZT+LesMAQERaYQjYmfCdI1W2LxMplc2/hOjCkn2Xqq6iXjAAEJF2GAJ2IJFV2ryhWTfhGk2qS6gXmv1miYjmMAQQVRcDABFpiyGAqHoYAIhIawwBRNXBAEBE2mMIIAofAwAR1QTXQ7JYxD35u3Gw6lqI6gEDAFENMWP+BLTnIlUs4H6GAKLgGACIaohWj2Qrsj0E3DtzF7pU10JUy3gaoMae8dvxJ3sZBmQDypK/qqA6jQL2M8dwfGIzMnBVl1ORVFogkZRwbNWVqOW5yNgOHpYSy4SAr7oeolrEXkVD97mLcXHheNzlcsOramgWZVySuReXpu9FEp7qchZGAM0dBqZG/diHAKeExdN3Gl8GavfkUCKVGAA089/2GpyTfytsxHyyt4qmZAqfLByD3zsr8bOGH6NZlFWXtCCGAbR2GSgVJOwi4HlSxQFxWnCl/Ce5EReLvVBSXQtRrWEA0MhtzkqclT8JLpdmROJOZznOyL8Dv2i8Rfk5Z5VIZwXSWUD9KW1KZTFrnAp431ddCFGtYU+jCQcGLii8hZ1/xH7t7I0f2AeoLoMC8CFPUV0DUS1ib6OJX9qr8LzXqrqMWPpi6QjVJVAAAniL6hqIahEDgCZ+665SXUJs3ecuxrjMqC6DKtcqnwNPiCNaIAYATWzymlWXEFsSwBaf/UdNK2CR6hKIag0DgCZMEdNl3Jow4rqMvl4kkFNdAlGtYQDQxEoxqbqE2DIhsdyYVl0GEVGkGAA08dbkBtUlxNZR1ja0CD5GTkTxwgCgiRMTL+Agc0R1GbF0Sfpe1SUQEUWOAUATJiRuyP0WKVFjW9PWuHcln8EpyedVl0FEFDkGAI281tqG7zX8DFk4qkuJhbclNuBbDb9QXQYRkRIMAJo5NfEs7mv+Nt6W2MCV6VWyyMjjK7nf4WeNP2LYIqLY4lkAGjrQHMX/Nv4QA34D7nSXod9v4OFAIWgXRRxgjmGt1QeT4YqIYo4BQGOLjDz+PvmU6jKIiKgOcQqAiIgohhgAiIiIYogBgIiIKIYYAIiIiGKIAYCIiCiGGACIiIhiiAGAiIgohhgAiIiIYogBgIiIKIYYAIiIiGKIAYCIiCiGGACIiIhiiAGAiIgohhgAiIiIYogBgIiIKIYYAIiIiGKIAYCIiCiGGACIiIhiiAGAiIgohhgAiIiIYogBgIiIKIYYAIiIiGKIAYCIiCiGGACIiIhiiAGAiIgohhgAiIiIYogBgIiIKIYYAIiIiGKIAYCIiCiGGACIiIhiiAGAiIgohhgAiIiIYogBgIhIb57qAvQiXdUV1AsGACIinRlim8rmheuobP6lPKSsPtVF1AsGACIijXlW+loIde2bxVl1jb+UwO1Y2zutuox6YakugHbtUa8L3yofjDvc5RjwG1CWpuqSSCMZ4WKFMYUTEpvwgdQjWG7wO7FeeSdf90vvJ//0qFmePURF+2YpD6NcgJ/Kqmh+R0UY+KjqIuoJA4BmytLEhwsn4MbyYfBVxn7S2oQE+v0GrHOX4JrSkfhk+i58PLOO75g6ZSeSRyWFuNcs5deoaD85PgintRteOqeieUBiCIbxPhz96fVqCqhPDAAacWDg7fm/w23OStWlUA0pSQuXF49Fn9+Ir+R+p7ocqoa331iwgYOT/3vO30rX/qCQcnHUJZj5SQjbHvSzDVt9M1GKpFGBMgTWw3B/iNddPRNJmzHCAKCRTxaOZedPFbu2fDhek+jHPyYfV10KVYn99htvBXCr6jqoPnARoCa2+Y34YvnVqsugGnf57LGwwfUiRLRnDACauMU+gAv9KLA+2Yg/OctUl0FENYABQBP3u4tUl0B14l53ieoSiKgGMABoYlQqf8SG6sQI30tENA8MAJpoFdEsqqX61yaKqksgohrAAKCJw6xB1SVQnTjMHFJdAhHVAAYATbwr8QxMSNVlUI1rE0W8OblJdRlEVAMYADSxrzmOM5OPqS6DatxlmXXIQqvDW4hIUwwAGvmv3G04xBxWXQbVqHckn8O/pu9XXQYR1QgGAI00CBt/bPoeTkxsVF0K1RAB4Nz0evyg4VYYnEYionniVsCaaRUl/KrxB/iFswrfLB+GPznLMCnTqssiDS0y8jjB2owL0w/iNVa/6nKIqMYwAGjq5MQGnJzYAAAoIMFdAmknWThICU91GURUwxgAakAWDrKCC7uIiCg8XANAREQUQwwAREREMcQAQEREFEMMAERERDHEAEBERBRDDABEREQxxABAREQUQwwAREREMcQAQEREFEMMAERERDHEAEBERBRDDABEREQxxABAREQUQzwNUHMSwJCfQwEJ1aWQRppgo8MoqC6DiGoYA4CGfAjcXD4AN9mH4g5nGVwO1NAuZOHgzclNuCD1IE5IbFJdDhHVGAYAzQz5ObwrfyrucpeqLoU0V0ACt9r74FZ7H7w7+RS+3vArZOGoLouIagRvLTUyIdM4bvoMdv60YDfbB+DUmdM4WkRE88ZvC418cPbNeMZvV10G1ajfOytxdelI1WUQUY1gANDEE14nbrYPVF0G1biri2uRl0nVZRBRDWAA0MSP7P0gVRdBNW9apvAbZy/VZRBRDWAA0MRjXpfqEqhO8L1ERPPBpwA0MSVTqkugOjEp06pLCJ3jJ+B6c3thlN00JAykrbl9EEzDQ8ooqiyPqCYxAGiiS8yqLoHqRGcNvJfKbhqTpXZMFNowUezAVLEVBacBBSeHgp3d/ucGFOzcfC/54GWfAwBMAxgFMCokRiHEmC/kGIA+SGyS8DcK29/0mcs+OFadvxnVAvnOM4+Rnn+DdJzV8H0LMsIJWAGIXA7IZYBEAhAiqpaHILBOQF4jvvalu7eXoh/3QeMrftm/UHUdlTKyAoa1sB/tl0uvwocKb6pSRRQnf2j8Ht6Q2KK6DADArNOIwenFGJxZguH8EgzNLMJ4sXMhHXu1zABiI4AnIeWj0pCPGdJ77IpLPrhZdWFUXfL0My/yp4v/BSmj7/+EADrbIFJKR3x9IfEh8Y0vfoUBoAoqCQCDfg6rJ8/jlr8UyEpzCs823wALfuRt214KfVPLsWliNbZN7o3+6WWYKTdFXkdAk5DyERjibgl5d0ok7u79yFnjqouicMiTz9jH97xn4Ptq+r7WZogG5eEXAHwhxTGcAtBEjzGLSzL34t+Lr1NdCtWwz2b+GFnnb3spvDC+D14YPQBbJvdC//Ry+LLm1xW3QIhjIXGsgIAtXXnZ565/CpB3C4jbfdv9HacPape0rC/DcdR0/oaYG/rXgyEhP8oRgCqoZAQAADwIvCv/TvzM3qcKVVG9+2j6XlyV/WNV2xgvdmDD6P54ZvgQPD+2H1w/diNWvoB4WAp5m+Ebt1mz/X/q7e11VRdF8+OdcsYgyk63irZFOgV0arXR2zgDQBVUGgAAwIWBfysci/8sHQGHT2nSPDSJMq7M3oELUg9V5fr908vwxODheGzgVRgvdlSljVolgWEB/ARC3PLcstY7f3j66Z7qmuiVeSefMQXHUTIvJbIZoL1VRdOviAGgCoIEgBdt8FvxP+U1uMNZhgHZALf2h1YpRCnhYpmRxwmJF3Bm6nF0inCPBh7KL8Fj/a/CY0OHY2yW+wrMhwAGJfBjAdxyxcXn/hlCcG8vzTAA7IwBoArCCABEUSu7aTw5fCjW9x+JDaP7qy6n1m2DwHc9R1z72Y+fq8cjGcQA8BJa9lIMAETR6Ztejge2vg6P9B8B2+OGVCHzJOQfDWHcmJgZ+CnXC6jFALAzPgVAFENSCjwzsgZ3vvAWbJncW3U59cwUECdIKU+wG3o2Xva5679oy+zXP3fpP+q/WxPVPS1vUzkCQFQdtpfCI/1H4K6Nb8RoQcliaAKmpZDf8lzrmqs/dvY21cXECUcAdqZlL8UAQBSukpvFXRuPx7otb5AlJ8M3px7KAL7tueIKrhOIBgPAzjgFQFTHbC+FezYfizs3vhklJwtoGvpjKgXgHNOS77/sc9ffJAz571d85Pw+1UVRfDAAENUhx0ti3ZZj8ecX3oSi06C6HNq9BIBzpC/+4bLP3XB9UvpX9V56/rDqoqj+MQAQ1Zmnhw/GL548HZMlrXYdoz3LAPLDthDnXHbNdZ+bSTmf+fJFF5VVF0X1i7vLENWJvunl+Nq9H8F3HjqfnX9ty0GITzXaqccv//wNf6e6GKpfHAEgqnF5uwm/e+Zv8XDfkZCc4q8jcrWUuOUTn7vuNtP0L/r0hy98SnVFVF8YAIhq2OODh+PnT75HFuwce/46JSBO8D3zkcs+f/0XZhL2pzgtQGHhFABRDZooduDbD/wLbl5/Ftj5x0ICEh9rtJMPXP75a9eqLobqA0cAiGqIlAJ3b34Dfv/8O6TrJtjxx88aKY27PvH5676SmjE+0dt7brinQFGscASAqEbk7Sb8z0MX4NdPvwvs/GPNEFJcZDfIBy+7+obDVRdDtYsBgKgGPDF0GL70l/8nnx05SHUppI/9Ych7L7vmut7e3l5+l9OCcQpAYz4EnvbaMejn4HN1dyx5XgLPP/tGDPQfAnAXP3o5C0J8ym7oed3lX7juTO4kSAvBAKChCZnGNaW1+GbpYAzLnOpySJG2koXTnutEZzGhuhTS3xulL9b/2zU3vufTl55zm+piqDZw2EgzD7k9OHTqA7iquJadf4ytnszgn57oYedPC9HhC/83l11z/ccgJUeLaI8YADSy0W/BW2dOxza/UXUppIzAUf1N+LvnOpH2+PGkBTMhcNVlX7jhpx+76oZm1cWQ3jgFoJF/zp+EEZlVXQYpkvQMnLqhHasmM6pLUcbzvLl/fB+e58L3fUjfg+dLAICUElLO/VkAEMZcSDKEgDANmIY5949pwjAMWKYJiBjeDEu8w7TkXz7+n9e9/aoPn79JdTmkJwYATfzFXYY73OWqyyBFGmwTpz/XiZ7ZpOpSqs73JRynDNtx4JRt2J4Dz3XhOC6k9ENtSwgBy7RgWQlYCQuJZAKpRBKJZBKmYYbalobWmJ5Y9/HP3XjKVZecc7/qYkg/DACa+Lm9WnUJpEhXMYHTn+lCk12HHZKUsB0HpVIJ5XIJ5XIZjutE2LyE4zpzbZZ2/v8sy0IymUQ6lUE6nUIymYKos9ECCfQY8O+87Jrrzrzy0vNvUV0P6YUBQBPP+jy9LY5WTWZw6oZ2JOtovt9xHRSLRRSKBZRLJfh+uHf1YXFdF67rolCY20xPCIFUKoVsJoNMJodkIlEv0wdpCPG9y6+5oeeKS8/9kupiSB8MAJooSv4q4ubAsSxOeaEdRq0v2JYSZbuM2dlZFAqFSO/wwySlRKlUQqlUAiYmYJomspksctkcMplMrYcBUwr5xcs+f/3iKy8+7+OqiyE9sNfRxGIjr7oEitCasRxOfqEdhlRdSeXK5blOf3Y2D9dzVZcTOs/zMJOfwUx+BqZhIpPNoqEhh0yqhsOAxMcu+9z1jcn84L/09vbqOTRDkamfccca94bEJtUlUEQOH27E22u08/d9HzMz0+jr34b+gT5MTU/WZef/Up7vIZ+fweDgILZs24LxiXG4bs3+vS+wcz3f7u3t5Q1gzDEAaOLUxLPoFDzYq94dNdCMEze1QtRY52/bNkZGR7Bl62aMjo3Ctm3VJSnjeR6mpiaxtW8rhoYGUSwWVZe0cALvsxu7GQJijgFAE43CxlXZP6oug6roiKFGvGFrbe3NUiqVMDg8iL6BPuTzM399Bp8ASIlCsYDBoQH09W/DzMx0bf18pDjDzvXcxIOE4ovpTyPvTz2G5/02fKZ4lOpSKGSHjuTwps0tqsuYn+0d28TkRKzv9BfCtm2Mjo1iYnISLc0taGxqhKiFs5sE3uc09DiQ8gMQtTYuRUEx+Wnmiswd+J/c/3JRYB05eDSHkza1oxYO8yuWCugf7MfQ8BA7/wp4noux8VFs27YV09NTNTEiIIH3f+IL1/+X6jooelp+I7kPGl/xy/6FquuolJEVMKxgP9oiLPzKXoU73eXY6jchL3koTC1qG+vE6qf3h6Yftb8ql8sYHx9DqVza839M85awEmhra0c2q/8W3wL49ysuOe9TquuoJu/kM6bgOE0q2hbZDNDeqqLpV6TltxIDANWDTeOrcdMDH5Keb2r7ZvA8DxOTE5iZmVZdSl3LpNNoa+tAMqn3Vs8CuPCKS867VnUd1cIAsDNOARBVwXihE99ff462nb8EMDk1hW19W9j5R6BYKqG/fxvGx8ZCP+8gTBL40uXXXP921XVQNBgAiEJWsHP49gMXYtZu0LLzt20bAwN9mJgYg+/rP0ddLySAqZkpbN22FbOFWdXlvBJTCnz3sqtvPEx1IVR9fAqAKESul8B3HjoPY4Uu1aW8jITExMQkpqYnAY0Xp4lsI0RzK0Q6C6SzEJnt/xYCsCwIc249jPR9wCnP/blchCzOAqUiZLEAmZ8CZqa0vNv2PA/Dw0NoyDWgvb0DhqHdfVgjDO+Xl3/+q2uvuPjCraqLoephACAK0c+ffA+2TK5SXcbL2LaDkVGNVvYLAaO1A6JjEURHD8yObojWDoiGFsAK/rUkALQaHrpK0/CnxpEfHsTs8BBmhwcwOzwE3/eC/x0Cys/mUSqX0NHeOXfWgFbEYinNn3/4C1947X9+5CM1uNMRzQcDAFFI1m1+Ax7qW6u6jJ1JiZmZGYxPjMFXeddvmDAWLYexZOXcvxcth0ilq9JUswksSwrkDAvItAGtbWhd+X/Hbfuui+mBbZjethlT2zZjcvML8BQFI9d1MTg0gObmZrS2tum2d8BhWT93A4B/VF0IVQcDAFEItkzujV8/+04JjZ6s8X0fo6MjyuabRa4Rxt77w1y+D8wVq4FEqqrtNRhzHX+Tufv/zrAstCxbiZZlKwEAvudiautmjG94FqPPPoXixGhV69yVqakpFItFdHf1wAphBCQsEvIfPnHNdX/+zKXnf011LRQ+bb6sdsTHAKmWzJSbcN26T8jpUrM2v3TbdjA8MgjHifZoXpHJwVx9EIx9D4G5eAUQwfy2JYDlCaAjEc79c35oAMNPPorhpx5DaXI8hCvOn2ma6Ozo0m1KoCwMecwVHzn/PtWFBMXHAHemzRfWjhgAqFb4MPDN+/4Vm8ZX7/k/jkihMIvhkZHoFsAJAXPZKpgHHwFz7wMAYw+34CFqtYCVSYFkFT5uUkpMbt6IgfX3YfSZJ+FHdeqhEGhraUVzU7M+xw4LbEkK6296P3JWtIkoZAwAO9NnrImoBt2x4UStOv+pqUmMT05Es8o/kYK15lWwDn0tRHO0X2wpAaxMCbRUMWsIIdC6cm+0rtwbTmEW/evvR98D62DnZ6rXKABIifGJcdiOg46ODj3WBUgst6X7NQCnqS6FwqPBO+vlOAJAtaBvegVuuOdS6fuG8l+2BDA2OoKZandOAESuCdbhr4V50BFVW8i3O90JgeUJQMVP3fc9DD++Hlvu+QsKo0NVby+dzqC7qwtGhKMquyMl/vkzl553k+o6KsURgJ0p/+LaFQYA0p3tpXDtXR/HaKFbdSnwfYnhkeqfSy8yOVivPhbWIa8BrOjPpjAFsFdKoF2HvlBKDD35CDbdeXvVFw0mEkn09PTAMrUYsJ2Vwjj8Mxef86zqQirBALAz7XagIKoFv3zqdE06fx9DQwPV7fytJBJHnYDU+y+BdfjRSjr/rAGsyUCPzh8AhED3QYfhNef+K/Y76VQkGxqr1pTj2BgY6IfrRLQGYfdyQvr/c84NN/B0sjqgRaQkqiXPjhyEB7cdpboM+L6PwaEBlMvl6jQgBMzVa5B43VsgmtTduXRYc3f+Ot6tCMPAosOOQNdBh2LrPX/GlnV3wHfD76hd10X/YB96uhfpcKDQazqm5SUAPqO6EApGx88UkbZsL4X/ffLvVZcBz/MwMNBftc7faOtE6l1nI3nSu5V1/gaAVSmBVZp2/jsyE0msfP0bccTZF6FlxV5VacPzPAwODcC2qxT4FkLgU//2n189QHUZFAxHADTWJxtxp7MMA34DHO2/AuOh9NyRcIodSmuYG/YfhO1UYfc6w4R1+NGw1r4RQuGcsymA1VVe5V8NmdYOHHrGWRh+/GE8d9uv4BYLoV5/LgQMYlHPIiQSSkcCUr5nXg8pj4MQ+h4sQbvFAKChx91OfLR4PH7r7AV+svSxOJ/CmX1dSlfO/nXYvwp3gUZ7FxIn/j2Mjp7Qr70QCQPYLyWQq9HMK4RA98GHo2Wv1Xj65z/CxKbnQ72+53kYGBzAokWLkVCwHmMHx1z++RvPvgK4UWURVLka/YjVrx/b++HI6TPxG3b+WjGkwMkb1e7VLqXE0NBg+MP+QsA6dC1S775AeeefMYA16drt/HeUamjCIe95P1a98a0wQh5N8TwPg4MD8KLanOgVSMirL/vPGxYpLYIqVgcfs/rxF3cZ3ps/BUUOzGjniKEGdBTVLnweGR1GqVwK9ZoilUby5Pcicdzblazu31GjCRyYqc6ufqoIIbDsyNfjb848D+mQN0uaO0hoUPWRx83w5JUqC6DKMQBowoPAubNvgY0am/SMgYxr4LX9zUprGJ8Yw+xsuIf6iNYOJE8/b277XsUaDGD/lKjb6NvYsxiv+sCFaNt7n1Cva9s2hoaHVI8W/uPlX7juNWpLoEowAGji187eeMpTu7iMdu24rS3IuOo+KjPT05iamgr1mubqg5B6z4Uw2jpDvW4lcgawf0Yo2dkvSol0FgeffiaWrT0m1OsWi0WMjUV/guEODOmL/4KUdf4brD8MAJr4jb1KdQm0C53FBA4dbVDWfrlcwujEWKjXtA49CsmT3gOhdhU5gLkNfvZPi9iMewnDwKrjT8R+J78Twgzvbz0zM43p6enQrleBoy7//A3vVlkALRwDgCY2yRbVJdAunLC5FYai8VXXdTE0PBTewT5CIHHsyUgcd7IWp8xlDIH90wJx3DV70SGvxpp3/QPMEDf1GR8fC32NyEJIgat6e2+K/nAIqtjOU273ls+AZ/wtBFTc8rhI4DmYGD1PfuPwvRIbqt5ghxzFG73bsVxurnpbexLF4W20MMtmUthrWtH3mZQYGR2G53nhXM8wkDzhVJgHHB7O9QJKCmD/NJCIYef/ovZV++LQM87GYzffBKcUfL8ACYnh4SEsWbwEpoo9HCSWOzn7HABfir5xqsTcx+8eeYhwnT/CRZuSKhIAslByV2LCw7nuDfisfSmSCGdjlUoOA7pg9i24vvw3obRP4XjfU11YPqMmAIyNj2F6OqR5f8NE8q2nw1y9JpzrBWQAODAtkIvLuP8ezAz249Gbb4JTLF6DngAAIABJREFUCGeRZyadRk/P4lCutVACGEzkxare3nPD3QEpJN7bz5iE7ShZ0SuyaaBdTRf7CnwDD8hFwnbvU9r554SyIUkPJq61LsDZqa8raf9Fb0m8oLR92tleUxllnX+xUMD0TEjzuYaJ5Nveo03nLwDsnWLnv6PGnsU47L1nwcpkQ7lesVTC1NRkKNdaKAn0lBvlBUoanw9hVP+87FcgPaWPa+7KoCHKzs3wZUpZCRk9xgBvNt+D283jlbV/UnID9jHHlbVPOzumT81jf57nYWRsJJw5IcNA8i2nafGY34sWJQTa6/VZvwBynd047IwPwEpnQrnexMQ4yorWAwiJj330s9+o3vGIQVjm7cratm3A1ycESOC3BnyxVlkFJrRahvgj83RlbSfg47rsb2FBnzdIXK2azGBJXs0K+ZGxkXDm/YVA8o2nwtz30ODXCkmLCSxV/+CBthq6F+Hgv/tHmIngGzJJACOjI6o2CeowTfdCFQ3viZFx/wUJU81pShLAtLIBiJeaMQz/CgOeVPeRNPW4+3/RC2Jvpe0fn9iMbzb8EikR0sIvqsjawSYl7ebzMygWwpk6Taw9AeaBeiz4A4C0IbA6pXIj5drQvGwFDjz1DAgj+J2R4ziYmJgIoaqFE5D/quMTAeK73502kqk3qwoBcmYWciavoukdTQgpTxU3fnmD2sE4zVa+20L97cn7kk/gAHMMl8wejzvc5arLiZ2e2SRWTEc/I+Z5HsYnwpkCMg88HNZrjgvlWqEQwKqUdnlfW+2r98Oq49+K52/7ZeBrTU1PIZfLIZWKvC/uthtLZwD4ZtQN74n4ybfvlO99b5dfSH5VeN7xUsomyAjHomeLkLY7KxoyY0gmixAiqmGaIQFxNwzzBnHj50cBQIg/2eq64YQAcspaf5mj/btwe+m4wNep5CmAXXnea8Wf3OXo8xtRkpw4jYLx1FqIkeiD1/DIUChb/RpL90bq1H8CDH1W2S1JCixVe8xATXrudz9H3wP3BL5OMpnEkkVLVCy0fjqZHzyot7eX85qaYq+isdXmBFabaobw4miq1IovjJ6GqCdgCsVCKJ2/aGxB8qR3a9X550xgKb9lKrL6jW9DfmgAU1uD7VNi2zampqfQ3Bz5ZmP7lxt7TgTwq6gbpvnRaAkekVrrNr0Bnoy485QS42PBt/oVpoXkSWdAZPQZUjMFsDoFcOK/MsI0cdA734tUY/AnUianJpQcHSwkPhJ5ozRvDABEADzfwsN9R0be7tTMNBzXCXydxDFvg9GzJISKwrMsAaQ12HK4liVzDTjwHX8feFGg70uMq1kQePy/XX19uEcgUmgYAIgAPDF0GGadaB9d9nwPU5PBN2wxV+4L8+AjQqgoPFkD6IrzPr8hal6+EsvWHhv4OvnZPMrlyBe/C9/EB6JulOaHAYAIwANbXxd5m1MTk/D8YCsORLYByTedpsXhPi8SAFbykb9Q7fX649G4OOAIj5QYD/lkyfm1i38654YbuAxUQwwAFHvjxQ5sHI92lNJ1XUzng2/3mzz+b4GsuuOKd6XdAhr5zRIqYZo48JTTYVjBVlSWSiUUi8WQqpq37vYZ+faoG6U948eUYu/BrUdDRny/Ojk1CRlwu19z34NhrNJnm19gbuHfsiTv/ash09aJFUcfF/g6E5PjkR8/KiDPirRBmhcGAIo1CYFHBqKdP3ddF/mZYFuCilQaiWNOCqmi8CxOzB31S9Wx/Kjj0NC9KNA1yuWyglEA8ebL/utr3RE3SnvAAECxtmVib0wWoz0Ic2pqEjLgNpjW606EyKnZsviVJAXQw4V/VSUMA/uc+A6IgGs+JqYifyLAlJ7/zqgbpd1jAKBYe3ww2v3yfd/HTD7YXuBGRw+sA18VUkXhWZzkF0oUmpcsR9eBwQ55KpfLKJUiPi1QSnWnrdEu8fNKsSWlwBODfxNpm1PTU4FPaLOOPRkI4bCYMCUE0BnC9tc0P3sf/xaYiWBnl0xNT4VUzfwI4JiPfvbLiyNtlHZLr28RoghtnliN6XJ026NKKTEzE2zlv7HqAJhL9wqpovAsSvDLJEqpxmYsPTLYo6uFwmwom1AtgGGZidOibJB2j59Ziq0nh4MNoy7U7GwenhfguX8hkFh7QngFhcQSQDfv/iO37DWvQyKdDXSNmengj6IuhAS4DkAjDAAUW8+OHBRpezP5YCv/zX0OhtHRE1I14elJAAb7/8hZ6TSWHnl0oGvM5GcCP466EAI4+mNX3RD8cAMKBQMAxdJEsQOjs9E9lWTbTrBFV0LAOvL48AoKiQDv/lVaesTRsDKVjwL4vo9CoRBiRXuUsExfvzdyTPGgTk3ZMHG7sxx3OCsw4DegyF9VqJoHlqMrwvbyAXf9M/faH0ZbZ0jVhKfNnJsCIDXMZBJLDl+LzXfdXvE1ZvLTyOWiO0VSCnEigJ9G1iC9IvYqGvqpsy8uLrwRmzyOlFXL6WOd0QUAKZGfDfbon3V49GcVzEcnn/tXbumr12LrvXfCdys77rdYKsH1XFhmZN2BfjtYxRSnADRzRem1eNfMO9n5V5EpBVZMpyJrr1guB1r8Z3QthrFkZXgFhSRlAM2m6iookWtA10GHVX4BKTE7OxteQXu29JNfuDHaBTi0SwwAGvm+fSA+WTgm4B5xtCeL8kkk/Oje+rNB7/4PWRtSJeHqYOevjSWvCvYeiTgAwJXymEgbpF1iANDErEzgkgLXxkRhaT66u3+JueetKyUSSZj7rgmvoBBx+F8fjT2L0dhT+R475XIp2j0BpAz2+AKFggFAEz919sWAr9exrvUqygBQLhUDDf+b+x0KJKKrd76aTCDF/l8riw4NdqhVlE8DCIABQAMMAJr4o7NSdQkxIbAkwgBQKAQ7dc08SL89/wGghcP/2ulacwiMAAv5igHfqwu08qOf/drSKBukl2MA0ESf36i6hFhoK1nIOdG97YvFyu+qjMYWGN16fkcyAOjHSmXQutfqil9fKhfh+9GtQLIM97WRNUa7xACgiRQqe4SHFmZxPtgBKgvheS7sAPOqxr4HAwGPfa2GtCGQ4dZ/Wuo66JCKXyulRKkc4SiAMPRc3RojDACa2MccV11CLHQXEpG1VSgWgQDbrJqrDw6xmvDw7l9fHfscAMOqfBqgFOk0gKw8rVAoGAA0cXLyedUlxEJXIboRgCBb/4pcI4xuPU9ObWUA0JaZTKF52cqKX18qB9iueuGiPY2LXoYBQBPHWVtwtLVNdRl1ryvCEYBygABgrthHy+F/QwCN/NbQWtuqfSt+bdmx4ft+iNXsVselV39Vv9OtYoQfZY18veHXaBGRJvBYybomcm40t6+e58HxKl/XYazYJ8RqwpMztMwltIO2vSsPAJAS5XI5vGL2IGGYes5zxQQDgEb2M8bwy8YfoltEuytXXHTPRnj3Xy5XPv8vBIxlq8ItKCSNXPynvVxHF1KNlW8lXo50GkBwHYBCDACaOcrqwyMt38QH0w+iWUSXxOOgrRxdALDtyn93orkdIhPd6WwLkeM3Rk1oXra84teWA7x3F04GGK6goHgaoIa6xCy+lP09Ppe9HevdbvT7OTjgyqug+gdfhxG0RtKWbdsVv9ZcvCLESsKVMyQAjgLormnpCgw/+VhFr7XtCLcEBvaKsjHaGQOAxpLw8BqrX3UZdeNm+/UYiaitslP5XZShaQBICCDFKYCa0Lx0ZcWvdT0XUvoQIorhHsEAoBAH9Cg2JgrtkbQjpQ/XqXwBoOjS8/G/Bg5C1YxcVzcMo8JfmJQoBxjBWmBjy3t7e9kPKcIfPMXGRCmaAGA7lQ+hCmHAaO0MsZrwpLn8v2YYholMe0fFr3cDvIcXKFnILNEz8cYAAwDFQtlNo2BHs7Au0N1/WwcQYCe3akqL6PaJp+Aauip/xN5xo9ua3BQOpwEUYQCgWMiXmyJryw3w5SnaukOsJFyc/68t2Y6uil/rBjjDYqEM0+RmQIowAFAszDoNkbUV5MtTNEfzlEIlkhwBqCnplraKXxskxC6UD1Q+V0GBMABQLBScbGRtBRoBaNIzAAhwBKDWZFoqfy9FGQAgZTSLc+hlGAAoFgp2dCMAXoC91EVjS4iVhMcS/LKoNekAo0me54VYyR4IMAAows80xUK0ASDACEAuurUKC5HiN0XNSeQaIIzKfnFSSvh+NFM+wucUgCr8WFMslCKcAvC9yr84RU7PLYD1fC6BdkcIAStT+fve9yMaBRCcAlCFAYBiwfaT0TQkJXwZ4DjVVCa8WkLE6f/alAhwpkRU0wASQs83fQwwAFAseH4097C+lBWfAigSSQhTz3ttflHUpmSm8r7Vr/Q0ywUSQCqShuhl+LmmWPD8aPaxlUG+NBMRjVJUwOAugDXJSAZ4TwVYzLoQAkLfN36dYwCgWIhqBEAiwPy/pnf/AHgWZY2q+DwAIMA7eaHtSI4AKMIAQLHgyYg61wA3TdLU9+PINQC1SQTYVloGWcuyMBwBUETfW46Y2+Y34nv2gfizsxzb/EbMSH5GgnhdeQWWRtBOkHlTEeBurdoEJOa2A6JaYpgBRgCi2/iRX26KMABoxofAfxSPxtXFtSjy1xOaQ5GIpJ1AU+XR3XEtHHcBrknSC/CeiizviQi3HaQdsYfRiA+B9+VPwc32AapLqTteRPvYiwAJQLoR7r62QD7v/muSDPAsf5D38sJIO6KG6CX0nXSMoc8W17LzrxIvond6oC/NKLdfXaAAexuRQp5X+c21EVHoE0A5koboZRgANDEsc/hM6SjVZdStWhgBQIAthKtN48kJ2g0Z5FjfiHoHCXAEQBEGAE38yN4PeS70qxrP0D8AyHIpsmevFyqqTWEoXE6xWPFrDRFZ98ARAEUYADRxtxvFGvX4inIEQFT6xSklZLnyL+xq8rkEoCY5hULFrw3yBMECMQAowgCgiWE/usNq4qhoRXcHa1Z4AhsAQNMAwDUAtckpVh4AzIgeS5XAeCQN0cswAGiiSXAarJqKZnQL7Mwgz17P5kOsJDy25BBArfHKJfiVrgEQAkaQILuQpoDRSBqilzH4gO//ycrK03JQB5kjytqOg6IVXQAItP3qtJ43Q2UZZJNjUqE4NVnxawONYi2QAMYia4x2YsAQs8pa12xccY3/uLK2T0s+wyetq6iYiG5xnWUFCQCVf2lXk5SAo9fHlfagPDlR8WutKM+lkIIBQBFDWviJstZ9AJo8+WTCw5nuTcraP8QcxjuTzyhrv94VrAgDQKLyL09/qvIv7Wor6/mAAr2C4mTlo0lmgDMEFkpyCkAZA9sSZ8EUg8oqKEotZiH+w74cB8inlNZwXfa32MvQ8w6w1hWiHAEwK992WE7oOxVU1uBzSvNXGKv8vZSwotk6GwB8yQCgioHThS1day8k8OftJ35EywMwI4EA+1UEsUxuwX/b/4CL3c+rKWAHHUYBf2r6Hl5lqstj9apg+XDMaN7eVoC7J390KNJTWBai5OtZF+1afrjy75Eg7+GFEqbYFFljtJO53/IbREkCx+Ae2QTpnApfdEdeiQ3AlROwjG03Guect8zZfEq1m1ws+7G/fFpJ7nkly4xprGv+b3yrfDC+UT4U97uLuA97KCSmEh46vOp/sSUSAe6eXBtyagKipS28gkLCEYDaIaXE7Ohwxa8P9B5eGJmaSWyJqjHa2c7fhmvFNIBvqynl//zzg8bbfE13RIuCBR9npR7BWalHUISFIS8HP7KDOerX7xvOxNbSflVvxzRNmKYJr8K9/f3RfpgaBoA8dwOqGeXJCXjlUsWvTyajCgByoLf3/ZUXSoHwNEDNZeBipTmluoy6sDg7hK2ofgAAgGQihaJX2WOlcnArsHpNyBUFV/YlPAhEtj8cVWyqr/Kb6rkAG1HXIMTGaBqiXeFGQBQbLZnonjYKcgfl9es5IioB5PU9sJB2MLVtc8WvTUY3/A/4YABQiAGAYqM9W/mc6EIlk5Uf7OQP9QFBTnGrolkuBKwJU9s2VfzaRDIVXiF7JDdE2Bi9BAMAxUZPY39kbaXS6cpf7HvwB7aGV0yIOAKgP7swi9mRysNuOhXgvbtAUohHI2uMXoYBgGKjNTuKlBXNeqOEaQU6E8Db/GyI1YRnNr5rc2vGxMbnAj1Kmk5HNwJg+ngsssboZRgAKDYEJLoaBiJqTCCVqvyLVNcAYEugyBCgtfHnK3/vWJYV4QJAFKzCIKcAFGIAoFjpaeyLrK10gGkAOToEOaPnrpCTmp3hQTuQcm4EoEJRDv9D4vHe3l7GSYUYAChWuhuiCwCZdDbQ673nnwypknBNaHJ+B73c5JaNsAuVn++WyWRCrGZPJOf/FWMAoFhZ0hzdI3bJRCLYOoDn9JwezfuAy0EALQ0/GaBPFSLSACAFHoisMdolBgCKlcXNW5Aw7WgaC/iF6g9uhZzR73RACWCSTwNoR/o+Rp6tfNQomUhGN/8PQPi4K7LGaJcYAChWTOFhSXPlm6QsVDaTq/zFUsJ9Ws9R0kkOAWhn4oXn4MzmK359tMP/mEzODuk5xxUjDAAUOytaXoisrUwmDRHgMCfviQe0PB1w0ge4eksvA48EG1HPZoOtWVkIIXE3FwCqxwBAsbOsNbonjwzDRDpb+Z2VnBqHtzW6wDJfngTGuRhQG/ZsHqPPP13x6y3LQjrCHQB9ITj8rwEGAIqdFS0bIUR0d9UN2YZAr/cevz+kSsI1wmkAbQw88gBkhadPAkAu2wBEeeKowQCgAwYAip1MYhZLmqJbB5DLZSECfLl6G56AnNJvMeC0BxR5NoBy0vPQ/+C9ga6RywVYq7Jw+bxVuifKBmnXGAAolvbtjG79kRBGsPlV34f7yN3hFRSiETfCu0bapaEn1qM8U/mR4QkrgVSAw6sqcNuXL7qoHGWDtGsMABRL+3Q8EWl7jbnGQK93H38QKBdDqiY8o67UcY1ibEgpsfXevwS6RmNjY6TD/1LI30TWGO0WAwDF0pKWzcgmK98xbaEy2SwsK8Az1k4Z7sP6jQI4EhjnngDKjD7zBGZHhip+vQDQ0BAsnC6UIT0GAE0wAFAsGfCxur3yVdOVaAz4Res+9BfIYnShZb76HQkOAiggJTb/5fZAl8hkc4F2q6zAk1dc8sHoFuDQbjEAUGzt37U+0vaCDrVKx4b7ULDh3moo+MAURwEiN/zUo8gPDwa6RlNjU0jVzJPA/0bbIO0OAwDF1gFdjyFpRrcWyTQtNARcbe2uXwc5rd8TAdscjgFEyfc9bLzjD4GukUwkkQlwYmVFPOPmaBuk3WEAoNhKmHakTwMAQHNTS7AFV64D567fh1dQSGa9uccCKRpb7/kzihOjga7R3Nwc7bP/wLNXfvScaIfdaLcYACjW1vQ8GGl7yWTwuy7v2Ufg928Kp6AQbbM5ChAFezaPLevuDHQNy7KQawi2QdVCCeCWSBukPWIAoFjbr/PxSKcBgO2jAAHZf/oFpNRrK/UZn6cERmHDbb+EVy4FukZTU1OgMyoqIaX8QaQN0h4xAFCsJUwbB3RHe+JeJpMJPAogRwbgPajfgsDNZfCJgCoa2/Ashp54JNA1TNNEY2NzSBXNjwSeuPLS8x+PtFHaIwYAir1XLYl+W/KWlrbA13Dv+QNkwHngsJWkxCAXBFaF5zh47rc/D3ydluYWGNHO/UNAfiPSBmleGAAo9vZqfw7tueFI20yn04HPX5eeC/sPPwF8vaYC+hzA0aukurDhD79CaXI80DUsy0Jj1I/+AbZMpr4TdaO0ZwwAFHsCEocvWRd5u22t7YGv4fdthvPgHSFUEx5PAls4ChCq0eeewsDD9wW+TmtLa6CDqSojfvKZi/55JOJGaR4YAIgAvGrpOpgi2hVsyWQylG1YvXW3wx/cGkJF4RlzgTxHAULhzObx7K9+Chnw0IWw3m8LJuTXo2+U5oMBgAhAQ3Ia+3c9Fnm7ba1tECLYx1BKH/avfwBZLoRUVXASwIYSwNOCg5G+jyduvRn2bD7YhYRAR3tHOEUtzIYrP3JusP2KqWoYAIi2O2pF9N9TpmmitSX4Y4FyegLOb34InY7mK0mJLY7qKmrbxj/9FpObXwh8nVw2i1Qq4l3/5nwRQujzpqSdMAAQbbey7Xksa9kYebtNzc1IhnAeu7fpWTj33BZCReEZdiQmXNVV1KbhJx8LfNQvABiGgfa24OtNKjCRzHg3qWiY5ocBgGgHr10RbH/1SghsH54NYXGWe/8dcJ96OISqwiEBbLQluCZwYWYG+/HML38ceN4fmJtmMs0AR1FXSoprey+8MODcBVUTAwDRDg5atB5t2egXLKdS6XBOZpMSzm0/hbdlQ/BrhcSRwMYyE8B8laYm8NgPvgXPsQNfK51OBz6GukJlWPiqioZp/hgAiHZgwMdRK/6kpO221lZYVgh3ar4H51c3Q45Hu7fB7kx44AZB8+AWC3jsB98OvugPgCEEOto7oz7wZzvx3Ss/fO6AgoZpARgAiF7iiKV/QVNqMvJ2hTDQ1dkVyhe2LBdQ/vE3ICf12Slwi82zAnbHK5fwyA9uwuxoOMGtta0diUQilGstkGd43tUqGqaFYQAgegnLdPD6vdUcuZtKpdHSHPypAACQhTzKP7kJcnoilOsFNfdooESJzwa+jO86eOyH/4OZ/r5QrpfNZNGkZugfQuBbn/7YBc8oaZwWhAGAaBeOWPZnNKfVdJwtLa1IpVKhXEvOTKL802/Cn4l+RGNXXADPlAQ4EPB/PNvGY7d8G5NbwnkCxTRNdHSoGvqHI3zzChUN08IxABDtgmW4OHbVb5S0LQB0dXXDNM1Qricnx+H88GuQk2OhXC+okpR4tiR5bCAAt1zEo9//JiY2BX/WH9j+3unsCu29s2BSfv3Tl54d/bO0VBEGAKJX8Kol69CaUTOHbpkWOjvDu4vzZyZR/uHXIEeHQrleUNMe8ELwRe41zZ7NY/13vo6pvi2hXbO1rQ3pdLBDpgIoub51parGaeEYAIhegWm4ePN+P1PWfiadRWtLa2jXk4UZlG+5Hv5GPaZnR1yJF8rxHAgoTozh4f++Efmh8BbK57I5NDc2h3a9hRKQX7j6Y2dvU1YALRgDANFuHNzzIFa2Paes/ZamZuSyudCuJx0b5V98F+6TD4Z2zSBGXIktMRsJmNy8EQ/edC2KE+GNLiWTSXR0hPMESYWGEknns6oap8owABDtwUn7/whC1X2qEOjs7Ap3H3ffg/P7n8C+/VbAV78cb9CR2BqTEDDw8H149PvfhFsqhnZN0zTR3d0Dw1DW+QMCH+296KJpdQVQJRgAiPZgcdNWHL70HmXtCyHQ3dWNhBXuM93eY/ej/JNvQBZmQr1uJfodiT67ficDfNfF07/4MZ759a3wQwxdQhjo6e6BpWKr378WgYeSM4PfUVcAVYoBgGgeTtjnZ0iaJWXt/99dXrgfWb9vM8rf/Sq8LeqmOV60zQE2llF3iwJmR4bw4Le+isFHQ552EQJdXV1IJsN5ZLRCUsD4l97eXl9lEVQZBgCieWhMTStdEAgAiUQCi3oWhR4CZGEG9q3fhn37rZCO2vN7h12J58oS9dCbSCkx8PB9eOhb12J2OPynLzo7OpHNZEO/7gLdcMXF59ytugiqDAMA0TwduexOrGh9XmkNyWQKPd09ECLkj66Uc1MCt1wHf0jtQu5xD3iqVNsnCJamJvDYzd/CM7++FV7YoUoIdHZ0oiHXEO51F24gaaY+oboIqhwDANE8CSFx6prvwjRdpV1TKpVGd3cXRBVWfMvRIZRvuQHOnb8EXHUr8/Ie8GQRKNfYtsHS97H1vr/g/hu/iPGNVZhWEQJtbW1oULTN706lSHlh74ffr8cWk1QRRdtF7d7/O1ecJD35GtV1VEokBITKFblUNdnkLKQUYuP4vkrrSFgJpNNpFAqzCOHI+J1JCX9wK7xnHoVoaITR3h1yA/PjAhj1gKwhkK6BW5WprZvxxE++i8FHH4Ks0tMVHW0daGpS96z/X0nx4ysvPe/fVZdBwdTAx4pIL8fu/TssalS/30k6nUFP9yIYRnVyvJyegP2rm1H+0dfgj6g52dWVwLMlic02wg86ISlPT+LJW2/G+u/ciJnB/uo0sn3Yv7GpqTrXX5gxWPgX1UVQcFreproPGl/xy/6FquuolJEVMCwtf7QUkuH8Ily77hPS9dT/ost2GUNDg/C8Kj7TLwTMfQ9GYu0bIVo6qtfObjSZwKqUQFL5T3yOPZvHlnV3oP+he+G7btXaEUKgs6MLuVx4G0IFIuXfX3np+beoLoOCU/jwKFHtKpYcjI1sE81tK1WXglQyhUWLFmNocBCOW6VV/FLCe+ZReM89Dmv/w2C9+liI1miDwLQHPF6U2Dsl0KJw8tLOz2DbfXeh78F74DnVXSdhGia6urqRToe4EVQwN7Lzrx8MAEQLtHmsHRd9620oO8PYP9Whw2psJKwEFi9eguHhQRRLVdyvwPfhPvkQ3KcehrF0Fay/OQrmXvtXr72XcLZPCXRYAitS0S5iKk6Moe/+dehffz/8agWtHVgJCz1di5BIhLsBVOXE865nXaK6CgqPJoNpO3MeMP5D2v6/qa6jUkZGwEho+aOlgDaPteOim05GefuNXzKZxEEHHAxT5U5sO5BSYnRsBPl8PrI2ReciWGuOgLnfoRBhblm8BwkBLE8KdFTxR+97LkaffRIDDz+Ayc0bICNaiJBOp9HVGd6R0CGwffivveqSC/Q4RIJCoWUvZT+AI2FD3d6rARlJASOt5Y+WAtg00okPfettKL/kAfWWlnas3nu1oqp2bXpmGmPjY5GunBOJBIzVa2DuewjM5auAKi1OfKlWC1iZDG9tgJQSM/3bMPzkoxh6Yj2cwmw4F56n5sZmtLW1qTzY5+WE+OCVF5/7VdVlULg0eoftzL0X/b6HRarrqIgArEY+YFFPXnrn/1JLlyxHT7deb9dyuYSh4aHqLg58JeksrNUGerbOAAAPuElEQVQHwlh1EIwle0FUeRjbEMCSBNCTEBU92iR9H9N9WzH63FMYeeoxlKYmQq9xTwwh0K7HBj87E/J7V158/ntVl0Hh0zYAyPuxxvXwkPShywTYghiWgJERGv+Eab721PkDAITAfqv3R2OjFo9p/ZXneRgZG0GxUFBXhGXBWLIXzBX7zIWBzirsZLhdcnsQ6LTEbm+gpZQojI1gattmTLzwHCY2boBbDu+EvoVKJpPo7OxCMpFUVsOuiUeTeRzV23uuwjcQVYvW3ZN8AKscDz+DjwMh9a51V4QJGCkBof5JMarQvDr/7SzLxAH7H4yU2sNZXk5KTM9MY3xiPLI57N0RiSSMRcsgupfC6OiB0dEDtHaEGgpSAlicnAsCkBLlyQnkRwYxOzKImf4+TPVtiXxof5eEQHNDE1rb2qqys2NAE4Yvjvj0R8/doLoQqg7t3nG7Ih9A1hE4RHjQ7Jt1fqwECjAxproOWpgv/f5N+/9m/fKfep4/79uybCaH/fY9QKfFW39l2zZGRodh2+q2+H0lwrSAphYYzW0QTa0QjS0Q2QYgnYFIZyHSGcDcPhi4faGhdMoQvgSkB1kqQpYKQHF27s/Tk/BnJmBMT8CfGoev4d/ZNE106HGgz664gDz5ykvO/63qQqh6aiIAEEXtbR+4aI1nFx7wPW/BobOluRWr9t5Hxzs6SADTU5OYmJzQYjQgloRAQy6H9raO0E92DIsALrzikvOuVV0HVZd+tylEigXp/AGgVC7B9zw0NzXrtZIbc4k/nU4j19AAx7bhVnEHO3q5hJVAV2cXmptbtAyIACAgr7rikvOvUl0HVZ8eDy8TaeKUsz50iFMu3Fdp5/+ioZFBpLY/y62jhJVAT/cizBZmMT4xziBQZUIYaGlu1rrj3+6HifzQ5aqLoGhwBIBou1PO+tAhdnk2cOf/oqnpSWSzOaTTmTAuFz4hkEwm0djYBEMIlMtl1RXVHyHQ0NCAnu4eZLNZ3Tv/O5P51Gm9vR+u/jaHpAUGACLMDfu7duH+sDr/F41PjKGhoRGpCHfIWyghBNLpDBoaGyGlhF3l/e3jIpPNoruzG02NTdrO9e9gve/4b/30J8+JbgtJUo4BgGLvlLM+dIhnF0Pv/F80OTWJxsYmJJO6PeO9M8MwkM1m0dgwFwQcmyMClUil0ujq7EJLc4uWT4PswuPSdo+/6rILx1UXQtHSejyKqNrCHvZ/KcMw0NzYAtO00NXdresjX7vkOA6mpieRz+f5xMA85LI5NDU3I63xaM/Liedh4pgrP3zugOpKKHoMABRbQVf778mLnb+x/S7QEALd3T36rgl4BZ7nYWZmGtMz02q2FdaYIQQaGhrR1NyMhFVzm5Zu9Fxx3Gc/fu4W1YWQGgwAFEtRd/5//d+FQFdnNzLZ2hkJeJGERGF2FjOzeRSLxUgPGtJNIpFEY0PD3AJK/ef3d+Vp1zPfdPXHzt6muhBShwGAYkdV5/8iAYHOzi7kcrlqNB8Jx3WQn8kjX5iB68TjEULTNJHL5dCQa0QqVZObkgIAJPCEMMWbOOxPDAAUK1HN+b9S5/9XQqCzvQMNDY3VKCNSZbuM2dk8ZmcLcN36eoLMNE1ksznksjlk0mntNnZaMIkHpOOe+JnLPsityYkBgOJD9Z3/rrS3daCpSa8TBINwHRfFUgGzxQJKxWJNLh5MJpPIZLLIZNLIpDK13+lvJwR+l0h7p/VeeCEf9SMADAAUEzp2/i9qampGe1t7FapSS0ofpXIJpVIZ5e3/ltJXXdZOBARSqRRS6RTSqQxSqVStPLq3IAK4aaRRnHvjuefW1xANBcIAQHVPm2H/3chlc+jo7IQR4pG42pEStuPAdmzYtg3bseGUbbheNGsITNNEMpFAIplCMpFAMplCMpnUfXe+oCSk/PcrLz2/V3UhpJ+6fucT6Xzn/1KpVArdXT11eQe6OxISruvCdVy4rgPP8+B5Hnzfh+fP/VlKQGJu9MD35v5tCAMw5u7ihRAwDQOGYcKwTJjChGmZSJgWTMuClUjAqO+OflfKAvIDV1xy/ndVF0J6it0nguKjljr/F5mmhe6uLq23Dqaa0CeE/64rLr7gHtWFkL7idatBsXHKWR86pBp7+7+oGp0/MDdvnp/Nw7QspJK1+6gZKXWn43tvvurSC59WXQjpjQGA6k61DvZ5UbU6/x0VCnOP1GUz2p8gR3q5cbRRvPvLHzp/WnUhpD9+s1BdqcVh/91JpVLo6uiGlbAiaY9q1qQQ8qwrLj7/x6oLodrBEQCqG7U67L87nudhJj8D0zRqevc5qqp1vumf+JmPXHC36kKotjAAUF2oh2H/VyZRKBYggO+n0/9/e3cXI9VZx3H89zxnZl/pLJS2waBB0gsjpaiVqg3EaCSmjdqKCWjqCxBbZCHQQKGUl8aJCIVhC9GyhV21F9V0m26ivTCGCxMxEU3aELZVTGlNS2tNFUHeYZk953m8sLWUZgtz9sycmTnfzx0X8z//i2H/v+c5Z57TPllSY71NCNUSyvtNL0+ZuLD/noW8yhcVa+IfHSMrmm3bfxQbH/vhuruj0HzCS/vSbAR14bCxftaWNd3FwfnzeUUjYuEZADS0rAz/gV2lzf//l/dm/Y6+b8trp6Rr02sLKQi98Y+NuM71PWu+cy7tZtDYCABoWJkc/pdYU+qdlLfBjyXNq3FPSIGRDkZy925dvfRA2r2gORAA0JCyPvwvta5nz9eM9CNJH6xBT6i908ab7780ZcKjbPcjSQQANByG/3sVi30d5U6/XEYbJY2rYl+oHW9kflF24QPbH1j2z7SbQfMhAKChMPzf34YduyfL2Ye9/LfE/+9G9qwx7j6O8kU18QcCDYPhf/U29PTN9sZvldesJJpCzbwk7x/asnrJoIzxaTeD5kYAQENg+McsuL1/jjNus6RPJVkXSTOvGWlL/uybjxeLxdq8HxmZRwBA3WP4J1B8e/8cb/xWL//Jal0Dsfxd0iNnWsp7Hl2x4mLazSBbCACoa9Uf/oG6rulq6uF/qQ09fbMlv9ZLX67F9TCqlyX1tpxt7SsWFw2n3QyyiQCAulWL4V8odCmw2Rj+l1pf6v+4sX6Vl/+GpHytr59ZRvuN07bNq7/3a+7xI20EANQlhn9tbOjZNUUKlkhmoZcmpdlLEztjjJ6K5Hdvvb/7YNrNAG8jAKDuMPxrb97TTwcfee3k551xiyXNlcT7h8fIyByQ1D8S5QZKa797Ju1+gMsRAFBXGP7p2/BI74ecDxYY6euSpqfdT0Mxel3eD8r7J7asWfpC2u0A74cAgLrB8K8/63r2TDPez5fsfBn/0bT7qVPHJP3SyPx88/2L93NvH42CAIC6wPCvfw/t6Ls5dPqS8e52GTNL2b1N4I005I32Gm9+kz/75h+LxaJLuymgUgQApI7h33jWbu3ryuXdHO91u2S+IGlq2j1Vk5eOSvqdMX7vSOT2cjY/mgEBAKli+DeHNaXeSS0muNVbzZI0W163SmpJu68xeMXI7Jf0B2vN/k0r7/0rW/toNgQApIbh37xWb3+is9WevVk+mOHlZ8j76TJmhqQJaff2Lkbn5f0hSc9L5i/W+z/ngvxQcdU9/0m7NaDaCABIBcM/m956W+FUJzdVMlOt9GEnTTXSZEk3SOpK+JLnJHNMxr/hvY5Y6VXndcRYHXHWvdp26ugR7t8jqwgAqDmGP0ZTLBZz5zquv64tl5/onJvojBtvFfzve+Lf2j3wrkWyORmdlyTv3WljbSTnQm/tSbnouAnM8fzptuMcswuMjgCAmmL4A0B9IACgZhj+AFA/CACoCYY/ANQXAgCqjuEPAPWHAICqYvgDQH0iAKBqGP4AUL8IAKgKhj8A1DcCABLH8AeA+kcAQKIY/gDQGAgASAzDHwAaBwEAifjqgsU3Djt/yEVhlYa/VaEwQYG11Sh/VYzXg0/2lral1gAAJCi9v6ZoGvOWLh1X9v4gwx8AGkcu7QbQ+C6cj34fhuE11aj9zrZ/qll1I8MfQLNhBwBjcteiZSvK5fIt1ahtjVWhMD7Ve/7G60Hu+QNoRjwDgNg+t7DY1h69cSKKorakaxtj1VUYryBId/iz8gfQrNgBQGwF868d1Rj+kjRu3LhUh7/Y9gfQ5HgGALGF0ciCatRta2tXS74qzxNeFVb+ALKAHQDEcufC7nlhGHUkXddaq472zqTLVoKVP4BMYAcAsXj5+6pRt6O9U8ak82gKK38AWcIOAGIJXTgj6ZrWWLW0pLb1z8ofQKYQAFCx21aubI9Cl/jv/ltb21JZ/fNTPwBZRABAxa4/U54t+cTrtramsvpn5Q8gk3gGABXz3n8s6ZrWWgVBbb+O3PMHkGXsAKBixplrk66Zz+WTLnklrPwBZBo7AIghSvyEnlqu/ln5AwA7AIjBm+BU0jVt7c77Z+UPAGIHAPH8LemCtgZP/7PyB4B3sAOAiuVa2vclXrTK30SGPwC8GwEAFfvVnp6j1tpyokVdotUux7Y/AFyGAIBYgiD3SpL1nE/+XAGJQ34AYDQEAMQSmOCpJOs5FyVZ7m2s/AFgFAQAxPLvCa0la2xiG/dhFCZVShIrfwC4EgIAYvnTzp0XcvmWfUnVC8ORpEpJrPwB4IoIAIgt56PFxphEbt475xLZBWDlDwBXp2anr6D5vPj8gRM33fLp6aGLpiVRL7BW+XzLWEpsHOgtPZxELwDQ7NgBwJi0nj/+zVwudzqJWsMXh2O/ZJCVPwBUhgCAMRkcHCzng5YvGo39VoBzTsPl4Yo/xyE/AFA5bgFgzA4PPfeP6TNnvR5F4V1jrRVFodpa22Wu/mhgtv0BIAYCABJxeOjZoZtm3nYhctEcSbEP9vfeS/JX8yyAk9eqgd7S9rjXAoAsIwAgMYeHnts/feasF52P5nrvY99eCsNQuSA36iuCjXTeeLNgoLf009jNAkDGVf8VbMicOxYtn2aji78dCUc+ELeGNVaFQtd7Q4DRC3Lm7oHebYfG2icAZBkBAFVz56JlW8rhxdUuivJxPm9toK7CeFlrJemEl99UKJ/a1d/fn+ipQQCQRQQAVNUdy5e3tp6NtpWjcFEYjhQq/Xw+lz/XWej6wbgOs/vxUulMNXoEgCwiAKBmvtLd/RkzHHRHrvxZ59wk51ybv/QtgEYKTFC2gT1mrB3K2dxPnvnZrmfS6xgAmhcBAKmau2T1DbnwZGc+f93JJ3dvPZF2PwAAAAAAAAAAAAAAAAAAAAAAAAAAAAAAAAAAAAAAAAAAAAAAAAAAAAAAAAAAAAAAAAAAAAAAAAAAAAAAAAAAAAAAAAAAAAAAAAAAAAAAAAAAAAAAAAAAAAAAAAAAAAAAAAAAAAAAAAAAAAAAAAAAAAAAAEDj+S9N9/UFSyZ5VwAAAABJRU5ErkJggg==;" parent="1" vertex="1">
          <mxGeometry x="1250" y="381" width="62" height="62" as="geometry" />
        </mxCell>
        <mxCell id="S56HPxfW4hmjYXF7Ifkf-106" value="" style="shape=image;verticalLabelPosition=bottom;labelBackgroundColor=default;verticalAlign=top;aspect=fixed;imageAspect=0;image=data:image/png,iVBORw0KGgoAAAANSUhEUgAAADAAAAAwCAYAAABXAvmHAAAACXBIWXMAAAsTAAALEwEAmpwYAAABH0lEQVR4nO2XvQ2DMBBGbwHvkSY70GUIKOhpqIAmE6SAOqFIJglVZskWF1kKkgt+fNhgjO9JnyxZFPd8trABmGHK+hFVTYtyBB8pWcDRqvcp6nsut5Ac1XnYM1XT4lycFohPQJk1OpBebygDLgVMDnHKAhoE1QEqKQsMrDQ1QFhpaiAogTGCOgPf4ox9dL5PWUAD7sAWW6ic+IO66ECcvaMk61COxgIUqAJjhCFQLrzHq0UuDYwUrST/C+TqvJWX1FoCSdbhXI7VAe/PQDACn9MJZdYQEJcXyhgLTOFCwCosMIHgDljeQlSEzQ70hVJDKZQaCErA+y00RlACMfEPKlhAg8N3IDa4x4stBOYgv6T2htFLam9Yvce7gAUY8IMfuT9B6eZNKYoAAAAASUVORK5CYII=;" parent="1" vertex="1">
          <mxGeometry x="1280" y="246" width="43" height="43" as="geometry" />
        </mxCell>
        <mxCell id="S56HPxfW4hmjYXF7Ifkf-107" value="" style="shape=image;verticalLabelPosition=bottom;labelBackgroundColor=default;verticalAlign=top;aspect=fixed;imageAspect=0;image=data:image/png,iVBORw0KGgoAAAANSUhEUgAAADAAAAAwCAYAAABXAvmHAAAACXBIWXMAAAsTAAALEwEAmpwYAAAAtUlEQVR4nO2ZsQ3CMBBFLTMIlBkOhgizxINA5CI3AhTJAMkEFEdDWtDJjmyF96Tf39c9y5LtHABsztz5uISDWjJ3vne1YB1++cTVAgVKwwZKwwZKwwa2RocmqjRqyet2qucisw6/ZqFAJthA4AykgUIBhXaukI5t1OmqpjzPFRWYjMOvoUAm2IBwBtJAIUGhNFBIUCgNFBIUSgOFBIX+XaGx7c3DPy4/HneP379Zg79nKwCwY94mH/S29nqOhAAAAABJRU5ErkJggg==;" parent="1" vertex="1">
          <mxGeometry x="1250" y="235.5" width="48" height="48" as="geometry" />
        </mxCell>
        <mxCell id="S56HPxfW4hmjYXF7Ifkf-108" value="BI &amp;amp; REporting" style="text;html=1;align=center;verticalAlign=middle;whiteSpace=wrap;rounded=0;" parent="1" vertex="1">
          <mxGeometry x="1250" y="300" width="60" height="30" as="geometry" />
        </mxCell>
        <mxCell id="S56HPxfW4hmjYXF7Ifkf-109" value="Machine Learning" style="text;html=1;align=center;verticalAlign=middle;whiteSpace=wrap;rounded=0;" parent="1" vertex="1">
          <mxGeometry x="1251" y="580" width="60" height="30" as="geometry" />
        </mxCell>
        <mxCell id="S56HPxfW4hmjYXF7Ifkf-110" value="Sql&amp;nbsp;" style="text;html=1;align=center;verticalAlign=middle;whiteSpace=wrap;rounded=0;" parent="1" vertex="1">
          <mxGeometry x="1250" y="443" width="60" height="30" as="geometry" />
        </mxCell>
      </root>
    </mxGraphModel>
  </diagram>
</mxfile>
